<svg xmlns="http://www.w3.org/2000/svg" width="34.478" height="23.022" viewBox="0 0 34.478 23.022">
  <g id="Group_6138" data-name="Group 6138" transform="translate(-317 -302.5)">
    <path id="Path_6849" data-name="Path 6849" d="M410.972,902.512a1.04,1.04,0,0,1,0-2.081H412.5a4.856,4.856,0,0,1,2.493.656c1.379.871,1.623,2.123,1.963,3.531H428.65a8.739,8.739,0,0,0-.252,2.056H417.557L419.9,915.5h16.621v-.05c.2.014.4.022.609.022a8.923,8.923,0,0,0,1.531-.135l-.362,1.453a1.015,1.015,0,0,1-1,.791H420.453a4.23,4.23,0,0,0,1.239,2.451c.606.393,1.66.421,3.424.393h11.93a1.029,1.029,0,1,1,.107,2.056.949.949,0,0,1-.107,0h-11.9c-2.184.025-3.528-.025-4.61-.738s-1.683-2-2.263-4.293h0l-3.531-13.355c0-.025,0-.025-.025-.053a1.823,1.823,0,0,0-.791-1.18,2.664,2.664,0,0,0-1.453-.342Zm16.043,6.332a.729.729,0,0,1,1.433,0v3.971a.729.729,0,0,1-1.433,0Zm-4.29,0a.729.729,0,0,1,1.433,0v3.971a.729.729,0,0,1-1.433,0Z" transform="translate(-92.932 -596.96)" fill="#062033" fill-rule="evenodd"/>
    <path id="Path_6849-2" data-name="Path 6849" d="M437.15,899.46a7.26,7.26,0,1,0,7.26,7.26A7.232,7.232,0,0,0,437.15,899.46Zm3.7,7.93a.587.587,0,0,1-.58.58H438.4v1.86a.58.58,0,0,1-.58.58h-1.35a.58.58,0,0,1-.58-.58v-1.86h-1.87a.58.58,0,0,1-.58-.58v-1.34a.574.574,0,0,1,.58-.58h1.87V903.6a.58.58,0,0,1,.58-.58h1.35a.58.58,0,0,1,.58.58v1.87h1.87a.587.587,0,0,1,.58.58Z" transform="translate(-92.932 -596.96)" fill="#062033" fill-rule="evenodd"/>
  </g>
</svg>
