<svg xmlns="http://www.w3.org/2000/svg" width="44.603" height="30.619" viewBox="0 0 44.603 30.619">
  <g id="Group_5491" data-name="Group 5491" transform="translate(-282.635 -692.023)">
    <path id="Path_7115" data-name="Path 7115" d="M239.379,2356.059H229.194v-10.932h4.19l6.03,3.8Zm-8.886-1.3h7.593l.025-5.115-5.1-3.219h-2.515Z" transform="translate(53.441 -1645.287)" fill="#0070b9"/>
    <path id="Path_7116" data-name="Path 7116" d="M273.971,2365H249.79v-25.036H270.5l-.18.793a6.279,6.279,0,0,0-.154,1.393,6.478,6.478,0,0,0,6.471,6.47,6.4,6.4,0,0,0,1.353-.144l.787-.17v11.89A4.81,4.81,0,0,1,273.971,2365Zm-22.882-1.3h22.882a3.51,3.51,0,0,0,3.507-3.5v-10.323a7.771,7.771,0,0,1-8.56-8.611H251.089Z" transform="translate(42.833 -1642.363)" fill="#5fbabf"/>
    <path id="Path_7117" data-name="Path 7117" d="M301.612,2342.615a7.779,7.779,0,0,1-7.77-7.769,7.6,7.6,0,0,1,.186-1.681,7.767,7.767,0,1,1,7.584,9.45Zm0-14.24a6.5,6.5,0,0,0-6.316,5.073,6.3,6.3,0,0,0-.155,1.4,6.478,6.478,0,0,0,6.471,6.47,6.4,6.4,0,0,0,1.353-.144,6.47,6.47,0,0,0-1.353-12.8Z" transform="translate(17.857 -1635.053)" fill="#0070b9"/>
    <path id="Path_7118" data-name="Path 7118" d="M251.251,2368.67h-.03v-1.3Z" transform="translate(38.694 -1657.898)" fill="#0070b9"/>
    <g id="Group_5456" data-name="Group 5456" transform="translate(316.943 695.624)">
      <path id="Path_7119" data-name="Path 7119" d="M308.969,2342.255a.859.859,0,0,0,.841-.527,4.341,4.341,0,0,0,.246-1.716,1.607,1.607,0,0,1-.673.538,2.3,2.3,0,0,1-.953.191,2.686,2.686,0,0,1-1.278-.3,2.118,2.118,0,0,1-.88-.886,2.964,2.964,0,0,1-.32-1.43,2.933,2.933,0,0,1,.342-1.447,2.354,2.354,0,0,1,.975-.954,3.159,3.159,0,0,1,1.5-.336,2.543,2.543,0,0,1,2.321,1.031,5.679,5.679,0,0,1,.662,3.039,9.186,9.186,0,0,1-.264,2.405,2.7,2.7,0,0,1-.886,1.441,2.663,2.663,0,0,1-1.7.493,2.93,2.93,0,0,1-1.452-.336,2.383,2.383,0,0,1-.92-.886,2.737,2.737,0,0,1-.364-1.211h1.772A.962.962,0,0,0,308.969,2342.255Zm.65-3.314a1.065,1.065,0,0,0,.28-.779,1.124,1.124,0,0,0-.291-.83,1.06,1.06,0,0,0-.785-.292,1.031,1.031,0,0,0-.779.3,1.124,1.124,0,0,0-.286.813,1.079,1.079,0,0,0,.286.78,1.091,1.091,0,0,0,.824.3A1,1,0,0,0,309.62,2338.941Z" transform="translate(-305.953 -2335.392)" fill="#5fbabf"/>
    </g>
    <path id="Path_7120" data-name="Path 7120" d="M233.287,2377.841h-4.093v-10.47h10.192l-.032,6.725Zm-2.794-1.3h2.425l5.139-3.173.023-4.7h-7.587Z" transform="translate(53.441 -1657.898)" fill="#5fbabf"/>
  </g>
</svg>
