<svg xmlns="http://www.w3.org/2000/svg" width="127" height="127" viewBox="0 0 127 127">
    <g id="Group_6092" data-name="Group 6092" transform="translate(0 0.2)">
        <rect id="Rectangle_3702" data-name="Rectangle 3702" width="127" height="127" transform="translate(0 -0.2)" fill="none"/>
        <line id="Line_155" data-name="Line 155" x2="112" transform="translate(7 58.8)" fill="none" stroke="#2480c2" stroke-linecap="round" stroke-linejoin="round" stroke-width="4"/>
        <path id="Path_9654" data-name="Path 9654" d="M203.757,184v11.854a3.951,3.951,0,0,1-3.951,3.951H187.951A3.951,3.951,0,0,1,184,195.854V184" transform="translate(-93.116 -92.763)" fill="none" stroke="#2480c2" stroke-linecap="round" stroke-linejoin="round" stroke-width="4"/>
        <path id="Path_9655" data-name="Path 9655" d="M51.757,184v11.854a3.951,3.951,0,0,1-3.951,3.951H35.951A3.951,3.951,0,0,1,32,195.854V184" transform="translate(-16.194 -92.763)" fill="none" stroke="#2480c2" stroke-linecap="round" stroke-linejoin="round" stroke-width="4"/>
        <line id="Line_156" data-name="Line 156" x2="9" transform="translate(31 74.8)" fill="none" stroke="#2480c2" stroke-linecap="round" stroke-linejoin="round" stroke-width="4"/>
        <line id="Line_157" data-name="Line 157" x2="7" transform="translate(88 74.8)" fill="none" stroke="#2480c2" stroke-linecap="round" stroke-linejoin="round" stroke-width="4"/>
        <path id="Path_9656" data-name="Path 9656" d="M126.836,91.66l-14.67-25.685A3.9,3.9,0,0,0,108.758,64H50.078a3.9,3.9,0,0,0-3.408,1.976L32,91.66v31.612h94.836Z" transform="translate(-16.194 -32.036)" fill="none" stroke="#2480c2" stroke-linecap="round" stroke-linejoin="round" stroke-width="4"/>
        <line id="Line_158" data-name="Line 158" x2="24" transform="translate(52 15.8)" fill="none" stroke="#2480c2" stroke-linecap="round" stroke-linejoin="round" stroke-width="4"/>
    </g>
</svg>
