<svg xmlns="http://www.w3.org/2000/svg" width="42.84" height="35.277" viewBox="0 0 42.84 35.277">
  <g id="Group_6046" data-name="Group 6046" transform="translate(0 0)">
    <path id="Path_7101" data-name="Path 7101" d="M-96.965,2349.245H-130.58a1.927,1.927,0,0,1-2.087-1.7v-15.052a1.926,1.926,0,0,1,2.087-1.7h33.615a1.928,1.928,0,0,1,2.09,1.7v15.052A1.929,1.929,0,0,1-96.965,2349.245Zm-33.615-17.329a.65.65,0,0,0-.7.574v15.052a.652.652,0,0,0,.7.577h33.615a.654.654,0,0,0,.708-.577v-15.052a.652.652,0,0,0-.708-.574Z" transform="translate(135.286 -2326.68)" fill="#0070b9"/>
    <path id="Path_7102" data-name="Path 7102" d="M-108.9,2387.312h-42.84v-4.352h42.84Zm-41.645-1.126h40.45v-2.1h-40.45Z" transform="translate(151.735 -2356.2)" fill="#0070b9"/>
    <path id="Path_7103" data-name="Path 7103" d="M-78.349,2396.846a5,5,0,0,1-4.987-4.7l-.035-.6h10.044l-.035.6A5,5,0,0,1-78.349,2396.846Zm-3.781-4.166a3.874,3.874,0,0,0,3.781,3.04,3.873,3.873,0,0,0,3.781-3.04Z" transform="translate(111.495 -2361.569)" fill="#5fbabf"/>
    <path id="Path_7104" data-name="Path 7104" d="M-133.971,2396.846a5,5,0,0,1-4.987-4.7l-.035-.6h10.044l-.035.6A5,5,0,0,1-133.971,2396.846Zm-3.781-4.166a3.874,3.874,0,0,0,3.781,3.04,3.874,3.874,0,0,0,3.781-3.04Z" transform="translate(143.777 -2361.569)" fill="#5fbabf"/>
    <path id="Path_7105" data-name="Path 7105" d="M-102.323,2324.409H-115.7v-1.559a4.082,4.082,0,0,1,4.078-4.078h5.223a4.082,4.082,0,0,1,4.078,4.078Zm-12.253-1.126h11.127v-.433a2.955,2.955,0,0,0-2.952-2.952h-5.223a2.955,2.955,0,0,0-2.952,2.952Z" transform="translate(130.461 -2318.773)" fill="#0070b9"/>
    <path id="Path_7106" data-name="Path 7106" d="M-100.589,2328.144h-1.126v-1.156a.374.374,0,0,0-.373-.373h-5.155a.374.374,0,0,0-.373.373v1.156h-1.126v-1.156a1.5,1.5,0,0,1,1.5-1.5h5.155a1.5,1.5,0,0,1,1.5,1.5Z" transform="translate(126.114 -2322.967)" fill="#0070b9"/>
    <rect id="Rectangle_3045" data-name="Rectangle 3045" width="4.611" height="1.493" transform="translate(19.177 4.244)" fill="#5fbabf"/>
    <path id="Path_7121" data-name="Path 7121" d="M-109.826,2349.243h-32.929a2.455,2.455,0,0,1-2.53-2.367v-13.723a2.455,2.455,0,0,1,2.53-2.366h32.929a2.455,2.455,0,0,1,2.53,2.366v13.723A2.455,2.455,0,0,1-109.826,2349.243Zm-32.929-17.329a1.286,1.286,0,0,0-1.326,1.239v13.723a1.287,1.287,0,0,0,1.326,1.24h32.929a1.287,1.287,0,0,0,1.326-1.24v-13.723a1.286,1.286,0,0,0-1.326-1.239Z" transform="translate(147.706 -2326.679)" fill="#5fbabf"/>
  </g>
</svg>
