<svg xmlns="http://www.w3.org/2000/svg" width="35.483" height="35.457" viewBox="0 0 35.483 35.457">
    <defs>
        <clipPath id="clip-path">
            <rect id="Rectangle_3691" data-name="Rectangle 3691" width="35.483" height="35.457" fill="#32c2bf"/>
        </clipPath>
    </defs>
    <g id="Group_6014" data-name="Group 6014" transform="translate(0 0)">
        <g id="Group_6013" data-name="Group 6013" transform="translate(0 0)" clip-path="url(#clip-path)">
            <path id="Path_9627" data-name="Path 9627" d="M28.246.026V17.645a8.885,8.885,0,0,1,5.386,3.462,8.572,8.572,0,0,1,.881,9.27,8.449,8.449,0,0,1-7.906,5.032c-7.241.083-14.485.035-21.727.021A4.863,4.863,0,0,1,0,30.54Q0,17.566.005,4.592A4.482,4.482,0,0,1,4.545.009Q16.17-.013,27.794,0c.114,0,.228.011.452.022M8.386,2.071V25.62h9.047a9.135,9.135,0,0,1,8.677-8.164V2.071ZM26.419,33.4a6.927,6.927,0,1,0-6.912-6.957A6.923,6.923,0,0,0,26.419,33.4M6.219,2.036H5.026c-2.041,0-2.944.909-2.944,2.956q0,10.372,0,20.745v.822a6.408,6.408,0,0,1,4.137-.9Zm14.3,31.319A12.323,12.323,0,0,1,19.43,32.13a1.207,1.207,0,0,0-1.161-.544c-4.058.018-8.117.01-12.176.01H5.313V29.5h12.58a5.285,5.285,0,0,1-.243-1.016c-.019-.661-.374-.752-.941-.745-2.283.026-4.566.01-6.849.011-1.683,0-3.368-.037-5.05.021a2.762,2.762,0,0,0-2.724,2.889,2.815,2.815,0,0,0,2.864,2.7c.83.012,1.66,0,2.49,0H20.517" transform="translate(0 0)" fill="#32c2bf"/>
            <path id="Path_9628" data-name="Path 9628" d="M95.021,76.315v2.042H83.382c0-.572,0-1.118,0-1.663,0-.493.376-.373.649-.374q4.042-.01,8.083,0h2.907" transform="translate(-71.841 -65.746)" fill="#2480c2"/>
            <rect id="Rectangle_3689" data-name="Rectangle 3689" width="6.879" height="1.99" transform="translate(13.953 6.114)" fill="#2480c2"/>
            <rect id="Rectangle_3690" data-name="Rectangle 3690" width="1.98" height="5.235" transform="translate(25.413 25.29)" fill="#32c2bf"/>
            <path id="Path_9629" data-name="Path 9629" d="M185.356,158.456a1,1,0,0,1-1.025.98,1.06,1.06,0,0,1-1.037-1.063,1.1,1.1,0,0,1,1.047-1,1.046,1.046,0,0,1,1.016,1.079" transform="translate(-157.926 -135.596)" fill="#2480c2"/>
        </g>
    </g>
</svg>
