<svg id="Group_5980" data-name="Group 5980" xmlns="http://www.w3.org/2000/svg" width="44.107" height="40.253" viewBox="0 0 44.107 40.253">
    <defs>
        <clipPath id="clip-path">
            <rect id="Rectangle_3652" data-name="Rectangle 3652" width="44.107" height="40.253" fill="none"/>
        </clipPath>
    </defs>
    <g id="Group_5973" data-name="Group 5973" clip-path="url(#clip-path)">
        <path id="Path_9574" data-name="Path 9574" d="M70.5,16.711a13.516,13.516,0,0,1,11.339,6.03c2.884,4.183,3.144,8.712,1.395,13.411a28.82,28.82,0,0,1-4.494,7.778,50.334,50.334,0,0,1-7.2,7.482,1.422,1.422,0,0,1-2.21-.013,47.434,47.434,0,0,1-8.95-9.929,23.129,23.129,0,0,1-3.567-8.215,13.992,13.992,0,0,1,6.333-14.447,14.585,14.585,0,0,1,7.357-2.1M70.407,48.99c.16-.133.283-.221.39-.326,1.093-1.07,2.214-2.114,3.268-3.222a33.331,33.331,0,0,0,6.307-9.028,13.257,13.257,0,0,0,1.35-6.975,11.334,11.334,0,0,0-22.43-.845,12.971,12.971,0,0,0,1.2,7.832c2.276,4.967,5.879,8.9,9.913,12.563" transform="translate(-40.218 -11.884)" fill="#0070b9"/>
        <path id="Path_9575" data-name="Path 9575" d="M5.348,0a5.375,5.375,0,0,1,5.334,5.327,5.309,5.309,0,0,1-5.3,5.3A5.316,5.316,0,1,1,5.348,0M8.063,5.36A2.728,2.728,0,0,0,5.276,2.551,2.722,2.722,0,0,0,2.54,5.359,2.744,2.744,0,0,0,5.419,8.083,2.681,2.681,0,0,0,8.063,5.36" transform="translate(0 0.001)" fill="#e4f4fb"/>
        <path id="Path_9576" data-name="Path 9576" d="M21.247,124.233a1.27,1.27,0,0,1-1.935,1.083,7.5,7.5,0,0,1-1.58-1.691,1.152,1.152,0,0,1,.373-1.537,1.249,1.249,0,0,1,1.557.036,14.416,14.416,0,0,1,1.282,1.377,2.72,2.72,0,0,1,.3.732" transform="translate(-12.492 -86.645)" fill="#32c2bf"/>
        <path id="Path_9577" data-name="Path 9577" d="M14.068,59.621c0-.272-.012-.544,0-.815A1.224,1.224,0,0,1,15.216,57.6a1.181,1.181,0,0,1,1.346,1.036,9.59,9.59,0,0,1-.009,2.029,1.2,1.2,0,0,1-1.313,1.025,1.261,1.261,0,0,1-1.166-1.2c-.017-.288,0-.578,0-.866h0" transform="translate(-10.001 -40.958)" fill="#32c2bf"/>
        <path id="Path_9578" data-name="Path 9578" d="M14.074,81.241c0-.289-.018-.579,0-.866a1.247,1.247,0,0,1,1.157-1.154,1.178,1.178,0,0,1,1.3.969,9.609,9.609,0,0,1,0,2.177,1.165,1.165,0,0,1-1.363.942,1.218,1.218,0,0,1-1.1-1.15c-.021-.3,0-.611,0-.917h0" transform="translate(-10.003 -56.337)" fill="#32c2bf"/>
        <path id="Path_9579" data-name="Path 9579" d="M38.473,133.124c-.289,0-.579.016-.866,0a1.248,1.248,0,0,1-1.179-1.133,1.185,1.185,0,0,1,.941-1.325,9.9,9.9,0,0,1,2.227,0A1.153,1.153,0,0,1,40.514,132a1.207,1.207,0,0,1-1.124,1.119c-.3.024-.611,0-.917,0v0" transform="translate(-25.902 -92.881)" fill="#32c2bf"/>
        <path id="Path_9580" data-name="Path 9580" d="M60.191,133.133c-.289,0-.579.014-.866,0a1.232,1.232,0,0,1-1.193-1.114,1.162,1.162,0,0,1,.917-1.336,9.585,9.585,0,0,1,2.274,0,1.175,1.175,0,0,1,.905,1.3,1.248,1.248,0,0,1-1.17,1.143c-.288.02-.578,0-.866,0v0" transform="translate(-41.336 -92.889)" fill="#32c2bf"/>
        <path id="Path_9581" data-name="Path 9581" d="M14.084,102.936c0-.306-.022-.613,0-.917a1.243,1.243,0,0,1,1.135-1.122,1.173,1.173,0,0,1,1.3.9,10.231,10.231,0,0,1,.008,2.276,1.166,1.166,0,0,1-1.285.926,1.241,1.241,0,0,1-1.163-1.147c-.023-.3,0-.611,0-.917h0" transform="translate(-10.009 -71.751)" fill="#32c2bf"/>
        <path id="Path_9582" data-name="Path 9582" d="M14.056,40.305c0-1.074.451-1.677,1.261-1.68.832,0,1.259.612,1.3,1.713.049,1.3-.935,1.791-1.709,1.53-.6-.2-.851-.659-.853-1.562" transform="translate(-9.996 -27.469)" fill="#32c2bf"/>
        <path id="Path_9583" data-name="Path 9583" d="M81.455,133.042c-1.126,0-1.7-.5-1.626-1.4,0-.017,0-.034,0-.051.1-.834.86-1.235,2.08-1.1a1.268,1.268,0,0,1,1.193,1.426c-.073.745-.627,1.119-1.65,1.117" transform="translate(-56.768 -92.788)" fill="#32c2bf"/>
        <path id="Path_9584" data-name="Path 9584" d="M93.154,48.748a4.623,4.623,0,0,1,4.621,4.66,4.557,4.557,0,0,1-4.64,4.624,4.642,4.642,0,1,1,.019-9.284m2.028,4.664a2.026,2.026,0,0,0-2.043-2.126A2.106,2.106,0,0,0,93.1,55.5a2.041,2.041,0,0,0,2.084-2.086" transform="translate(-62.904 -34.668)" fill="#0070b9"/>
    </g>
</svg>
