<svg xmlns="http://www.w3.org/2000/svg" width="32.024" height="37.095" viewBox="0 0 32.024 37.095">
    <g id="Group_5962" data-name="Group 5962" transform="translate(-171.488 -217.722)">
        <path id="Path_6049" data-name="Path 6049" d="M12257.226,1965.066s-3.975,16.745,13.108,25.2c6.681-2.96,15.224-9.218,12.939-25.2S12257.226,1965.066,12257.226,1965.066Z" transform="translate(-12084 -1736)" fill="#fff"/>
        <g id="Group_4542" data-name="Group 4542" transform="translate(608.707 74.563)">
            <g id="Path_6047" data-name="Path 6047" fill="#5fbabf" stroke-linecap="square">
                <path d="M -421.2587585449219 179.253662109375 C -421.5297546386719 179.253662109375 -421.7758178710938 179.1995697021484 -421.9901428222656 179.0929107666016 C -425.4793395996094 177.3558349609375 -428.2187194824219 175.4133758544922 -430.3649597167969 173.1544494628906 C -432.8495483398438 170.5394134521484 -434.5016479492188 167.5588073730469 -435.4155883789062 164.0423278808594 C -435.8946228027344 162.1993255615234 -436.1537780761719 160.2602081298828 -436.2079162597656 158.1141204833984 C -436.2520446777344 156.3637542724609 -436.1616821289062 154.4962158203125 -435.9235229492188 152.2368774414062 C -435.8524780273438 151.5610046386719 -435.171630859375 150.7338104248047 -434.4003295898438 150.6806488037109 C -432.0067443847656 150.5149078369141 -429.7530212402344 149.9297485351562 -427.7020874023438 148.9414672851562 C -425.6968688964844 147.9751892089844 -423.8161315917969 146.5903167724609 -422.1121215820312 144.8253326416016 C -421.8983764648438 144.6054382324219 -421.65625 144.5320281982422 -421.5528564453125 144.5006866455078 L -421.5502014160156 144.4998779296875 L -421.0413513183594 144.2979736328125 L -420.5910034179688 144.644287109375 C -417.2967834472656 147.1775054931641 -415.643310546875 148.4490203857422 -414.0234985351562 149.195556640625 C -412.4230651855469 149.9331665039062 -410.6978759765625 150.2225646972656 -407.2608032226562 150.7991180419922 L -406.4590454101562 150.9336090087891 L -406.4270324707031 151.7459564208984 C -406.4021606445312 152.3767395019531 -406.3672790527344 153.0285491943359 -406.3335571289062 153.6589050292969 C -406.2579650878906 155.0721435546875 -406.1797485351562 156.5335083007812 -406.1976318359375 157.9942626953125 C -406.2567138671875 162.8455047607422 -407.5450439453125 167.1111755371094 -410.0269165039062 170.6726837158203 C -412.3438110351562 173.9974975585938 -415.7707214355469 176.80126953125 -420.2124328613281 179.0061187744141 C -420.5296020507812 179.1634674072266 -420.910888671875 179.253662109375 -421.2587585449219 179.253662109375 Z M -432.2969360351562 154.2738342285156 C -432.6737060546875 158.5134582519531 -432.25244140625 162.0916442871094 -431.0142822265625 165.1923217773438 C -430.3258972167969 166.9161987304688 -429.3654479980469 168.5051879882812 -428.1596374511719 169.9151916503906 C -426.8988647460938 171.3894195556641 -425.3244934082031 172.7216186523438 -423.4802551269531 173.8747863769531 C -422.9671936035156 174.1955413818359 -422.5528869628906 174.47021484375 -422.219970703125 174.6909332275391 C -421.7899780273438 174.9759979248047 -421.3458557128906 175.2704315185547 -421.1875 175.3134613037109 C -421.0355224609375 175.2699432373047 -420.6170043945312 174.9880676269531 -420.2117309570312 174.7151489257812 C -419.885498046875 174.4954223632812 -419.4794921875 174.2219848632812 -418.9734802246094 173.9020385742188 C -415.3948974609375 171.6391448974609 -412.9585571289062 168.9237823486328 -411.5252380371094 165.6007843017578 C -410.1558532714844 162.4260559082031 -409.7036437988281 158.7114868164062 -410.1482238769531 154.2652587890625 C -414.2565307617188 153.6693725585938 -417.9702758789062 151.9705505371094 -421.2095336914062 149.2055816650391 C -424.4337158203125 151.9712219238281 -428.0761108398438 153.6360626220703 -432.2969360351562 154.2738342285156 Z" stroke="none"/>
                <path d="M -421.2005920410156 145.4369964599609 C -421.2658386230469 145.462890625 -421.34765625 145.4735565185547 -421.3927001953125 145.5198974609375 C -424.9362487792969 149.1902618408203 -429.2036437988281 151.3231964111328 -434.3315734863281 151.6782836914062 C -434.5528259277344 151.6935272216797 -434.9029235839844 152.0932159423828 -434.9290466308594 152.3416900634766 C -435.3335266113281 156.1791687011719 -435.4294738769531 160.0137939453125 -434.44775390625 163.790771484375 C -432.6248474121094 170.8044738769531 -427.7510681152344 175.1077880859375 -421.5445861816406 178.1976470947266 C -421.31591796875 178.3114013671875 -420.9109802246094 178.2363586425781 -420.6570739746094 178.1103973388672 C -412.3267822265625 173.9752807617188 -407.3146057128906 167.5964660644531 -407.1975708007812 157.9820251464844 C -407.1720886230469 155.90087890625 -407.3461608886719 153.8173217773438 -407.4262390136719 151.7853393554688 C -414.4849548339844 150.6012725830078 -414.4849548339844 150.6012725830078 -421.2005920410156 145.4369964599609 M -421.1866760253906 176.3160705566406 C -421.7420654296875 176.3160705566406 -422.3075561523438 175.787353515625 -424.0104064941406 174.7226715087891 C -431.9111938476562 169.7825164794922 -434.1953430175781 162.348876953125 -433.2138671875 153.3884582519531 C -428.6170349121094 152.8430023193359 -424.6566467285156 151.0479583740234 -421.2110290527344 147.8684539794922 C -417.8028564453125 151.0007476806641 -413.8048095703125 152.8747711181641 -409.2408447265625 153.3725891113281 C -408.0491638183594 163.2357177734375 -411.0095520019531 170.0492553710938 -418.4390563964844 174.7472534179688 C -420.0893859863281 175.7907409667969 -420.6330261230469 176.3160705566406 -421.1866760253906 176.3160705566406 M -420.8822326660156 143.1588287353516 L -419.9814147949219 143.8515625 C -416.7464599609375 146.3392028808594 -415.1227416992188 147.5878448486328 -413.6049194335938 148.2873687744141 C -412.1258544921875 148.9690551757812 -410.5494079589844 149.2335052490234 -407.0953674316406 149.8128967285156 L -405.4918212890625 150.0818939208984 L -405.4277954101562 151.7065887451172 C -405.4031982421875 152.3303375244141 -405.3700561523438 152.9497222900391 -405.3349914550781 153.6054840087891 C -405.2585144042969 155.0348510742188 -405.179443359375 156.5128936767578 -405.1977233886719 158.0065002441406 C -405.2592468261719 163.0616455078125 -406.6080017089844 167.5155639648438 -409.2064819335938 171.2444152832031 C -411.6205444335938 174.7086486816406 -415.1738891601562 177.6214141845703 -419.767822265625 179.9018249511719 C -420.2252197265625 180.1287689208984 -420.7545776367188 180.2536468505859 -421.2587280273438 180.2536468505859 C -421.6856994628906 180.2536468505859 -422.0816650390625 180.1643371582031 -422.4356384277344 179.9881744384766 C -426.0311889648438 178.1981506347656 -428.8619384765625 176.1881713867188 -431.0899353027344 173.8432464599609 C -433.6580810546875 171.1402893066406 -435.4390563964844 167.9273986816406 -436.3834533691406 164.2938690185547 C -436.8819274902344 162.3759765625 -437.1515197753906 160.36279296875 -437.2075805664062 158.1393280029297 C -437.2528381347656 156.3444976806641 -437.1608276367188 154.4356384277344 -436.9180297851562 152.1320495605469 C -436.8460388183594 151.4473419189453 -436.4859008789062 150.9164581298828 -436.1965026855469 150.5917663574219 C -435.7058715820312 150.0413360595703 -435.1085510253906 149.7270965576172 -434.4690856933594 149.6830139160156 C -429.9428405761719 149.3695983886719 -426.1359558105469 147.5534210205078 -422.83154296875 144.1307678222656 L -422.8270263671875 144.1260986328125 C -422.4657592773438 143.7543182373047 -422.0578002929688 143.6105041503906 -421.8819274902344 143.5556335449219 L -420.8822326660156 143.1588287353516 Z M -411.0754699707031 155.1277770996094 C -414.7941284179688 154.4590759277344 -418.1907348632812 152.9085845947266 -421.2094116210938 150.5020904541016 C -422.6961975097656 151.6890258789062 -424.283935546875 152.6720581054688 -425.9475708007812 153.4344177246094 C -427.6373291015625 154.208740234375 -429.4520263671875 154.7766723632812 -431.3605651855469 155.1296234130859 C -431.6097412109375 158.8743286132812 -431.1896362304688 162.0567016601562 -430.0856018066406 164.8214721679688 C -428.7449035644531 168.1789398193359 -426.4108276367188 170.8629608154297 -422.9500732421875 173.0268859863281 C -422.4257507324219 173.3547058105469 -422.0052490234375 173.6334838867188 -421.6673889160156 173.8574676513672 C -421.5086669921875 173.9627075195312 -421.3396301269531 174.0747680664062 -421.1937561035156 174.1683044433594 C -421.061767578125 174.0819702148438 -420.9117126464844 173.9808959960938 -420.7703552246094 173.8856964111328 C -420.4387817382812 173.6623992919922 -420.026123046875 173.3844757080078 -419.5079040527344 173.0568237304688 C -416.105224609375 170.9051361083984 -413.7943725585938 168.3366851806641 -412.4434509277344 165.2047271728516 C -411.2212524414062 162.3711853027344 -410.7705688476562 159.0627899169922 -411.0754699707031 155.1277770996094 Z" stroke="none" fill="#fff"/>
            </g>
            <g id="Path_6048" data-name="Path 6048" transform="translate(-28.075 -40.652)" fill="#5fbabf" stroke-linecap="square">
                <path d="M -395.5304565429688 209.4545593261719 L -396.5923156738281 208.1179351806641 L -399.1763610839844 204.8654479980469 L -400.5104370117188 203.1863250732422 L -401.4381103515625 202.0187377929688 L -400.2759704589844 201.0842590332031 L -398.8642883300781 199.9491424560547 L -397.6917114257812 199.0062866210938 L -396.7524719238281 200.1817474365234 L -396.2820434570312 200.7704925537109 L -395.2677307128906 202.0399627685547 L -392.463623046875 199.4240875244141 L -389.1116333007812 196.2971801757812 L -387.945556640625 195.2093658447266 L -386.9310913085938 196.4397430419922 L -385.9321594238281 197.6512603759766 L -385.0780639648438 198.6870880126953 L -386.0132446289062 199.6503601074219 C -388.7210083007812 202.4394683837891 -391.5060119628906 205.3084564208984 -394.3414916992188 208.2296447753906 L -395.5304565429688 209.4545593261719 Z" stroke="none"/>
                <path d="M -395.4178161621094 207.1848907470703 C -392.5823059082031 204.263671875 -389.7972717285156 201.3946533203125 -387.0894775390625 198.6054992675781 L -388.0884094238281 197.3939971923828 C -390.5390014648438 199.6801300048828 -392.9441528320312 201.9235992431641 -395.4287109375 204.2414855957031 C -396.2102355957031 203.2632293701172 -397.0392150878906 202.2258148193359 -397.92431640625 201.1181182861328 L -399.3359985351562 202.2532348632812 C -398.0011291503906 203.9333801269531 -396.7437438964844 205.5158386230469 -395.4178161621094 207.1848907470703 M -395.6431274414062 211.7242431640625 L -403.5401916503906 201.7842407226562 L -397.4591064453125 196.8944854736328 L -395.1067504882812 199.8384399414062 L -387.802734375 193.0247344970703 L -383.0666809082031 198.7686767578125 L -384.93701171875 200.6951904296875 C -387.6447143554688 203.4842834472656 -390.4297180175781 206.3532409667969 -393.26513671875 209.2743988037109 L -395.6431274414062 211.7242431640625 Z" stroke="none" fill="#fff"/>
            </g>
        </g>
    </g>
</svg>
