<svg xmlns="http://www.w3.org/2000/svg" width="26.733" height="28.759" viewBox="0 0 26.733 28.759">
  <g id="Group_5612" data-name="Group 5612" transform="translate(-175.262 -483.154)">
    <g id="Group_5611" data-name="Group 5611" transform="translate(175.262 483.154)">
      <g id="Group_5613" data-name="Group 5613" transform="translate(0 0)">
        <path id="Path_8523" data-name="Path 8523" d="M51.234,0H37.1A1.985,1.985,0,0,0,35.12,1.982v8.225L33.809,11.3a1.393,1.393,0,0,0,.88,2.474H51.234A1.983,1.983,0,0,0,53.217,11.8V1.982A1.985,1.985,0,0,0,51.234,0" transform="translate(-26.484)" fill="#1a1818"/>
        <path id="Path_8524" data-name="Path 8524" d="M18.285,47.6V39.38A1.985,1.985,0,0,0,16.3,37.4H2.17A1.984,1.984,0,0,0,.189,39.38V49.2A1.981,1.981,0,0,0,2.17,51.171H18.716a1.4,1.4,0,0,0,1.315-.93,1.38,1.38,0,0,0-.421-1.532Z" transform="translate(-0.189 -22.412)" fill="#1a1818"/>
        <path id="Path_8536" data-name="Path 8536" d="M52.249,2.252v9.815a.741.741,0,0,1-.743.738H34.962a.155.155,0,0,1-.1-.273l1.77-1.476v-8.8a.742.742,0,0,1,.743-.743H51.506a.742.742,0,0,1,.743.743" transform="translate(-26.755 -0.271)" fill="#d2dae6"/>
        <path id="Path_8537" data-name="Path 8537" d="M40.99,7.211a1.649,1.649,0,1,1,0-3.3h8.6a1.649,1.649,0,1,1,0,3.3Z" transform="translate(-27.569 -0.703)" fill="#040504"/>
        <path id="Path_8538" data-name="Path 8538" d="M49.793,6.5h-8.6a.74.74,0,1,1,0-1.479h8.6a.74.74,0,1,1,0,1.479" transform="translate(-27.768 -0.902)" fill="#22bcee"/>
        <path id="Path_8539" data-name="Path 8539" d="M40.99,12.2a1.649,1.649,0,1,1,0-3.3h8.6a1.649,1.649,0,1,1,0,3.3Z" transform="translate(-27.569 -1.599)" fill="#040504"/>
        <path id="Path_8540" data-name="Path 8540" d="M49.793,11.494h-8.6a.74.74,0,1,1,0-1.479h8.6a.74.74,0,1,1,0,1.479" transform="translate(-27.768 -1.799)" fill="#22bcee"/>
        <path id="Path_8541" data-name="Path 8541" d="M50.534,5.758A.741.741,0,0,1,49.8,6.5h-.225a.712.712,0,0,0,.016-.149.741.741,0,0,0-.743-.738H40.468a.735.735,0,0,1,.722-.594H49.8a.739.739,0,0,1,.738.738" transform="translate(-27.772 -0.902)" fill="#407fc2"/>
        <path id="Path_8542" data-name="Path 8542" d="M50.534,10.753a.741.741,0,0,1-.738.743h-.225a.712.712,0,0,0,.016-.149.737.737,0,0,0-.743-.738H40.468a.735.735,0,0,1,.722-.594H49.8a.739.739,0,0,1,.738.738" transform="translate(-27.772 -1.799)" fill="#407fc2"/>
        <path id="Path_8543" data-name="Path 8543" d="M1.7,39.651v9.815a.741.741,0,0,0,.743.738H18.986a.155.155,0,0,0,.1-.273l-1.77-1.476v-8.8a.742.742,0,0,0-.743-.743H2.441a.742.742,0,0,0-.743.743" transform="translate(-0.46 -22.684)" fill="#d2dae6"/>
        <path id="Path_8544" data-name="Path 8544" d="M5.617,44.584a1.649,1.649,0,1,1,0-3.3h8.6a1.649,1.649,0,1,1,0,3.3Z" transform="translate(-0.867 -23.111)" fill="#040504"/>
        <path id="Path_8545" data-name="Path 8545" d="M14.42,43.874h-8.6a.74.74,0,1,1,0-1.479h8.6a.74.74,0,1,1,0,1.479" transform="translate(-1.067 -23.31)" fill="#ffcf2c"/>
        <path id="Path_8546" data-name="Path 8546" d="M5.617,49.578a1.649,1.649,0,1,1,0-3.3h8.6a1.649,1.649,0,1,1,0,3.3Z" transform="translate(-0.867 -24.007)" fill="#040504"/>
        <path id="Path_8547" data-name="Path 8547" d="M14.42,48.868h-8.6a.74.74,0,1,1,0-1.479h8.6a.74.74,0,1,1,0,1.479" transform="translate(-1.067 -24.207)" fill="#ffcf2c"/>
        <path id="Path_8548" data-name="Path 8548" d="M15.161,43.132a.741.741,0,0,1-.738.743H14.2a.711.711,0,0,0,.016-.149.741.741,0,0,0-.743-.738H5.095a.735.735,0,0,1,.722-.594h8.606a.739.739,0,0,1,.738.738" transform="translate(-1.07 -23.31)" fill="#fc8f15"/>
        <path id="Path_8549" data-name="Path 8549" d="M15.161,48.126a.741.741,0,0,1-.738.743H14.2a.711.711,0,0,0,.016-.149.737.737,0,0,0-.743-.738H5.095a.735.735,0,0,1,.722-.594h8.606a.739.739,0,0,1,.738.738" transform="translate(-1.07 -24.207)" fill="#fc8f15"/>
      </g>
    </g>
  </g>
</svg>
