<svg xmlns="http://www.w3.org/2000/svg" width="49.36" height="44.884" viewBox="0 0 49.36 44.884">
  <g id="Group_6048" data-name="Group 6048" transform="translate(-164.647 -693.417)">
    <path id="Path_7160" data-name="Path 7160" d="M28.988,130.76a4.762,4.762,0,0,1-4.493-3.242l-.043-.134c-.107-.332-.218-.676-.31-1.021a2.434,2.434,0,0,1,1.427-3.159c.09-.045.182-.088.285-.136l.036-.017-3.92-15.717c-2.011.9-2.978,3.046-2.593,5.792l.02.144-2.947.918-3.608-11.667,16.645-5.146L33.1,109.04l-3.015.93-.052-.161a4.5,4.5,0,0,0-2.419-2.824,5.266,5.266,0,0,0-2.922-.5,2.9,2.9,0,0,0,.083.28l1.521,4.107c1.276,3.444,2.6,7.005,3.886,10.511.1.268.186.316.49.268a2.416,2.416,0,0,1,2.934,1.736,5.654,5.654,0,0,1-.155,5.042,3.466,3.466,0,0,1-2.287,1.878c-.211.051-.425.119-.632.185l-.233.073a4.429,4.429,0,0,1-1.306.2m-6.78-23.895,4.084,16.375-.291.138c-.1.047-.19.089-.279.133a2.109,2.109,0,0,0-1.248,2.763c.09.336.2.676.3,1l.043.134a4.384,4.384,0,0,0,5.371,2.823l.23-.072c.213-.068.432-.138.655-.192a3.141,3.141,0,0,0,2.066-1.707,5.329,5.329,0,0,0,.138-4.751,2.093,2.093,0,0,0-2.562-1.524.673.673,0,0,1-.865-.489c-1.29-3.505-2.61-7.066-3.886-10.51q-.761-2.053-1.521-4.107a3.415,3.415,0,0,1-.1-.341c-.013-.051-.026-.1-.041-.154l-.052-.184.189-.031a5.582,5.582,0,0,1,3.315.5,4.871,4.871,0,0,1,2.542,2.867l2.365-.729L29.262,97.8l-15.99,4.943,3.405,11.01,2.341-.73c-.364-2.924.754-5.195,3.007-6.09Zm6.925,22.271a3.231,3.231,0,0,1-1.2-.235,2.575,2.575,0,0,1-1.65-1.9,2.684,2.684,0,0,1,.864-2.471,3.3,3.3,0,0,1,2.179-.959h.008a2.874,2.874,0,0,1,2.983,1.939,2.838,2.838,0,0,1-1.394,3.095,3.5,3.5,0,0,1-1.795.529m.2-5.219a2.951,2.951,0,0,0-1.942.865,2.346,2.346,0,0,0-.764,2.157,2.239,2.239,0,0,0,1.44,1.643,2.942,2.942,0,0,0,2.69-.27,2.494,2.494,0,0,0,1.236-2.713,2.548,2.548,0,0,0-2.655-1.682Zm-7.365-19.157a1.727,1.727,0,0,1-1.853-1.644,1.749,1.749,0,0,1,.547-1.234,2.311,2.311,0,0,1,1.6-.68h0a1.67,1.67,0,0,1,1.307,2.88,2.25,2.25,0,0,1-1.589.678Zm.3-3.215a1.96,1.96,0,0,0-1.359.579,1.409,1.409,0,0,0-.447.989,1.393,1.393,0,0,0,1.51,1.3h.013a1.9,1.9,0,0,0,1.345-.574,1.329,1.329,0,0,0-1.061-2.3Z" transform="translate(153.46 607.392)" fill="#0070b9" stroke="#5fbabf" stroke-width="0.3"/>
    <path id="Path_7161" data-name="Path 7161" d="M168.51,68.333a3.2,3.2,0,0,1-2.046-.708c-.149-.117-.313-.225-.471-.329-.093-.061-.185-.122-.276-.185a4.672,4.672,0,0,1-1.124-6.416c.075-.108.149-.217.223-.327.148-.219.3-.446.464-.662a2.347,2.347,0,0,1,3.159-.8c.105.047.207.1.326.162l.119.061,9.97-12.906c-1.856-1.107-4.52-.46-6.252,1.538l-.067.078-2.47-1.719,6.84-9.948,14.266,9.8-6.85,9.966L181.8,54.218l.066-.095a4.488,4.488,0,0,0,.7-3.825,5.645,5.645,0,0,0-1.456-2.581l-8.5,13.944c1.527,1.65,1.564,2.3.307,4.256a5.2,5.2,0,0,1-3.321,2.276,4.61,4.61,0,0,1-1.085.139m-1.293-9.493a2.169,2.169,0,0,0-1.756,1c-.159.211-.311.436-.457.653-.074.11-.149.22-.224.329a4.44,4.44,0,0,0,1.067,6.1c.089.062.18.122.271.181.163.107.331.217.487.341a3.235,3.235,0,0,0,2.935.526,4.982,4.982,0,0,0,3.182-2.178c1.218-1.889,1.173-2.418-.34-4.039l-.059-.063,8.741-14.34.1.1a5.888,5.888,0,0,1,1.619,2.79,4.692,4.692,0,0,1-.674,3.917l2.146,1.465,6.592-9.59-13.889-9.545-6.582,9.572,2.115,1.472c1.842-2.06,4.657-2.68,6.587-1.438l.1.067-.076.1L168.947,59.418l-.085-.043-.2-.106c-.115-.06-.215-.112-.315-.157a2.747,2.747,0,0,0-1.126-.272m1.528,7.768h-.014a3.342,3.342,0,0,1-2.337-1.015,3.083,3.083,0,0,1-.921-2.159,2.484,2.484,0,0,1,2.6-2.447h.015a3.342,3.342,0,0,1,2.335,1.005,3.052,3.052,0,0,1,.921,2.164,2.481,2.481,0,0,1-2.6,2.451m-.675-5.392a2.235,2.235,0,0,0-2.369,2.22,2.854,2.854,0,0,0,.856,2,3.112,3.112,0,0,0,2.175.946h.013a2.258,2.258,0,0,0,2.368-2.224,2.826,2.826,0,0,0-.855-2,3.112,3.112,0,0,0-2.174-.937Zm14.422-15.777a2.125,2.125,0,0,1-1.484-.646,1.982,1.982,0,0,1-.608-1.4,1.535,1.535,0,0,1,1.627-1.515h.026a2.09,2.09,0,0,1,2.083,2,1.554,1.554,0,0,1-1.621,1.561h-.022m-.466-3.336a1.3,1.3,0,0,0-1.4,1.29,1.753,1.753,0,0,0,.542,1.238,1.873,1.873,0,0,0,1.341.579,1.332,1.332,0,0,0,1.4-1.333A1.858,1.858,0,0,0,182.05,42.1h-.024" transform="translate(19.79 661.593)" fill="#5fbabf" stroke="#5fbabf" stroke-width="0.3"/>
    <path id="Path_7162" data-name="Path 7162" d="M303.8,12.117,289.541,2.3,291.125,0l2.58,1.775,11.675,8.032ZM289.859,2.246,303.742,11.8l1.32-1.933L291.184.318Z" transform="translate(-91.581 693.626)" fill="#5fbabf" stroke="#0070b9" stroke-width="0.3"/>
    <path id="Path_7163" data-name="Path 7163" d="M.847,63.382,0,60.6l.163-.05,16.471-5.092.853,2.781Zm-.42-2.555.647,2.125,15.983-4.94-.652-2.125Z" transform="translate(164.834 644.513)" fill="#0070b9" stroke="#0070b9" stroke-width="0.3"/>
    <path id="Path_7164" data-name="Path 7164" d="M296.415,35.03l-14.269-9.815.545-.695L296.9,34.3Zm-13.938-9.866,13.876,9.546.234-.352L282.738,24.83Z" transform="translate(-85.032 671.912)" fill="#5fbabf" stroke="#5fbabf" stroke-width="0.3"/>
    <path id="Path_7165" data-name="Path 7165" d="M9.041,89.855l-.291-.949,16.606-5.129.322.936Zm.137-.722.09.293,15.97-4.936-.1-.287Z" transform="translate(157.085 619.434)" fill="#0070b9" stroke="#5fbabf" stroke-width="0.3"/>
  </g>
</svg>
