<?xml version="1.0" encoding="UTF-8"?>
<svg xmlns="http://www.w3.org/2000/svg" viewBox="0 0 191.26 123.18">
  <defs>
    <linearGradient id="_Áåçûìÿííûé_ãðàäèåíò_4" data-name="Áåçûìÿííûé ãðàäèåíò 4" x1="95.63" y1="7.48" x2="95.63" y2="96.12" gradientUnits="userSpaceOnUse">
      <stop offset="0" stop-color="#fff"/>
      <stop offset=".14" stop-color="#fbfbfb"/>
      <stop offset=".27" stop-color="#f0f0f0"/>
      <stop offset=".39" stop-color="#dedede"/>
      <stop offset=".51" stop-color="#c4c4c4"/>
      <stop offset=".63" stop-color="#a3a3a3"/>
      <stop offset=".74" stop-color="#7a7a7a"/>
      <stop offset=".86" stop-color="#494949"/>
      <stop offset=".96" stop-color="#131313"/>
      <stop offset="1" stop-color="#000"/>
    </linearGradient>
  </defs>
  <g isolation="isolate">
    <g id="Layer_2" data-name="Layer 2">
      <g id="_Ñëîé_1" data-name="Ñëîé 1">
        <g>
          <g>
            <path d="m95.62,6.48v42.46c-5.02,0-9.87.8-14.41,2.3l-1.92-5.85-11.22-34.55c8.69-2.82,17.94-4.35,27.55-4.35Z" fill="#f7ba09" stroke-width="0"/>
            <path d="m81.2,51.24c-4.71,1.51-9.11,3.76-13.02,6.63l-3.6-4.95-21.35-29.39c7.48-5.44,15.83-9.75,24.83-12.69l11.22,34.55,1.92,5.85Z" fill="#ff6d00" stroke-width="0"/>
            <path d="m123.17,10.84l-11.22,34.55-1.89,5.85c-4.54-1.49-9.4-2.3-14.44-2.3V6.48c9.63,0,18.89,1.54,27.55,4.35Z" fill="#f7ba09" stroke-width="0"/>
            <path d="m68.19,57.87c-3.98,2.89-7.46,6.37-10.32,10.34l-4.97-3.6-29.4-21.37c5.51-7.55,12.17-14.22,19.74-19.71l21.35,29.39,3.6,4.95Z" fill="#ff6d00" stroke-width="0"/>
            <path d="m167.73,43.24l-29.39,21.35-4.95,3.62c-2.86-3.98-6.37-7.48-10.34-10.34l3.62-4.95,21.35-29.39c7.55,5.49,14.22,12.17,19.71,19.71Z" fill="#0ed4b0" stroke-width="0"/>
            <path d="m184.77,95.64h-42.46c0-5.04-.8-9.89-2.3-14.44l5.85-1.89,34.55-11.22c2.82,8.66,4.35,17.92,4.35,27.55Z" fill="#009e82" stroke-width="0"/>
            <path d="m57.87,68.21c-2.86,3.93-5.14,8.31-6.63,13.02l-5.85-1.92-34.55-11.22c2.91-8.99,7.22-17.37,12.66-24.85l29.4,21.37,4.97,3.6Z" fill="#fb0254" stroke-width="0"/>
            <path d="m148.02,23.53l-21.35,29.39-3.62,4.95c-3.91-2.86-8.28-5.11-12.99-6.63l1.89-5.85,11.22-34.55c8.99,2.93,17.37,7.24,24.85,12.69Z" fill="#0ed4b0" stroke-width="0"/>
            <path d="m180.42,68.09l-34.55,11.22-5.85,1.89c-1.51-4.71-3.76-9.09-6.63-12.99l4.95-3.62,29.39-21.35c5.44,7.48,9.75,15.86,12.69,24.85Z" fill="#009e82" stroke-width="0"/>
            <path d="m51.24,81.23c-1.49,4.54-2.3,9.37-2.3,14.41H6.48c0-9.63,1.54-18.89,4.35-27.55l34.55,11.22,5.85,1.92Z" fill="#fb0254" stroke-width="0"/>
            <path d="m22.34,39.3l14.53,13.65-17.47-9.61c-1.22-.67-1.66-2.2-.99-3.42.67-1.22,2.2-1.66,3.42-.99.19.1.36.23.51.37Z" fill="#303957" stroke-width="0"/>
            <path d="m69.36,7.01l3.75,19.58-8.5-18.03c-.59-1.26-.05-2.76,1.2-3.35,1.26-.59,2.76-.05,3.35,1.2.09.19.16.4.2.6Z" fill="#303957" stroke-width="0"/>
            <path d="m126.55,8.53l-8.5,18.03,3.74-19.58c.26-1.37,1.58-2.26,2.95-2,1.37.26,2.26,1.58,2,2.95-.04.21-.11.42-.2.6Z" fill="#303957" stroke-width="0"/>
            <path d="m171.84,43.34l-17.47,9.6,14.54-13.64c1.01-.95,2.61-.9,3.56.11.95,1.01.9,2.61-.11,3.56-.15.15-.33.27-.51.37Z" fill="#303957" stroke-width="0"/>
            <path d="m95.62,0C42.81,0,0,42.81,0,95.64c0,2.01.07,4,.21,5.99h49.13c-.26-1.96-.4-3.95-.4-5.99,0-5.04.8-9.87,2.3-14.41,1.49-4.71,3.76-9.09,6.63-13.02,2.86-3.98,6.34-7.46,10.32-10.34,3.91-2.86,8.31-5.11,13.02-6.63,4.54-1.49,9.4-2.3,14.41-2.3s9.89.8,14.44,2.3c4.71,1.51,9.09,3.76,12.99,6.63,3.98,2.86,7.48,6.37,10.34,10.34,2.86,3.91,5.11,8.28,6.63,12.99,1.49,4.54,2.3,9.4,2.3,14.44,0,2.04-.14,4.02-.4,5.99h49.13c.12-1.99.21-3.98.21-5.99C191.26,42.81,148.44,0,95.62,0Zm52.83,95.64c0-5.7-.9-11.19-2.58-16.33-1.73-5.33-4.28-10.3-7.53-14.72-3.24-4.5-7.17-8.43-11.67-11.67-4.43-3.24-9.4-5.8-14.72-7.53-5.14-1.68-10.63-2.58-16.33-2.58s-11.19.9-16.33,2.58c-5.33,1.73-10.27,4.28-14.7,7.53-4.47,3.24-8.43,7.19-11.69,11.69-3.22,4.43-5.77,9.37-7.5,14.7-1.68,5.14-2.58,10.63-2.58,16.33H6.48c0-9.63,1.54-18.89,4.35-27.55,2.91-8.99,7.22-17.37,12.66-24.85,5.51-7.55,12.17-14.22,19.74-19.71,7.48-5.44,15.83-9.75,24.83-12.69,8.69-2.82,17.94-4.35,27.55-4.35s18.89,1.54,27.55,4.35c8.99,2.93,17.37,7.24,24.85,12.69,7.55,5.49,14.22,12.17,19.71,19.71,5.44,7.48,9.75,15.86,12.69,24.85,2.82,8.66,4.35,17.92,4.35,27.55h-36.33Z" fill="#c1c6d6" stroke-width="0"/>
            <path d="m148.44,95.64c0-5.7-.9-11.19-2.58-16.33-1.73-5.33-4.28-10.3-7.53-14.72-3.24-4.5-7.17-8.43-11.67-11.67-4.43-3.24-9.4-5.8-14.72-7.53-5.14-1.68-10.63-2.58-16.33-2.58s-11.19.9-16.33,2.58c-5.33,1.73-10.27,4.28-14.7,7.53-4.47,3.24-8.43,7.19-11.69,11.69-3.22,4.43-5.77,9.37-7.5,14.7-1.68,5.14-2.58,10.63-2.58,16.33H6.48c0-9.63,1.54-18.89,4.35-27.55,2.91-8.99,7.22-17.37,12.66-24.85,5.51-7.55,12.17-14.22,19.74-19.71,7.48-5.44,15.83-9.75,24.83-12.69,8.69-2.82,17.94-4.35,27.55-4.35s18.89,1.54,27.55,4.35c8.99,2.93,17.37,7.24,24.85,12.69,7.55,5.49,14.22,12.17,19.71,19.71,5.44,7.48,9.75,15.86,12.69,24.85,2.82,8.66,4.35,17.92,4.35,27.55h-36.33Z" fill="url(#_Áåçûìÿííûé_ãðàäèåíò_4)" mix-blend-mode="multiply" opacity=".32" stroke-width="0"/>
            <path d="m158.04,69.22c-3.93,0-7.11,3.18-7.11,7.11s3.18,7.11,7.11,7.11,7.11-3.18,7.11-7.11-3.18-7.11-7.11-7.11Zm-3.95,5.52c0-.59.48-1.07,1.07-1.07s1.07.48,1.07,1.07-.48,1.07-1.07,1.07-1.07-.48-1.07-1.07Zm3.95,6.12c-1.84,0-3.33-1.49-3.33-3.33,0-.04,0-.08,0-.12h6.66s0,.08,0,.12c0,1.84-1.49,3.33-3.33,3.33Zm2.88-5.05c-.59,0-1.07-.48-1.07-1.07s.48-1.07,1.07-1.07,1.07.48,1.07,1.07-.48,1.07-1.07,1.07Z" fill="#fff" opacity=".6" stroke-width="0"/>
            <path d="m33.1,83.45c3.93,0,7.11-3.18,7.11-7.11s-3.18-7.11-7.11-7.11-7.11,3.18-7.11,7.11,3.18,7.11,7.11,7.11Zm2.88-9.63c.59,0,1.07.48,1.07,1.07s-.48,1.07-1.07,1.07-1.07-.48-1.07-1.07.48-1.07,1.07-1.07Zm.45,6.15s0,.08,0,.12h-6.66s0-.08,0-.12c0-1.84,1.49-3.33,3.33-3.33s3.33,1.49,3.33,3.33Zm-6.22-6.15c.59,0,1.07.48,1.07,1.07s-.48,1.07-1.07,1.07-1.07-.48-1.07-1.07.48-1.07,1.07-1.07Z" fill="#fff" opacity=".6" stroke-width="0"/>
            <path d="m57.59,35.52c-3.93,0-7.11,3.18-7.11,7.11s3.18,7.11,7.11,7.11,7.11-3.18,7.11-7.11-3.18-7.11-7.11-7.11Zm-3.95,5.66c0-.59.48-1.07,1.07-1.07s1.07.48,1.07,1.07-.48,1.07-1.07,1.07-1.07-.48-1.07-1.07Zm6.72,4.9c-.14.05-.29-.02-.34-.16-.44-1.23-1.55-1.66-2.43-1.66s-1.99.44-2.43,1.66c-.04.11-.14.17-.25.17-.03,0-.06,0-.09-.02-.14-.05-.21-.2-.16-.34.44-1.22,1.59-2.01,2.92-2.01s2.48.79,2.92,2.01c.05.14-.02.29-.16.34Zm.12-3.83c-.59,0-1.07-.48-1.07-1.07s.48-1.07,1.07-1.07,1.07.48,1.07,1.07-.48,1.07-1.07,1.07Z" fill="#fff" opacity=".6" stroke-width="0"/>
            <path d="m102.44,29.77c0-3.93-3.18-7.11-7.11-7.11s-7.11,3.18-7.11,7.11,3.18,7.11,7.11,7.11,7.11-3.18,7.11-7.11Zm-11.07-1.45c0-.59.48-1.07,1.07-1.07s1.07.48,1.07,1.07-.48,1.07-1.07,1.07-1.07-.48-1.07-1.07Zm6.9,4h-5.9c-.14,0-.26-.12-.26-.26s.12-.26.26-.26h5.9c.14,0,.26.12.26.26s-.12.26-.26.26Zm-.07-2.93c-.59,0-1.07-.48-1.07-1.07s.48-1.07,1.07-1.07,1.07.48,1.07,1.07-.48,1.07-1.07,1.07Z" fill="#fff" opacity=".69" stroke-width="0"/>
            <path d="m133.39,35.52c-3.93,0-7.11,3.18-7.11,7.11s3.18,7.11,7.11,7.11,7.11-3.18,7.11-7.11-3.18-7.11-7.11-7.11Zm-3.95,5.66c0-.59.48-1.07,1.07-1.07s1.07.48,1.07,1.07-.48,1.07-1.07,1.07-1.07-.48-1.07-1.07Zm6.88,3.42c-.44,1.22-1.59,2.01-2.92,2.01s-2.48-.79-2.92-2.01c-.05-.14.02-.29.16-.33.14-.05.29.02.34.16.44,1.23,1.55,1.66,2.43,1.66s1.99-.44,2.43-1.66c.05-.14.2-.21.34-.16.14.05.21.2.16.33Zm-.04-2.35c-.59,0-1.07-.48-1.07-1.07s.48-1.07,1.07-1.07,1.07.48,1.07,1.07-.48,1.07-1.07,1.07Z" fill="#fff" opacity=".6" stroke-width="0"/>
            <g>
              <path d="m127.51,101.43c.34-1.88.55-3.82.55-5.8,0-17.91-14.52-32.43-32.43-32.43s-32.43,14.52-32.43,32.43c0,1.98.21,3.91.55,5.8h63.76Z" fill="#717991" stroke-width="0"/>
              <polygon points="95.15 76.22 86.05 83.12 65.75 56.35 95.15 76.22" fill="#ff6d00" stroke-width="0"/>
              <polygon points="86.05 83.12 76.96 90.01 65.75 56.35 86.05 83.12" fill="#c25300" stroke-width="0"/>
              <circle cx="95.62" cy="95.63" r="27.55" fill="#303957" stroke-width="0"/>
              <circle cx="95.62" cy="95.63" r="11.46" fill="#ff6d00" stroke-width="0"/>
              <path d="m95.62,105.65c-5.53,0-10.02-4.5-10.02-10.02s4.5-10.02,10.02-10.02,10.02,4.5,10.02,10.02-4.5,10.02-10.02,10.02Zm0-19.04c-4.97,0-9.02,4.05-9.02,9.02s4.05,9.02,9.02,9.02,9.02-4.05,9.02-9.02-4.05-9.02-9.02-9.02Z" fill="#fff" stroke-width="0"/>
              <g>
                <g>
                  <circle cx="91.77" cy="93.69" r="1.43" fill="#fff" stroke-width="0"/>
                  <circle cx="99.48" cy="93.69" r="1.43" fill="#fff" stroke-width="0"/>
                </g>
                <path d="m92.04,100.28s-.08,0-.12-.02c-.18-.07-.28-.27-.21-.45.59-1.63,2.13-2.69,3.91-2.69,0,0,0,0,0,0,1.78,0,3.32,1.06,3.91,2.69.07.18-.03.38-.21.45-.18.07-.38-.03-.45-.21-.59-1.64-2.07-2.23-3.25-2.23s-2.66.58-3.25,2.23c-.05.14-.19.23-.33.23Z" fill="#fff" stroke-width="0"/>
              </g>
            </g>
            <g>
              <path d="m13.32,87.94l2.75-.73-2.54-1.29.06-.57,3.12,1.66-.06.57-3.39.96.06-.59Z" fill="#1d243b" stroke-width="0"/>
              <path d="m14,82.52l.49.07-.26,1.77.88.13.23-1.58.49.07-.23,1.58.89.13.26-1.82.49.07-.34,2.37-3.24-.47.34-2.31Z" fill="#1d243b" stroke-width="0"/>
              <path d="m17.73,80.27l-1.08.41s-.01.1-.02.15l-.14.76.97.18-.1.54-3.22-.6.24-1.3c.15-.82.64-1.22,1.34-1.09.51.1.83.4.92.86l1.21-.52-.11.62Zm-1.59.46c.09-.5-.07-.82-.5-.9-.42-.08-.68.17-.77.67l-.14.76,1.27.24.14-.76Z" fill="#1d243b" stroke-width="0"/>
              <path d="m17.21,77.49l1.06.24-.12.53-1.04-.24-2.42.7.12-.54,1.76-.56-1.35-1.25.12-.55,1.86,1.66Z" fill="#1d243b" stroke-width="0"/>
              <path d="m17.63,71.73c.71.2,1,.77.77,1.57l-.21.72.95.27-.15.53-3.15-.9.36-1.26c.23-.79.75-1.14,1.43-.94Zm-.13.51c-.41-.12-.69.1-.83.59l-.2.7,1.25.35.2-.7c.14-.49,0-.82-.42-.94Z" fill="#1d243b" stroke-width="0"/>
              <path d="m19.31,68.28c.89.3,1.34,1.25,1.03,2.17-.31.93-1.24,1.42-2.13,1.12-.89-.3-1.33-1.24-1.02-2.17.31-.93,1.23-1.42,2.12-1.12Zm-.92,2.76c.62.21,1.28-.14,1.48-.75.2-.61-.12-1.27-.74-1.47-.62-.21-1.26.13-1.46.74-.2.61.11,1.28.72,1.48Z" fill="#1d243b" stroke-width="0"/>
              <path d="m20.64,64.84c.87.34,1.28,1.3.93,2.22-.35.91-1.3,1.36-2.17,1.02-.88-.34-1.27-1.3-.92-2.21.35-.91,1.29-1.36,2.16-1.03Zm-1.04,2.71c.61.23,1.28-.08,1.51-.68.23-.6-.06-1.27-.67-1.5-.61-.23-1.27.07-1.5.67-.23.6.05,1.28.66,1.51Z" fill="#1d243b" stroke-width="0"/>
              <path d="m23.22,63.02l-1.15.15s-.04.09-.06.14l-.31.71.91.4-.22.51-3-1.31.53-1.22c.34-.77.9-1.05,1.55-.76.48.21.72.58.7,1.05l1.3-.23-.25.57Zm-1.66.09c.2-.46.12-.82-.29-.99-.39-.17-.7.01-.9.47l-.31.71,1.19.52.31-.71Z" fill="#1d243b" stroke-width="0"/>
            </g>
            <g>
              <path d="m43.44,32.92c.48.56.41,1.19-.22,1.73l-.57.49.64.75-.42.36-2.14-2.48.99-.85c.62-.54,1.25-.54,1.71,0Zm-.39.36c-.28-.33-.63-.3-1.01.03l-.55.48.85.98.55-.48c.38-.33.46-.68.17-1.01Z" fill="#1d243b" stroke-width="0"/>
              <path d="m46.73,30.95c.58.73.44,1.77-.33,2.38-.77.61-1.81.51-2.39-.22-.58-.74-.43-1.76.34-2.37.76-.61,1.8-.52,2.38.22Zm-2.28,1.8c.4.51,1.14.58,1.65.18.5-.4.59-1.12.19-1.63-.4-.51-1.13-.58-1.63-.18-.5.4-.61,1.13-.21,1.64Z" fill="#1d243b" stroke-width="0"/>
              <path d="m49.71,28.79c.55.76.36,1.79-.43,2.36-.79.57-1.83.43-2.37-.33-.55-.76-.35-1.78.44-2.35.79-.57,1.82-.43,2.37.32Zm-2.35,1.7c.38.53,1.12.63,1.63.25.52-.37.64-1.1.26-1.62-.38-.53-1.1-.63-1.62-.25-.52.38-.66,1.1-.28,1.62Z" fill="#1d243b" stroke-width="0"/>
              <path d="m52.87,28.66l-1.04-.5s-.08.06-.12.09l-.65.43.54.82-.46.3-1.8-2.73,1.11-.73c.7-.46,1.33-.38,1.71.21.29.44.29.88.02,1.26l1.21.51-.52.34Zm-1.44-.83c.42-.28.55-.62.3-.99-.24-.36-.59-.37-1.01-.1l-.65.43.71,1.08.65-.43Z" fill="#1d243b" stroke-width="0"/>
            </g>
            <g>
              <path d="m91.85,12.94l.03.5-1.64.1.06.94,1.48-.09.03.49-1.48.09.08,1.34-.55.03-.2-3.27,2.19-.14Z" fill="#1d243b" stroke-width="0"/>
              <path d="m94.49,15.4l-1.65.04-.29.75-.57.02,1.36-3.31h.56s1.51,3.22,1.51,3.22l-.59.02-.33-.73Zm-.22-.48l-.65-1.44-.58,1.47,1.23-.03Z" fill="#1d243b" stroke-width="0"/>
              <path d="m96.4,12.87l-.05,3.27h-.55s.05-3.28.05-3.28h.55Z" fill="#1d243b" stroke-width="0"/>
              <path d="m99.28,16.2l-.57-1.01s-.1,0-.15,0l-.78-.03-.03.99-.55-.02.11-3.27,1.33.04c.84.03,1.3.45,1.28,1.16-.02.52-.27.88-.71,1.04l.7,1.12-.62-.02Zm-.7-1.5c.5.02.8-.19.82-.63.01-.43-.27-.64-.77-.66l-.78-.03-.04,1.29.77.03Z" fill="#1d243b" stroke-width="0"/>
            </g>
            <g>
              <path d="m139.15,27.1l.41.25-.63,1.02c-.41.04-.92-.07-1.3-.31-.82-.51-1.08-1.52-.59-2.31.49-.79,1.51-1,2.35-.48.4.25.7.64.83,1.05l-.48.18c-.09-.33-.32-.63-.6-.81-.57-.35-1.28-.19-1.62.36-.34.56-.16,1.27.4,1.62.21.13.48.2.76.21l.48-.77Z" fill="#1d243b" stroke-width="0"/>
              <path d="m142.9,29.57c-.53.77-1.56.94-2.37.39-.81-.55-1.02-1.58-.5-2.35.53-.78,1.56-.94,2.36-.38.81.55,1.03,1.57.5,2.34Zm-2.4-1.64c-.37.54-.21,1.27.32,1.63.53.36,1.25.23,1.62-.3.37-.54.22-1.25-.31-1.61-.53-.36-1.26-.25-1.62.29Z" fill="#1d243b" stroke-width="0"/>
              <path d="m145.85,31.78c-.56.75-1.6.87-2.38.29-.78-.59-.95-1.62-.39-2.37.56-.75,1.6-.86,2.38-.28.78.59.96,1.61.4,2.36Zm-2.33-1.75c-.39.52-.27,1.25.24,1.64.51.38,1.24.29,1.63-.23.39-.52.27-1.24-.24-1.62-.52-.39-1.25-.3-1.64.22Z" fill="#1d243b" stroke-width="0"/>
              <path d="m148.68,34.11c-.6.73-1.59.81-2.36.17l-1.02-.84,2.08-2.52,1.03.85c.76.62.87,1.61.26,2.34Zm-.43-.35c.43-.51.34-1.2-.15-1.61l-.6-.5-1.45,1.76.62.51c.49.4,1.16.35,1.59-.16Z" fill="#1d243b" stroke-width="0"/>
            </g>
          </g>
          <g>
            <path d="m172.91,65.57l-.46.19-.68-1.66-.82.34.61,1.48-.46.19-.61-1.48-.84.34.7,1.71-.46.19-.91-2.22,3.03-1.24.88,2.17Z" fill="#1d243b" stroke-width="0"/>
            <path d="m173.32,66.7l-.8,1.14,1.34.37.22.61-1.85-.5-1.2,1.7-.22-.62.86-1.25-1.46-.41-.22-.61,1.98.55,1.12-1.58.22.6Z" fill="#1d243b" stroke-width="0"/>
            <path d="m175.02,71.71l-.47.15-.54-1.7-.85.27.49,1.52-.47.15-.49-1.52-.86.27.56,1.76-.47.15-.73-2.28,3.12-.99.71,2.23Z" fill="#1d243b" stroke-width="0"/>
            <path d="m175.4,73.02l-2.67.75.38,1.36-.48.14-.53-1.9,3.15-.89.15.53Z" fill="#1d243b" stroke-width="0"/>
            <path d="m176.06,75.53l-2.69.66.34,1.37-.49.12-.47-1.91,3.17-.78.13.53Z" fill="#1d243b" stroke-width="0"/>
            <path d="m177.02,79.78l-.49.1-.37-1.75-.87.18.33,1.57-.48.1-.33-1.57-.88.19.38,1.8-.48.1-.49-2.34,3.2-.67.48,2.29Z" fill="#1d243b" stroke-width="0"/>
            <path d="m177.26,81.14l-2.03,2.11,2.32-.38.09.54-3.23.53-.09-.53,2.03-2.1-2.31.38-.09-.54,3.23-.53.09.54Z" fill="#1d243b" stroke-width="0"/>
            <path d="m178.04,86.59l-.49.06-.13-1.03-2.75.34-.07-.55,2.75-.34-.13-1.03.49-.06.33,2.6Z" fill="#1d243b" stroke-width="0"/>
          </g>
        </g>
      </g>
    </g>
  </g>
</svg>