<svg xmlns="http://www.w3.org/2000/svg" width="43.044" height="52.184" viewBox="0 0 43.044 52.184">
    <g id="Group_4581" data-name="Group 4581" transform="translate(-155.332 -1484.316)">
        <path id="Path_6066" data-name="Path 6066" d="M12238.414,3227.234v16.238l2.537,10.74,7.949,1.1,8.12.592,2.79,5.582,4.313-7.95,15.646.677v-15.646l1.606-5.074v-5.243l-3.806-5.243-39.156,2.452Z" transform="translate(-12083 -1728)" fill="#fff"/>
        <g id="Group_4545" data-name="Group 4545" transform="translate(1044.949 1691.437)">
            <g id="Path_6051" data-name="Path 6051" transform="translate(0 -127.014)" fill="#5fbabf">
                <path d="M -867.555908203125 -28.67280960083008 L -867.735595703125 -28.67280960083008 L -868.5040283203125 -28.67280960083008 L -868.683349609375 -28.67280960083008 L -868.84326171875 -28.75392913818359 C -869.6000366210938 -29.13774871826172 -869.9725341796875 -29.78569984436035 -870.2125244140625 -30.30731010437012 C -870.64111328125 -31.2385196685791 -871.0872802734375 -32.18276977539062 -871.5188598632812 -33.09592056274414 C -871.9603881835938 -34.03018951416016 -872.4169311523438 -34.99626922607422 -872.856689453125 -35.95283126831055 C -873.1157836914062 -36.51657104492188 -873.4601440429688 -36.73619079589844 -874.0848388671875 -36.73619079589844 L -874.0958251953125 -36.73616790771484 C -875.56884765625 -36.72975921630859 -877.1615600585938 -36.72676849365234 -879.1082763671875 -36.72676849365234 C -880.2815551757812 -36.72676849365234 -881.454833984375 -36.72782135009766 -882.6281127929688 -36.7288703918457 C -883.3233032226562 -36.72948837280273 -884.0184936523438 -36.73011016845703 -884.7136840820312 -36.73051071166992 C -887.2734985351562 -36.73204803466797 -888.8643798828125 -38.3217887878418 -888.865478515625 -40.87932968139648 C -888.866943359375 -44.69496917724609 -888.866455078125 -48.51057052612305 -888.8659057617188 -52.32617950439453 L -888.8656005859375 -54.51974105834961 C -888.8656005859375 -54.54896926879883 -888.8660888671875 -54.57839965820312 -888.8665161132812 -54.60786819458008 C -888.8684692382812 -54.73617935180664 -888.870849609375 -54.89587020874023 -888.8435668945312 -55.06843948364258 C -888.7323608398438 -55.77141952514648 -888.2269287109375 -56.24419784545898 -887.5245361328125 -56.30210876464844 C -887.4764404296875 -56.30606842041016 -887.4284057617188 -56.30805969238281 -887.381591796875 -56.30805969238281 C -886.7185668945312 -56.30805969238281 -886.19384765625 -55.91025924682617 -886.01220703125 -55.26988983154297 C -885.9275512695312 -54.97114944458008 -885.9273681640625 -54.68183898925781 -885.92724609375 -54.44937896728516 C -885.9253540039062 -51.42173767089844 -885.92529296875 -48.39408111572266 -885.9251708984375 -45.36637115478516 C -885.9251098632812 -43.87931823730469 -885.925048828125 -42.39225769042969 -885.9248046875 -40.90517807006836 C -885.9247436523438 -40.42626953125 -885.83837890625 -40.09749984741211 -885.6681518554688 -39.92800903320312 C -885.4970703125 -39.7576789855957 -885.1654663085938 -39.67126083374023 -884.6824951171875 -39.67116928100586 C -883.7304077148438 -39.67092895507812 -882.7783813476562 -39.66973114013672 -881.8262939453125 -39.66852951049805 C -880.760009765625 -39.66717910766602 -879.6936645507812 -39.66584014892578 -878.6273803710938 -39.66584014892578 C -876.89794921875 -39.66584014892578 -875.481201171875 -39.66949081420898 -874.1688232421875 -39.67731857299805 L -874.1318359375 -39.67742919921875 C -872.264404296875 -39.67742919921875 -870.9263916015625 -38.81639862060547 -870.1549682617188 -37.11825942993164 C -869.5861206054688 -35.86568832397461 -868.9842529296875 -34.59914779663086 -868.4022827148438 -33.37429809570312 C -868.3080444335938 -33.17595291137695 -868.2138061523438 -32.97761917114258 -868.11962890625 -32.77923583984375 C -868.0477294921875 -32.93107604980469 -867.975830078125 -33.08293151855469 -867.9039306640625 -33.23476791381836 C -867.28369140625 -34.5446891784668 -866.6422729492188 -35.89921951293945 -866.022705078125 -37.23500823974609 C -865.2725830078125 -38.85239028930664 -863.985107421875 -39.67245864868164 -862.196044921875 -39.67245864868164 L -862.1885986328125 -39.67245864868164 C -860.58349609375 -39.67025756835938 -858.9782104492188 -39.66954040527344 -857.3731079101562 -39.66954040527344 C -855.904052734375 -39.66954040527344 -854.43505859375 -39.67013931274414 -852.966064453125 -39.67073822021484 L -851.527587890625 -39.67129898071289 C -850.5984497070312 -39.67155838012695 -850.3151245117188 -39.95581817626953 -850.3150634765625 -40.8879280090332 C -850.314697265625 -42.85572052001953 -850.3146362304688 -44.82344818115234 -850.3145141601562 -46.79119873046875 C -850.3143310546875 -50.79504013061523 -850.314208984375 -54.79890823364258 -850.3118896484375 -58.80278015136719 C -850.3118286132812 -58.83776092529297 -850.3130493164062 -58.87437057495117 -850.3141479492188 -58.91168975830078 C -850.3218994140625 -59.17996978759766 -850.3336181640625 -59.58539962768555 -850.0690307617188 -59.91825866699219 C -849.8223266601562 -60.22885131835938 -849.3792114257812 -60.58351135253906 -848.8759765625 -60.64690780639648 C -848.8201293945312 -60.6539306640625 -848.7639770507812 -60.657470703125 -848.708740234375 -60.657470703125 C -848.0474243164062 -60.657470703125 -847.508056640625 -60.15550994873047 -847.3970947265625 -59.43679046630859 C -847.370361328125 -59.26374816894531 -847.3721313476562 -59.10198974609375 -847.37353515625 -58.97200775146484 C -847.3738403320312 -58.94493103027344 -847.3741455078125 -58.91786956787109 -847.3741455078125 -58.89089965820312 L -847.3738403320312 -55.53902816772461 C -847.3733520507812 -50.65274810791016 -847.372802734375 -45.76644897460938 -847.374267578125 -40.88006973266602 C -847.3750610351562 -38.32207107543945 -848.9660034179688 -36.73204803466797 -851.5261840820312 -36.73051071166992 C -852.3036499023438 -36.73006057739258 -853.081298828125 -36.72916793823242 -853.85888671875 -36.72827911376953 C -854.9683227539062 -36.72700881958008 -856.0777587890625 -36.72573852539062 -857.1869506835938 -36.72573852539062 C -859.0985717773438 -36.72573852539062 -860.6588745117188 -36.72966766357422 -862.0972290039062 -36.73809814453125 L -862.1134643554688 -36.7381477355957 C -862.7789916992188 -36.7381477355957 -863.1282958984375 -36.51430130004883 -863.4024047851562 -35.9122200012207 C -863.8659057617188 -34.89450073242188 -864.3512573242188 -33.86940002441406 -864.8206787109375 -32.87805938720703 C -865.2192993164062 -32.03619766235352 -865.6315307617188 -31.16567993164062 -866.0267333984375 -30.30706977844238 C -866.2662963867188 -29.78643035888672 -866.638427734375 -29.13930892944336 -867.3956909179688 -28.75426864624023 L -867.555908203125 -28.67280960083008 Z" stroke="none"/>
                <path d="M -867.735595703125 -29.42280960083008 C -867.22802734375 -29.68088912963867 -866.9418334960938 -30.11246871948242 -866.7080078125 -30.62065887451172 C -865.8458862304688 -32.49366760253906 -864.9395141601562 -34.34651947021484 -864.0850219726562 -36.22298812866211 C -863.6871337890625 -37.09698867797852 -863.0681762695312 -37.48815155029297 -862.1134643554688 -37.48815155029297 C -862.1066284179688 -37.48815155029297 -862.0996704101562 -37.48812866210938 -862.0928344726562 -37.48809051513672 C -858.5709228515625 -37.46743392944336 -855.0487060546875 -37.47846221923828 -851.526611328125 -37.48051071166992 C -849.3868408203125 -37.4818000793457 -848.1249389648438 -38.74176025390625 -848.124267578125 -40.88029098510742 C -848.1224975585938 -46.8839111328125 -848.1236572265625 -52.88739776611328 -848.1241455078125 -58.89089965820312 C -848.1241455078125 -59.03488922119141 -848.116455078125 -59.18104934692383 -848.1383056640625 -59.32234954833984 C -848.1947021484375 -59.68793869018555 -848.4401245117188 -59.94583511352539 -848.7822265625 -59.90279006958008 C -849.0358276367188 -59.8708381652832 -849.31494140625 -59.66178894042969 -849.48193359375 -59.45158004760742 C -849.5980224609375 -59.3055305480957 -849.5617065429688 -59.02359008789062 -849.5618896484375 -58.80234909057617 C -849.5653076171875 -52.830810546875 -849.5640258789062 -46.85926818847656 -849.5650634765625 -40.88785934448242 C -849.565185546875 -39.5384407043457 -850.1807861328125 -38.92168045043945 -851.52734375 -38.92129898071289 C -855.0814208984375 -38.92001342773438 -858.6356201171875 -38.91757965087891 -862.1895751953125 -38.92245864868164 C -862.1917724609375 -38.92246246337891 -862.1939086914062 -38.92246246337891 -862.196044921875 -38.92246246337891 C -863.6742553710938 -38.92246246337891 -864.7172241210938 -38.26727294921875 -865.3423461914062 -36.91944885253906 C -866.1695556640625 -35.13589096069336 -867.0157470703125 -33.36106109619141 -867.8555908203125 -31.58341026306152 C -867.9270629882812 -31.4322395324707 -868.0125732421875 -31.28772926330566 -868.1224975585938 -31.08214950561523 C -868.2278442382812 -31.28298950195312 -868.3047485351562 -31.4172191619873 -868.37060546875 -31.55658912658691 C -869.1958618164062 -33.30574798583984 -870.0381469726562 -35.04734039306641 -870.8378295898438 -36.80805969238281 C -871.4895629882812 -38.24268341064453 -872.5628662109375 -38.92742538452148 -874.1318359375 -38.92742538452148 C -874.1426391601562 -38.92742538452148 -874.1535034179688 -38.92739486694336 -874.1643676757812 -38.92733001708984 C -877.6704711914062 -38.90640640258789 -881.1766357421875 -38.92026901245117 -884.6826171875 -38.92116928100586 C -886.0658569335938 -38.92142868041992 -886.674560546875 -39.52727890014648 -886.6748046875 -40.90504837036133 C -886.6755981445312 -45.41976928710938 -886.6744384765625 -49.93436050415039 -886.67724609375 -54.44894027709961 C -886.6773681640625 -54.6550407409668 -886.6784057617188 -54.86999893188477 -886.7337036132812 -55.06518936157227 C -886.8336181640625 -55.41757965087891 -887.0993041992188 -55.58453750610352 -887.462890625 -55.55464935302734 C -887.8270874023438 -55.52462005615234 -888.0457763671875 -55.31145858764648 -888.102783203125 -54.95111083984375 C -888.1251220703125 -54.8100700378418 -888.1156005859375 -54.66363906860352 -888.1156005859375 -54.51964950561523 C -888.1161499023438 -49.97298049926758 -888.1172485351562 -45.42631912231445 -888.115478515625 -40.8796501159668 C -888.1145629882812 -38.74406814575195 -886.8507690429688 -37.4818000793457 -884.7132568359375 -37.48051071166992 C -881.1753540039062 -37.47846221923828 -877.63720703125 -37.47076034545898 -874.0990600585938 -37.48616027832031 C -874.09423828125 -37.48617935180664 -874.089599609375 -37.48619079589844 -874.0848388671875 -37.48619079589844 C -873.1674194335938 -37.48619079589844 -872.5596313476562 -37.10245895385742 -872.1752319335938 -36.26610946655273 C -871.3073120117188 -34.37821960449219 -870.3998413085938 -32.50830078125 -869.5311889648438 -30.62078857421875 C -869.2974853515625 -30.11285018920898 -869.0120849609375 -29.68050003051758 -868.5040283203125 -29.42280960083008 L -867.735595703125 -29.42280960083008 M -867.3761596679688 -27.92280960083008 L -868.8626708984375 -27.92280960083008 L -869.1825561523438 -28.08504867553711 C -870.1566162109375 -28.5790901184082 -870.625732421875 -29.41102981567383 -870.8938598632812 -29.99382972717285 C -871.32080078125 -30.9215087890625 -871.7662353515625 -31.86400985717773 -872.1969604492188 -32.77547073364258 C -872.6392822265625 -33.71149826049805 -873.0966796875 -34.67939758300781 -873.5380859375 -35.63956069946289 C -873.6765747070312 -35.94084930419922 -873.7481079101562 -35.98619079589844 -874.0848388671875 -35.98619079589844 L -874.0928344726562 -35.98616790771484 C -875.5661010742188 -35.97975921630859 -877.159912109375 -35.97676849365234 -879.1082763671875 -35.97676849365234 C -880.2808837890625 -35.97676849365234 -881.4534301757812 -35.97782135009766 -882.6259765625 -35.97885894775391 C -883.322021484375 -35.97948837280273 -884.01806640625 -35.98011016845703 -884.714111328125 -35.98051071166992 C -886.1688232421875 -35.98138809204102 -887.400390625 -36.44406890869141 -888.2757568359375 -37.31853866577148 C -889.1515502929688 -38.19351959228516 -889.6148681640625 -39.42470932006836 -889.615478515625 -40.87899780273438 C -889.616943359375 -44.69480895996094 -889.616455078125 -48.51054763793945 -889.6159057617188 -52.32629013061523 L -889.6156005859375 -54.51982879638672 C -889.6156005859375 -54.54520034790039 -889.6160278320312 -54.57085037231445 -889.616455078125 -54.59651947021484 C -889.6187133789062 -54.74538040161133 -889.6217651367188 -54.94926071166992 -889.5842895507812 -55.1857795715332 C -889.4188842773438 -56.23141860961914 -888.6345825195312 -56.96313095092773 -887.5861206054688 -57.04957962036133 C -886.4973754882812 -57.13898849487305 -885.5819702148438 -56.50128173828125 -885.2906494140625 -55.474609375 C -885.1776123046875 -55.07553863525391 -885.1773681640625 -54.69898986816406 -885.17724609375 -54.44981002807617 C -885.1753540039062 -51.42205810546875 -885.17529296875 -48.39424896240234 -885.1751708984375 -45.36639022827148 C -885.1751098632812 -43.87937927246094 -885.175048828125 -42.39234924316406 -885.1748046875 -40.90530776977539 C -885.1747436523438 -40.66151809692383 -885.146728515625 -40.52915191650391 -885.1285400390625 -40.46881866455078 C -885.0674438476562 -40.45015335083008 -884.932373046875 -40.42121887207031 -884.6823120117188 -40.42116928100586 C -883.730224609375 -40.42092132568359 -882.7781982421875 -40.41973114013672 -881.826171875 -40.41852951049805 C -880.7598876953125 -40.41717910766602 -879.693603515625 -40.41584014892578 -878.6273803710938 -40.41584014892578 C -876.8988647460938 -40.41584014892578 -875.4835205078125 -40.41947937011719 -874.17333984375 -40.42729949951172 L -874.1318359375 -40.42742919921875 C -871.9746704101562 -40.42742919921875 -870.3634033203125 -39.39039993286133 -869.47216796875 -37.42844772338867 C -869.0338134765625 -36.46335220336914 -868.574951171875 -35.48806762695312 -868.1207275390625 -34.52988815307617 C -867.6478881835938 -35.52971267700195 -867.1690673828125 -36.54587936401367 -866.703125 -37.55056762695312 C -865.8317260742188 -39.42937850952148 -864.273193359375 -40.42245864868164 -862.196044921875 -40.42245864868164 L -862.1895751953125 -40.42245864868164 C -859.1091918945312 -40.41823959350586 -856.0344848632812 -40.41948699951172 -852.9579467773438 -40.42073822021484 L -851.5278930664062 -40.42129898071289 C -851.2935791015625 -40.42136764526367 -851.1676025390625 -40.44942855834961 -851.1114501953125 -40.46711349487305 C -851.0935668945312 -40.52359771728516 -851.0650634765625 -40.65081405639648 -851.0650634765625 -40.88800048828125 C -851.064697265625 -42.85580825805664 -851.0646362304688 -44.82352066040039 -851.0645141601562 -46.79124069213867 C -851.0643310546875 -50.79520034790039 -851.064208984375 -54.79920959472656 -851.0618896484375 -58.8032112121582 C -851.0618896484375 -58.83123016357422 -851.0629272460938 -58.86032867431641 -851.0637817382812 -58.88998031616211 C -851.0733642578125 -59.22114944458008 -851.0912475585938 -59.83758926391602 -850.6561889648438 -60.38494110107422 C -850.2175903320312 -60.93701934814453 -849.5870361328125 -61.31324768066406 -848.9697265625 -61.39102935791016 C -848.8829345703125 -61.40195083618164 -848.7952270507812 -61.407470703125 -848.708740234375 -61.407470703125 C -847.6687622070312 -61.407470703125 -846.8246459960938 -60.64416122436523 -846.6558837890625 -59.55123901367188 C -846.6196899414062 -59.31729888916016 -846.6219482421875 -59.11296844482422 -846.6235961914062 -58.96376800537109 C -846.6238403320312 -58.93943786621094 -846.6241455078125 -58.91513061523438 -846.6241455078125 -58.89089965820312 L -846.6238403320312 -55.53910827636719 C -846.6233520507812 -50.65271759033203 -846.622802734375 -45.76633071899414 -846.624267578125 -40.87984848022461 C -846.6251831054688 -37.90539932250977 -848.5491333007812 -35.9822998046875 -851.5256958007812 -35.98051071166992 C -852.3024291992188 -35.98006057739258 -853.0792236328125 -35.97916793823242 -853.8560180664062 -35.97827911376953 C -854.9663696289062 -35.97700881958008 -856.0767822265625 -35.97573852539062 -857.1869506835938 -35.97573852539062 C -859.10009765625 -35.97573852539062 -860.6617431640625 -35.97966766357422 -862.1016235351562 -35.98812103271484 L -862.1134643554688 -35.9881477355957 C -862.4834594726562 -35.9881477355957 -862.5684814453125 -35.93394088745117 -862.7198486328125 -35.60145950317383 C -863.1856689453125 -34.57859039306641 -863.6722412109375 -33.55091857910156 -864.142822265625 -32.55709075927734 C -864.5405883789062 -31.71703910827637 -864.951904296875 -30.848388671875 -865.3453979492188 -29.99347877502441 C -865.613037109375 -29.41184997558594 -866.0816040039062 -28.58103942871094 -867.0557250976562 -28.08572959899902 L -867.3761596679688 -27.92280960083008 Z" stroke="none" fill="#fff"/>
            </g>
            <g id="Path_6052" data-name="Path 6052" transform="translate(-162.136 0)" fill="#5fbabf">
                <path d="M -700.4382934570312 -182.7912750244141 C -700.8455810546875 -182.791259765625 -701.248291015625 -182.9041748046875 -701.6353149414062 -183.1268768310547 C -702.2501220703125 -183.4805908203125 -702.9598999023438 -184.2023162841797 -702.8494262695312 -185.6316223144531 C -702.8116455078125 -186.1212463378906 -702.782470703125 -186.6235504150391 -702.7543334960938 -187.1093139648438 C -702.7139892578125 -187.8049468994141 -702.6722412109375 -188.5242614746094 -702.6036987304688 -189.2362670898438 C -702.5645751953125 -189.644287109375 -702.4533081054688 -190.2527770996094 -702.145751953125 -190.83349609375 C -699.6868286132812 -195.4766998291016 -697.166015625 -200.185791015625 -694.7282104492188 -204.7398223876953 L -694.6073608398438 -204.9655609130859 C -694.1222534179688 -205.8716583251953 -693.3609008789062 -206.3706512451172 -692.4634399414062 -206.3706512451172 C -692.040283203125 -206.3706512451172 -691.60595703125 -206.2569427490234 -691.1725463867188 -206.03271484375 C -690.11474609375 -205.4854583740234 -689.1541748046875 -204.97216796875 -688.2361450195312 -204.4635314941406 C -686.951416015625 -203.751708984375 -686.549560546875 -202.3948364257812 -687.2362060546875 -201.0871276855469 C -687.7601318359375 -200.0893096923828 -688.3005981445312 -199.0806274414062 -688.8233032226562 -198.1051788330078 C -689.0000610351562 -197.7752990722656 -689.1768188476562 -197.4454650878906 -689.353271484375 -197.1154479980469 C -689.341064453125 -197.1153411865234 -689.328857421875 -197.1152191162109 -689.3167114257812 -197.1150970458984 C -688.115478515625 -197.1032409667969 -687.0945434570312 -196.7114105224609 -686.3641967773438 -195.9819946289062 C -685.6322021484375 -195.2509155273438 -685.242919921875 -194.2320709228516 -685.238525390625 -193.0356292724609 C -685.2346801757812 -191.9546508789062 -685.2349243164062 -190.8383483886719 -685.2391967773438 -189.7176361083984 C -685.2429809570312 -188.7514801025391 -685.8435668945312 -188.0762481689453 -686.6996459960938 -188.0755004882812 C -687.5643310546875 -188.0754699707031 -688.1710815429688 -188.7490997314453 -688.1766357421875 -189.713623046875 C -688.1796875 -190.2627105712891 -688.178955078125 -190.8195190429688 -688.1782836914062 -191.3580017089844 C -688.177490234375 -191.9364166259766 -688.1767578125 -192.5345306396484 -688.1806640625 -193.1212921142578 C -688.1852416992188 -193.8069915771484 -688.5220947265625 -194.1504058837891 -689.2103881835938 -194.1710968017578 C -689.3204345703125 -194.1743927001953 -689.4417724609375 -194.1759948730469 -689.5811157226562 -194.1759948730469 C -689.712158203125 -194.1759948730469 -689.84326171875 -194.1746368408203 -689.974365234375 -194.1733093261719 C -690.1104736328125 -194.1719207763672 -690.2466430664062 -194.1705474853516 -690.3826904296875 -194.1705474853516 C -690.5899658203125 -194.1705474853516 -690.7653198242188 -194.173828125 -690.9276123046875 -194.1808166503906 L -691.1851196289062 -193.6944580078125 C -692.343017578125 -191.5074615478516 -693.540283203125 -189.2460174560547 -694.7588500976562 -187.0406188964844 C -695.128662109375 -186.3712005615234 -695.6578979492188 -185.8524932861328 -696.0368041992188 -185.5352325439453 C -696.630615234375 -185.0379486083984 -697.2540893554688 -184.5726928710938 -697.8570556640625 -184.1227569580078 C -698.1680297851562 -183.8906860351562 -698.4896240234375 -183.6507110595703 -698.7997436523438 -183.4116973876953 C -699.3338623046875 -183.0000305175781 -699.8851928710938 -182.7912902832031 -700.4382934570312 -182.7912750244141 Z M -699.31640625 -189.9220733642578 C -699.5616455078125 -189.4639129638672 -699.7321166992188 -189.0503387451172 -699.7376708984375 -188.5785980224609 C -699.7459106445312 -187.8899993896484 -699.7932739257812 -187.2013092041016 -699.8390502929688 -186.5353088378906 C -699.8439331054688 -186.4638214111328 -699.848876953125 -186.3919067382812 -699.8538208007812 -186.3196411132812 C -699.8094482421875 -186.3541412353516 -699.7653198242188 -186.3885192871094 -699.7213745117188 -186.4227294921875 C -699.212646484375 -186.8188171386719 -698.6866455078125 -187.2283782958984 -698.1282348632812 -187.5960235595703 C -697.7019653320312 -187.8765411376953 -697.4237060546875 -188.2563323974609 -697.1511840820312 -188.7616729736328 L -698.6402587890625 -189.5597229003906 L -699.31640625 -189.9220733642578 Z M -697.9263916015625 -192.5158386230469 C -697.1963500976562 -192.1261138916016 -696.4815673828125 -191.7445220947266 -695.7633056640625 -191.3611755371094 L -694.1224365234375 -194.4306488037109 L -691.7717895507812 -198.8278961181641 L -692.9391479492188 -199.4526062011719 L -693.9349365234375 -199.9855041503906 L -697.9263916015625 -192.5158386230469 Z M -692.5498046875 -202.581298828125 L -691.7099609375 -202.1325073242188 L -690.3867797851562 -201.4253997802734 C -690.2659301757812 -201.6519165039062 -690.1480102539062 -201.8723907470703 -690.0292358398438 -202.0915832519531 C -690.2319946289062 -202.1994934082031 -690.4344482421875 -202.3077850341797 -690.6368408203125 -202.4160766601562 C -691.1465454101562 -202.688720703125 -691.6704711914062 -202.968994140625 -692.19287109375 -203.2391510009766 C -692.3129272460938 -203.0252685546875 -692.4303588867188 -202.8063812255859 -692.5498046875 -202.581298828125 Z" stroke="none"/>
                <path d="M -692.4634399414062 -205.6206359863281 C -693.069091796875 -205.6206359863281 -693.5906372070312 -205.275634765625 -693.9461669921875 -204.6116180419922 C -696.46533203125 -199.9055480957031 -698.98486328125 -195.1996307373047 -701.4829711914062 -190.4825286865234 C -701.6928100585938 -190.0862426757812 -701.8140869140625 -189.6132049560547 -701.857177734375 -189.1644287109375 C -701.9720458984375 -187.9708099365234 -702.00927734375 -186.7698822021484 -702.1016845703125 -185.5738372802734 C -702.1611328125 -184.8046112060547 -701.9498291015625 -184.173095703125 -701.26123046875 -183.7769317626953 C -700.5487060546875 -183.3669738769531 -699.8839721679688 -183.5229187011719 -699.257568359375 -184.0057373046875 C -698.3453979492188 -184.7087554931641 -697.400390625 -185.37158203125 -696.518310546875 -186.1102600097656 C -696.0885620117188 -186.4701080322266 -695.6846923828125 -186.9156646728516 -695.415283203125 -187.4033355712891 C -694.1092529296875 -189.7670745849609 -692.8485717773438 -192.1559753417969 -691.5845947265625 -194.5428314208984 C -691.4406127929688 -194.8147583007812 -691.29052734375 -194.9502410888672 -690.9635009765625 -194.9333343505859 C -690.5038452148438 -194.9097442626953 -690.0421752929688 -194.9259948730469 -689.5811157226562 -194.9259948730469 C -689.449951171875 -194.9259948730469 -689.31884765625 -194.9246826171875 -689.1878662109375 -194.9207611083984 C -688.0950317382812 -194.8879089355469 -687.43798828125 -194.2145538330078 -687.4306640625 -193.1262969970703 C -687.423095703125 -191.9901733398438 -687.4329223632812 -190.8540496826172 -687.4266357421875 -189.7179260253906 C -687.4234619140625 -189.1657562255859 -687.13720703125 -188.8255004882812 -686.7010498046875 -188.8255004882812 C -686.7008056640625 -188.8255004882812 -686.7005615234375 -188.8255004882812 -686.7003173828125 -188.8255004882812 C -686.2630615234375 -188.8258819580078 -685.9913940429688 -189.1599426269531 -685.9891967773438 -189.7204895019531 C -685.9849853515625 -190.8246612548828 -685.984619140625 -191.9288330078125 -685.988525390625 -193.0328674316406 C -685.9959716796875 -195.0592346191406 -687.2843017578125 -196.3449859619141 -689.3240356445312 -196.3651428222656 C -689.7162475585938 -196.3689575195312 -690.1087036132812 -196.3657836914062 -690.57373046875 -196.3657836914062 C -690.46142578125 -196.6012725830078 -690.3939819335938 -196.7584686279297 -690.313720703125 -196.9088745117188 C -689.509521484375 -198.4179229736328 -688.6951904296875 -199.9218597412109 -687.9002075195312 -201.435791015625 C -687.4026489257812 -202.3833923339844 -687.6712646484375 -203.2931365966797 -688.599609375 -203.8074798583984 C -689.5640869140625 -204.3418579101562 -690.537841796875 -204.8599395751953 -691.5172119140625 -205.3665924072266 C -691.8465576171875 -205.5370178222656 -692.1651611328125 -205.6206359863281 -692.4634399414062 -205.6206359863281 M -690.0784912109375 -200.4102935791016 C -691.238525390625 -201.0301361083984 -692.37255859375 -201.6362457275391 -693.562744140625 -202.2722473144531 C -693.241943359375 -202.8709106445312 -692.9494018554688 -203.4486694335938 -692.6173095703125 -204.0028076171875 C -692.5661010742188 -204.0882415771484 -692.2968139648438 -204.1349792480469 -692.189208984375 -204.0801849365234 C -691.2364501953125 -203.5956115722656 -690.298583984375 -203.0816497802734 -689.3533935546875 -202.5820465087891 C -689.1326904296875 -202.4655151367188 -689.0438842773438 -202.3288421630859 -689.1778564453125 -202.0856475830078 C -689.4774169921875 -201.5423126220703 -689.7662963867188 -200.9927825927734 -690.0784912109375 -200.4102935791016 M -695.4552001953125 -190.3466186523438 C -696.615234375 -190.9656982421875 -697.7513427734375 -191.5722045898438 -698.9414672851562 -192.2075653076172 C -697.3717041015625 -195.1450805664062 -695.817626953125 -198.053466796875 -694.2427368164062 -201.0008697509766 C -693.0755615234375 -200.3762817382812 -691.941162109375 -199.7691345214844 -690.7569580078125 -199.1354370117188 C -692.3380737304688 -196.1779022216797 -693.8880615234375 -193.2781066894531 -695.4552001953125 -190.3466186523438 M -700.4647216796875 -185.0520935058594 C -700.4931030273438 -185.0520935058594 -700.5201416015625 -185.0551605224609 -700.5447387695312 -185.0617828369141 C -700.61328125 -185.0802612304688 -700.665771484375 -185.3034362792969 -700.659423828125 -185.4309997558594 C -700.6069946289062 -186.4835815429688 -700.500244140625 -187.5348663330078 -700.4876098632812 -188.5874481201172 C -700.4771728515625 -189.4726715087891 -700.044921875 -190.1636199951172 -699.60986328125 -190.9302825927734 C -698.4406127929688 -190.3036346435547 -697.3050537109375 -189.6950836181641 -696.154541015625 -189.0784454345703 C -696.5513305664062 -188.2472381591797 -696.9317626953125 -187.485595703125 -697.7158203125 -186.9695739746094 C -698.5540771484375 -186.4177398681641 -699.322998046875 -185.7614440917969 -700.1322631835938 -185.1641998291016 C -700.2196655273438 -185.0996246337891 -700.352783203125 -185.0520935058594 -700.4647216796875 -185.0520935058594 M -692.4634399414062 -207.1206512451172 C -691.9191284179688 -207.1206512451172 -691.3688354492188 -206.9787292480469 -690.827880859375 -206.6988220214844 C -689.7637329101562 -206.1483001708984 -688.7969970703125 -205.6316986083984 -687.8726806640625 -205.1195526123047 C -686.2302856445312 -204.2096099853516 -685.6954956054688 -202.4080352783203 -686.5721435546875 -200.7384643554688 C -687.0975952148438 -199.7378540039062 -687.6388549804688 -198.7277679443359 -688.1622314453125 -197.7509460449219 C -688.1633911132812 -197.748779296875 -688.16455078125 -197.7466125488281 -688.1657104492188 -197.7444458007812 C -687.2514038085938 -197.5527954101562 -686.4583129882812 -197.1360168457031 -685.8341674804688 -196.5126647949219 C -684.958984375 -195.6385803222656 -684.49365234375 -194.4371795654297 -684.488525390625 -193.0383758544922 C -684.4846801757812 -191.9554748535156 -684.4849243164062 -190.8373107910156 -684.4891967773438 -189.7147674560547 C -684.49462890625 -188.3313751220703 -685.4240112304688 -187.3266143798828 -686.6990356445312 -187.3255004882812 C -687.982666015625 -187.3255004882812 -688.918701171875 -188.3280487060547 -688.9266357421875 -189.7093200683594 C -688.9296875 -190.2611083984375 -688.928955078125 -190.8192291259766 -688.9282836914062 -191.3589630126953 C -688.927490234375 -191.9359130859375 -688.9267578125 -192.5325164794922 -688.9306640625 -193.1163024902344 C -688.9317016601562 -193.2775268554688 -688.9644165039062 -193.3568267822266 -688.975830078125 -193.3718872070312 C -688.988037109375 -193.3810577392578 -689.068115234375 -193.4164886474609 -689.2329711914062 -193.4214477539062 C -689.3352661132812 -193.4244995117188 -689.4491577148438 -193.4259948730469 -689.5811157226562 -193.4259948730469 C -689.7095947265625 -193.4259948730469 -689.838134765625 -193.4246520996094 -689.9666748046875 -193.42333984375 C -690.1054077148438 -193.4219360351562 -690.2440795898438 -193.4205474853516 -690.3826904296875 -193.4205474853516 C -690.4163208007812 -193.4205474853516 -690.44921875 -193.4206237792969 -690.4813842773438 -193.4207916259766 L -690.5223388671875 -193.3435211181641 C -691.6817016601562 -191.1536254882812 -692.880615234375 -188.8891754150391 -694.1023559570312 -186.6779174804688 C -694.528076171875 -185.9072723388672 -695.1275024414062 -185.3184509277344 -695.5552978515625 -184.960205078125 C -696.1652221679688 -184.4494476318359 -696.7972412109375 -183.9777984619141 -697.408447265625 -183.5216674804688 C -697.7171630859375 -183.2913208007812 -698.036376953125 -183.0531005859375 -698.3419189453125 -182.8176422119141 C -699.0103149414062 -182.302490234375 -699.7156372070312 -182.0412750244141 -700.4382934570312 -182.0412750244141 C -700.9785766601562 -182.0412750244141 -701.5071411132812 -182.1878204345703 -702.0093383789062 -182.4768218994141 C -702.6658325195312 -182.8545074462891 -703.7452392578125 -183.7741851806641 -703.5972290039062 -185.6894073486328 C -703.5599365234375 -186.1718444824219 -703.531005859375 -186.6705017089844 -703.5030517578125 -187.1527404785156 C -703.4622802734375 -187.8553771972656 -703.420166015625 -188.5819091796875 -703.3502807617188 -189.3081207275391 C -703.3046264648438 -189.7834625244141 -703.173583984375 -190.4951629638672 -702.80859375 -191.1844482421875 C -700.3488159179688 -195.8291473388672 -697.82763671875 -200.5389556884766 -695.3895263671875 -205.0936889648438 L -695.2686157226562 -205.3195190429688 C -694.65576171875 -206.4641876220703 -693.6333618164062 -207.1206512451172 -692.4634399414062 -207.1206512451172 Z M -692.78662109375 -198.5203399658203 L -693.6271362304688 -198.9701385498047 L -696.9113159179688 -192.8241271972656 C -696.6302490234375 -192.6740875244141 -696.3505859375 -192.5248260498047 -696.0713500976562 -192.3757629394531 L -692.78662109375 -198.5203399658203 Z M -698.2315673828125 -188.48974609375 L -698.9476928710938 -188.8735656738281 C -698.9729614257812 -188.7709808349609 -698.9865112304688 -188.6710968017578 -698.9877319335938 -188.5697784423828 C -698.9904174804688 -188.3463287353516 -698.9970092773438 -188.1239166259766 -699.0062255859375 -187.9029693603516 C -698.85400390625 -188.0113830566406 -698.698974609375 -188.1182098388672 -698.5405883789062 -188.2224578857422 C -698.4265747070312 -188.2975158691406 -698.3253784179688 -188.3860931396484 -698.2315673828125 -188.48974609375 Z" stroke="none" fill="#fff"/>
            </g>
            <g id="Path_6053" data-name="Path 6053" transform="translate(-146.338 -163.668)" fill="#5fbabf">
                <path d="M -713.4374389648438 -3.495489358901978 C -715.4506225585938 -3.495489358901978 -717.3480834960938 -4.291749477386475 -718.7803344726562 -5.737609386444092 C -720.2213134765625 -7.192319393157959 -721.0042724609375 -9.11398983001709 -720.9849853515625 -11.14860916137695 C -720.9459228515625 -15.26116943359375 -717.5863037109375 -18.60697937011719 -713.4957885742188 -18.60697937011719 C -713.4039916992188 -18.60697937011719 -713.3108520507812 -18.60524940490723 -713.2189331054688 -18.60184860229492 C -712.3878784179688 -18.57102966308594 -711.5941772460938 -18.36138916015625 -710.82666015625 -18.15864944458008 L -710.80712890625 -18.15347862243652 C -710.1767578125 -17.98691940307617 -709.8737182617188 -17.62856864929199 -709.7305297851562 -17.35726928710938 C -709.5430908203125 -17.0022087097168 -709.5189819335938 -16.58382034301758 -709.66259765625 -16.17916870117188 C -709.87109375 -15.59110927581787 -710.3731689453125 -15.23985958099365 -711.0055541992188 -15.23982906341553 C -711.2357177734375 -15.23980903625488 -711.4853515625 -15.28623962402344 -711.74755859375 -15.37780952453613 C -712.30419921875 -15.5723295211792 -712.8741455078125 -15.67093944549561 -713.4415893554688 -15.67093944549561 C -715.2796020507812 -15.67093944549561 -716.8779907226562 -14.63658905029297 -717.6129150390625 -12.97152900695801 C -718.395751953125 -11.19830989837646 -718.1681518554688 -9.558599472045898 -716.9364013671875 -8.097919464111328 C -716.0017700195312 -6.989499568939209 -714.8721313476562 -6.427489280700684 -713.5787963867188 -6.427489280700684 C -713.130126953125 -6.427489280700684 -712.6574096679688 -6.49592924118042 -712.1737060546875 -6.630909442901611 C -710.3543701171875 -7.138609409332275 -709.2426147460938 -8.368069648742676 -708.8693237304688 -10.2851390838623 C -708.641357421875 -11.45601940155029 -708.877197265625 -12.56344985961914 -709.59033203125 -13.670729637146 C -709.9295043945312 -14.19754981994629 -709.9729614257812 -14.83143901824951 -709.7036743164062 -15.32509994506836 C -709.4671020507812 -15.75874900817871 -709.0248413085938 -16.01764869689941 -708.5206298828125 -16.01764869689941 C -708.48291015625 -16.01764869689941 -708.4444580078125 -16.01618957519531 -708.4063110351562 -16.01330947875977 C -707.863037109375 -15.97239971160889 -707.3626708984375 -15.58307933807373 -707.1277465820312 -15.23865985870361 C -705.9954223632812 -13.57927989959717 -705.5944213867188 -11.56732940673828 -705.9987182617188 -9.573539733886719 C -706.409423828125 -7.548269271850586 -707.5894775390625 -5.818969249725342 -709.321533203125 -4.704199314117432 C -710.555419921875 -3.909959554672241 -711.9269409179688 -3.503319501876831 -713.39794921875 -3.4955894947052 L -713.4374389648438 -3.495489358901978 Z" stroke="none"/>
                <path d="M -713.4374389648438 -4.245486259460449 C -713.4257202148438 -4.245486259460449 -713.41357421875 -4.245517730712891 -713.40185546875 -4.245579242706299 C -712.08154296875 -4.252519607543945 -710.8349609375 -4.621979236602783 -709.7274169921875 -5.334869384765625 C -706.532958984375 -7.390869617462158 -705.6228637695312 -11.7026891708374 -707.747314453125 -14.81602954864502 C -707.8961181640625 -15.03418922424316 -708.2105712890625 -15.24644947052002 -708.4627685546875 -15.2654390335083 C -709.0631103515625 -15.31082725524902 -709.3294067382812 -14.65095901489258 -708.9597778320312 -14.07682991027832 C -708.1810302734375 -12.86768913269043 -707.8568115234375 -11.56101989746094 -708.1331787109375 -10.14178943634033 C -708.55712890625 -7.964519500732422 -709.8470458984375 -6.501529693603516 -711.9721069335938 -5.908509254455566 C -714.1400146484375 -5.303555488586426 -716.0571899414062 -5.891695022583008 -717.509765625 -7.614429473876953 C -718.933349609375 -9.302629470825195 -719.193603515625 -11.24813938140869 -718.299072265625 -13.27437973022461 C -717.1487426757812 -15.88054466247559 -714.2579345703125 -17.04950904846191 -711.500244140625 -16.08586883544922 C -710.9185180664062 -15.88272571563721 -710.5205078125 -16.00386619567871 -710.369384765625 -16.4300594329834 C -710.2142333984375 -16.86715888977051 -710.423095703125 -17.27627944946289 -710.9986572265625 -17.42834854125977 C -711.7352294921875 -17.62290000915527 -712.4921875 -17.82437896728516 -713.2467041015625 -17.85235977172852 C -717.0294189453125 -17.99249649047852 -720.1991577148438 -14.9235897064209 -720.2349853515625 -11.14149951934814 C -720.2708129882812 -7.362628936767578 -717.1939086914062 -4.245486259460449 -713.4374389648438 -4.245486259460449 M -713.4374389648438 -2.745489358901978 C -715.6522827148438 -2.745489358901978 -717.739013671875 -3.620669364929199 -719.3131713867188 -5.209799289703369 C -720.8960571289062 -6.807799339294434 -721.756103515625 -8.919439315795898 -721.7349243164062 -11.15572929382324 C -721.6920166015625 -15.67791938781738 -717.9959106445312 -19.35697937011719 -713.4957885742188 -19.35697937011719 C -713.394775390625 -19.35697937011719 -713.2922973632812 -19.35507965087891 -713.191162109375 -19.3513298034668 C -712.27685546875 -19.31741905212402 -711.4046630859375 -19.08703994750977 -710.6351318359375 -18.88377952575684 L -710.6156005859375 -18.87860870361328 C -709.9185791015625 -18.69445037841797 -709.3687133789062 -18.27850914001465 -709.0672607421875 -17.70738983154297 C -708.9092407226562 -17.40805625915527 -708.8263549804688 -17.08157920837402 -708.8197631835938 -16.74753379821777 C -708.6674194335938 -16.76827621459961 -708.5084838867188 -16.77319145202637 -708.3495483398438 -16.76115989685059 C -707.6510009765625 -16.70855903625488 -706.927978515625 -16.27681922912598 -706.5081176757812 -15.66128921508789 C -705.2608032226562 -13.8333797454834 -704.81884765625 -11.61836910247803 -705.263671875 -9.42448902130127 C -705.7149658203125 -7.199139595031738 -707.0119018554688 -5.298799514770508 -708.9155883789062 -4.073539257049561 C -710.2713623046875 -3.200889587402344 -711.7781372070312 -2.75408935546875 -713.3939819335938 -2.745599508285522 L -713.4374389648438 -2.745489358901978 Z M -713.4415893554688 -14.92093944549561 C -714.9781494140625 -14.92093944549561 -716.3135986328125 -14.0579195022583 -716.9268188476562 -12.66867923736572 C -717.5933837890625 -11.15869903564453 -717.4089965820312 -9.821769714355469 -716.363037109375 -8.581399917602539 C -715.5664672851562 -7.636709690093994 -714.65576171875 -7.177489280700684 -713.5787963867188 -7.177489280700684 C -713.1983032226562 -7.177489280700684 -712.7933959960938 -7.236639499664307 -712.3753051757812 -7.353309631347656 C -710.8305053710938 -7.784399509429932 -709.9244995117188 -8.790289878845215 -709.6055297851562 -10.42847919464111 C -709.4163208007812 -11.40021991729736 -709.6175537109375 -12.32792949676514 -710.2208862304688 -13.26462936401367 C -710.4720458984375 -13.65471744537354 -710.6082153320312 -14.08962440490723 -710.6265869140625 -14.52010631561279 C -711.0472412109375 -14.45157337188721 -711.5121459960938 -14.50114822387695 -711.9948120117188 -14.66975975036621 C -712.4718627929688 -14.83645915985107 -712.9585571289062 -14.92093944549561 -713.4415893554688 -14.92093944549561 Z" stroke="none" fill="#fff"/>
            </g>
            <g id="Path_6054" data-name="Path 6054" transform="translate(-32.683 -163.486)" fill="#5fbabf">
                <path d="M -843.8115844726562 -3.677851915359497 C -845.7064208984375 -3.677851915359497 -847.5299072265625 -4.39696216583252 -848.9461059570312 -5.702712059020996 C -850.3646240234375 -7.010622024536133 -851.219482421875 -8.764041900634766 -851.3532104492188 -10.63998222351074 C -851.4917602539062 -12.58444213867188 -850.9052734375 -14.4830322265625 -849.7015991210938 -15.98602199554443 C -848.494384765625 -17.4935417175293 -846.7714233398438 -18.47114181518555 -844.8501586914062 -18.73874282836914 C -844.48291015625 -18.78989219665527 -844.11474609375 -18.81583213806152 -843.7557373046875 -18.81583213806152 C -842.68212890625 -18.81583213806152 -841.6473999023438 -18.58624267578125 -840.6803588867188 -18.13345146179199 C -840.267578125 -17.94017219543457 -839.97412109375 -17.67368125915527 -839.8082885742188 -17.34140205383301 C -839.6187133789062 -16.96163177490234 -839.6181640625 -16.52745246887207 -839.806640625 -16.11887168884277 C -840.04833984375 -15.59493160247803 -840.5352172851562 -15.28208160400391 -841.1089477539062 -15.28206157684326 C -841.3557739257812 -15.28204154968262 -841.6159057617188 -15.33850193023682 -841.8821411132812 -15.44985198974609 C -842.5192260742188 -15.71621227264404 -843.1746826171875 -15.85128211975098 -843.8302001953125 -15.85128211975098 C -845.0916748046875 -15.85128211975098 -846.2639770507812 -15.35801219940186 -847.1310424804688 -14.46234226226807 C -848.0064086914062 -13.55816173553467 -848.4647827148438 -12.32962226867676 -848.4217529296875 -11.00302219390869 C -848.3853759765625 -9.87865161895752 -847.9132080078125 -8.813032150268555 -847.0923461914062 -8.002462387084961 C -846.2645263671875 -7.185031890869141 -845.1564331054688 -6.699021816253662 -843.9720458984375 -6.63397216796875 C -843.8951416015625 -6.629752159118652 -843.8170166015625 -6.627602100372314 -843.7399291992188 -6.627602100372314 C -841.531494140625 -6.627602100372314 -839.555419921875 -8.341821670532227 -839.2411499023438 -10.53017234802246 C -839.0858764648438 -11.61140155792236 -839.27197265625 -12.60634231567383 -839.8099365234375 -13.57184219360352 C -840.1381225585938 -14.16080188751221 -840.1021118164062 -14.63276195526123 -840.0140991210938 -14.92496204376221 C -839.9058837890625 -15.28438186645508 -839.6536254882812 -15.58193206787109 -839.3038940429688 -15.76282215118408 C -839.0883178710938 -15.87425231933594 -838.86279296875 -15.93073177337646 -838.6333618164062 -15.93073177337646 C -838.0733642578125 -15.93073177337646 -837.5676879882812 -15.59239196777344 -837.2459716796875 -15.00245189666748 C -835.876220703125 -12.49048233032227 -835.8746337890625 -9.968221664428711 -837.2412109375 -7.505702018737793 C -838.5464477539062 -5.153962135314941 -841.05419921875 -3.687252044677734 -843.785888671875 -3.677891969680786 L -843.8115844726562 -3.677851915359497 Z" stroke="none"/>
                <path d="M -843.8115844726562 -4.427852153778076 C -843.8040161132812 -4.427852153778076 -843.7960205078125 -4.427865982055664 -843.7884521484375 -4.427892208099365 C -841.352294921875 -4.436232089996338 -839.08154296875 -5.735342025756836 -837.89697265625 -7.869621753692627 C -836.6502685546875 -10.11620235443115 -836.6749267578125 -12.38857173919678 -837.9044189453125 -14.64337158203125 C -838.1741943359375 -15.13785457611084 -838.5725708007812 -15.2965612411499 -838.9593505859375 -15.09664154052734 C -839.3603515625 -14.88925170898438 -839.439697265625 -14.44817161560059 -839.15478515625 -13.93690204620361 C -838.5426025390625 -12.83825206756592 -838.3187255859375 -11.67749214172363 -838.498779296875 -10.42356204986572 C -838.8794555664062 -7.772357940673828 -841.3348999023438 -5.738027572631836 -844.01318359375 -5.885101795196533 C -846.8402099609375 -6.040381908416748 -849.0831298828125 -8.255131721496582 -849.17138671875 -10.97872161865234 C -849.3031005859375 -15.04148387908936 -845.36962890625 -17.72097778320312 -841.5927734375 -16.14177131652832 C -841.075927734375 -15.92565822601318 -840.6727294921875 -16.03192710876465 -840.4876708984375 -16.43308258056641 C -840.2991943359375 -16.84156227111816 -840.483642578125 -17.21321105957031 -840.9984130859375 -17.45422172546387 C -842.19287109375 -18.01348686218262 -843.4557495117188 -18.17570686340332 -844.7467041015625 -17.99591255187988 C -848.3291015625 -17.49695205688477 -850.863525390625 -14.3192024230957 -850.6051025390625 -10.69331169128418 C -850.3567504882812 -7.209370613098145 -847.3382568359375 -4.427852153778076 -843.8115844726562 -4.427852153778076 M -843.8115844726562 -2.927851915359497 C -845.8953857421875 -2.927851915359497 -847.8994140625 -3.717491865158081 -849.4544677734375 -5.151321887969971 C -851.0139770507812 -6.589181900024414 -851.9539184570312 -8.519481658935547 -852.101318359375 -10.58664226531982 C -852.2533569335938 -12.72001171112061 -851.6090087890625 -14.80403232574463 -850.2870483398438 -16.45483207702637 C -848.9595336914062 -18.11252212524414 -847.0654296875 -19.18743133544922 -844.95361328125 -19.48157119750977 C -844.55224609375 -19.5374813079834 -844.1492309570312 -19.56583213806152 -843.7557373046875 -19.56583213806152 C -842.5714111328125 -19.56583213806152 -841.4296875 -19.31244277954102 -840.3623657226562 -18.81269264221191 C -839.6527099609375 -18.4804515838623 -839.304443359375 -18.01136207580566 -839.13720703125 -17.67635154724121 C -838.9766845703125 -17.3547191619873 -838.9027709960938 -17.00998306274414 -838.9157104492188 -16.66218376159668 C -838.8223876953125 -16.67453384399414 -838.7282104492188 -16.68073272705078 -838.6333618164062 -16.68073272705078 C -837.7904052734375 -16.68073272705078 -837.0447387695312 -16.19991111755371 -836.5875244140625 -15.36155223846436 C -835.852294921875 -14.01314163208008 -835.4769897460938 -12.63278198242188 -835.4721069335938 -11.2587423324585 C -835.4672241210938 -9.866981506347656 -835.8417358398438 -8.481831550598145 -836.5853881835938 -7.141781806945801 C -838.0223388671875 -4.552812099456787 -840.7803955078125 -2.93818187713623 -843.7833251953125 -2.927901983261108 L -843.8115844726562 -2.927851915359497 Z M -843.8302001953125 -15.10128211975098 C -844.88671875 -15.10128211975098 -845.86767578125 -14.68910217285156 -846.5922241210938 -13.9406623840332 C -847.3250122070312 -13.18373203277588 -847.7085571289062 -12.14909172058105 -847.6721801757812 -11.0273323059082 C -847.6419677734375 -10.09582233428955 -847.2489013671875 -9.211101531982422 -846.5653686523438 -8.53612232208252 C -845.867919921875 -7.847422122955322 -844.9323120117188 -7.437851905822754 -843.930908203125 -7.382842063903809 C -843.8676147460938 -7.379362106323242 -843.8033447265625 -7.377602100372314 -843.7399291992188 -7.377602100372314 C -842.8560180664062 -7.377602100372314 -841.9807739257812 -7.713851928710938 -841.275390625 -8.324421882629395 C -840.568603515625 -8.93624210357666 -840.1098022460938 -9.757452011108398 -839.9835205078125 -10.63679218292236 C -839.8524780273438 -11.54941177368164 -840.010009765625 -12.39007186889648 -840.465087890625 -13.20678234100342 C -840.7092895507812 -13.64502429962158 -840.83056640625 -14.10625839233398 -840.8232421875 -14.54942035675049 C -840.9166259765625 -14.53792572021484 -841.0120239257812 -14.53206539154053 -841.1089477539062 -14.53206157684326 C -841.4556274414062 -14.53204154968262 -841.8131103515625 -14.6080322265625 -842.1715087890625 -14.75792217254639 C -842.7163696289062 -14.98574161529541 -843.2744750976562 -15.10128211975098 -843.8302001953125 -15.10128211975098 Z" stroke="none" fill="#fff"/>
            </g>
            <g id="Path_6055" data-name="Path 6055" transform="translate(-0.003 -62.853)" fill="#5fbabf">
                <path d="M -887.3751831054688 -121.1698455810547 C -887.4346313476562 -121.1698455810547 -887.4957275390625 -121.1731414794922 -887.5567626953125 -121.1796569824219 C -888.2574462890625 -121.2544937133789 -888.7511596679688 -121.7398834228516 -888.8453369140625 -122.446418762207 C -888.8657836914062 -122.5992736816406 -888.8643798828125 -122.741943359375 -888.86328125 -122.856575012207 C -888.863037109375 -122.8807830810547 -888.86279296875 -122.9049758911133 -888.86279296875 -122.9291076660156 C -888.8629150390625 -123.554557800293 -888.8632202148438 -124.1801528930664 -888.863525390625 -124.8057556152344 C -888.8643798828125 -126.5671615600586 -888.8652954101562 -128.3885345458984 -888.8619384765625 -130.1803741455078 C -888.8597412109375 -131.3793182373047 -888.4716796875 -132.4006805419922 -887.7396240234375 -133.1339874267578 C -887.0055541992188 -133.8693084716797 -885.9814453125 -134.2586517333984 -884.7781372070312 -134.2599487304688 C -882.1712036132812 -134.2629089355469 -879.3275756835938 -134.2643585205078 -876.0848999023438 -134.2643585205078 C -873.0896606445312 -134.2643585205078 -870.0945434570312 -134.2631683349609 -867.099365234375 -134.2619781494141 L -864.1317138671875 -134.2608489990234 C -863.9462280273438 -134.2608489990234 -863.7008056640625 -134.2514953613281 -863.4492797851562 -134.1785736083984 C -862.760009765625 -133.9788970947266 -862.3499145507812 -133.3902435302734 -862.404541015625 -132.6789398193359 C -862.4595336914062 -131.9649505615234 -862.9495239257812 -131.4424133300781 -863.65283203125 -131.3475799560547 C -863.8172607421875 -131.3254089355469 -863.9710083007812 -131.3223571777344 -864.1126708984375 -131.3223571777344 L -864.2001342773438 -131.3226318359375 L -864.280029296875 -131.3228912353516 C -866.9583740234375 -131.3221893310547 -869.6373291015625 -131.3220977783203 -872.3157958984375 -131.3220977783203 L -873.38720703125 -131.3221130371094 L -874.4586181640625 -131.3221130371094 C -875.257568359375 -131.3221130371094 -876.0565795898438 -131.3227233886719 -876.8556518554688 -131.3233184814453 C -877.654296875 -131.3239288330078 -878.4529418945312 -131.3245391845703 -879.2515258789062 -131.3245391845703 C -880.7392578125 -131.3245391845703 -882.70068359375 -131.3226776123047 -884.6798095703125 -131.3081512451172 C -884.9950561523438 -131.3058776855469 -885.3369140625 -131.2202911376953 -885.5943603515625 -131.0792083740234 C -885.6942138671875 -131.0244903564453 -885.9280395507812 -130.8963470458984 -885.9256591796875 -130.2654418945312 C -885.9178466796875 -128.1383056640625 -885.9204711914062 -125.9765625 -885.9229736328125 -123.885986328125 L -885.924072265625 -122.9638366699219 L -885.924072265625 -122.9424514770508 C -885.9242553710938 -122.7435760498047 -885.9244995117188 -122.4960556030273 -885.9981079101562 -122.2373733520508 C -886.18505859375 -121.5790252685547 -886.7127685546875 -121.1698455810547 -887.3751831054688 -121.1698455810547 Z" stroke="none"/>
                <path d="M -876.0848999023438 -133.5143432617188 C -878.9822998046875 -133.5143432617188 -881.8799438476562 -133.5132446289062 -884.77734375 -133.5099487304688 C -886.81884765625 -133.5077667236328 -888.1082763671875 -132.2068634033203 -888.1119384765625 -130.1789855957031 C -888.116455078125 -127.7623443603516 -888.11328125 -125.3457336425781 -888.11279296875 -122.9291076660156 C -888.11279296875 -122.8011627197266 -888.1187744140625 -122.6716766357422 -888.1019287109375 -122.5455169677734 C -888.053466796875 -122.1819610595703 -887.83642578125 -121.9637908935547 -887.4771728515625 -121.9254302978516 C -887.0916137695312 -121.8843231201172 -886.8248901367188 -122.0712280273438 -886.719482421875 -122.4425964355469 C -886.6724853515625 -122.6077728271484 -886.67431640625 -122.7901306152344 -886.674072265625 -122.9646606445312 C -886.67138671875 -125.3973083496094 -886.666748046875 -127.8299713134766 -886.6756591796875 -130.2626342773438 C -886.677978515625 -130.8846588134766 -886.497802734375 -131.4393157958984 -885.954833984375 -131.7369079589844 C -885.582275390625 -131.9410858154297 -885.1126708984375 -132.0550537109375 -884.685302734375 -132.0581359863281 C -881.2765502929688 -132.0831451416016 -877.8676147460938 -132.0721130371094 -874.4586181640625 -132.0721130371094 C -871.06591796875 -132.0721435546875 -867.6729736328125 -132.0719909667969 -864.280029296875 -132.0729064941406 C -864.1041870117188 -132.0728912353516 -863.9263916015625 -132.0674896240234 -863.7530517578125 -132.0908508300781 C -863.3828125 -132.1407775878906 -863.17919921875 -132.3875579833984 -863.15234375 -132.7363739013672 C -863.125244140625 -133.0892639160156 -863.3045654296875 -133.3558044433594 -863.6580810546875 -133.4582366943359 C -863.80859375 -133.5018615722656 -863.9735107421875 -133.5108337402344 -864.1319580078125 -133.5108337402344 C -868.1163330078125 -133.5122528076172 -872.1004638671875 -133.5143432617188 -876.0848999023438 -133.5143432617188 M -876.0848999023438 -135.0143585205078 C -873.0857543945312 -135.0143585205078 -870.0867309570312 -135.0131683349609 -867.087646484375 -135.0119781494141 L -864.1314086914062 -135.0108337402344 C -863.9149780273438 -135.0108337402344 -863.5865478515625 -134.9992370605469 -863.240478515625 -134.89892578125 C -862.2115478515625 -134.600830078125 -861.5750122070312 -133.6855926513672 -861.65673828125 -132.6215209960938 C -861.7387084960938 -131.5567016601562 -862.5006103515625 -130.7461547851562 -863.5526123046875 -130.6043090820312 C -863.7615356445312 -130.5761566162109 -863.9529418945312 -130.5723571777344 -864.1126708984375 -130.5723571777344 L -864.280029296875 -130.5729064941406 C -866.958251953125 -130.5721740722656 -869.6372680664062 -130.5721130371094 -872.3157958984375 -130.5721130371094 L -874.4586181640625 -130.5721130371094 C -876.0562133789062 -130.5721130371094 -877.6541748046875 -130.5745391845703 -879.2515258789062 -130.5745239257812 C -880.7381591796875 -130.5745239257812 -882.697998046875 -130.5726776123047 -884.67431640625 -130.5581665039062 C -884.8340454101562 -130.5570220947266 -885.020263671875 -130.5172424316406 -885.1626586914062 -130.4560394287109 C -885.1693725585938 -130.4169921875 -885.176025390625 -130.3561401367188 -885.1756591796875 -130.2682189941406 C -885.1678466796875 -128.1392364501953 -885.1704711914062 -125.9765625 -885.1729736328125 -123.8850860595703 L -885.174072265625 -122.9417572021484 C -885.17431640625 -122.7224731445312 -885.1746215820312 -122.3910980224609 -885.2767333984375 -122.0321655273438 C -885.5548095703125 -121.052978515625 -886.3785400390625 -120.4198608398438 -887.3751831054688 -120.4198608398438 C -887.4612426757812 -120.4198608398438 -887.5491943359375 -120.4245910644531 -887.6365356445312 -120.4339294433594 C -888.682373046875 -120.5455932617188 -889.44873046875 -121.2966613769531 -889.5888061523438 -122.3473205566406 C -889.6162719726562 -122.5529937744141 -889.614501953125 -122.7326507568359 -889.6132202148438 -122.8638153076172 C -889.613037109375 -122.8856048583984 -889.61279296875 -122.9073791503906 -889.61279296875 -122.9291076660156 C -889.6129150390625 -123.5543365478516 -889.6132202148438 -124.1798553466797 -889.613525390625 -124.8053894042969 C -889.6143798828125 -126.5672302246094 -889.6152954101562 -128.3890533447266 -889.6119384765625 -130.1817932128906 C -889.6094360351562 -131.5831451416016 -889.1455078125 -132.7872619628906 -888.2703857421875 -133.6638641357422 C -887.3927612304688 -134.54296875 -886.1854248046875 -135.0084533691406 -884.7789306640625 -135.0099487304688 C -882.1730346679688 -135.0129089355469 -879.3291625976562 -135.0143585205078 -876.0848999023438 -135.0143585205078 Z" stroke="none" fill="#fff"/>
            </g>
            <g id="Path_6056" data-name="Path 6056" transform="translate(-32.632 -92.645)" fill="#5fbabf">
                <path d="M -845.4633178710938 -97.14084625244141 C -846.6438598632812 -97.14084625244141 -848.197509765625 -97.14263916015625 -849.7457275390625 -97.1566162109375 C -850.156005859375 -97.16031646728516 -850.7275390625 -97.33537292480469 -851.0796508789062 -97.71811676025391 C -851.4132080078125 -98.08072662353516 -851.517333984375 -98.58113861083984 -851.358154296875 -99.05672454833984 C -851.1851196289062 -99.57386016845703 -850.74072265625 -99.95687866210938 -850.1983642578125 -100.0563201904297 C -850.056640625 -100.0821838378906 -849.9288940429688 -100.0854873657227 -849.8334350585938 -100.0854873657227 C -849.7954711914062 -100.0854873657227 -849.7573852539062 -100.0848541259766 -849.7193603515625 -100.0841903686523 C -849.6903076171875 -100.0836639404297 -849.6612548828125 -100.0831146240234 -849.6323852539062 -100.0831146240234 C -846.2952880859375 -100.0834579467773 -842.9572143554688 -100.0835800170898 -839.6200561523438 -100.0835800170898 L -834.4249877929688 -100.08349609375 C -834.4047241210938 -100.08349609375 -834.3843994140625 -100.0836944580078 -834.3640747070312 -100.0838775634766 C -834.3391723632812 -100.0841064453125 -834.3143310546875 -100.0843200683594 -834.2894897460938 -100.0843200683594 C -834.2359008789062 -100.0843200683594 -834.1908569335938 -100.0833129882812 -834.147705078125 -100.081169128418 C -833.2683715820312 -100.0366134643555 -832.6361083984375 -99.41325378417969 -832.643798828125 -98.59893035888672 C -832.6517333984375 -97.77525329589844 -833.317138671875 -97.15057373046875 -834.1915283203125 -97.14568328857422 C -834.729248046875 -97.14267730712891 -835.3179321289062 -97.14126586914062 -836.0440673828125 -97.14126586914062 C -836.4239501953125 -97.14126586914062 -836.8038330078125 -97.14162445068359 -837.1836547851562 -97.14199829101562 C -837.5629272460938 -97.14235687255859 -837.9421997070312 -97.14271545410156 -838.321533203125 -97.14271545410156 L -839.5528564453125 -97.14266967773438 L -840.7841186523438 -97.14268493652344 L -842.0154418945312 -97.14271545410156 C -842.5899047851562 -97.14271545410156 -843.1644287109375 -97.14225006103516 -843.739013671875 -97.14178466796875 C -844.3137817382812 -97.14131927490234 -844.8886108398438 -97.14084625244141 -845.4633178710938 -97.14084625244141 Z" stroke="none"/>
                <path d="M -845.4633178710938 -97.89084625244141 C -843.4932250976562 -97.89084625244141 -841.5228271484375 -97.89266204833984 -839.5528564453125 -97.89266204833984 C -838.3831176757812 -97.89265441894531 -837.2136840820312 -97.89126586914062 -836.0440673828125 -97.89126586914062 C -835.4280395507812 -97.89126586914062 -834.811767578125 -97.89221954345703 -834.1957397460938 -97.89567565917969 C -833.716552734375 -97.89835357666016 -833.397705078125 -98.19596862792969 -833.3937377929688 -98.60598754882812 C -833.389892578125 -99.01472473144531 -833.7088012695312 -99.30796813964844 -834.1851196289062 -99.33209991455078 C -834.2648315429688 -99.33607482910156 -834.344970703125 -99.33349609375 -834.4249877929688 -99.33349609375 C -839.494140625 -99.33362579345703 -844.5631713867188 -99.33363342285156 -849.6323852539062 -99.33311462402344 C -849.7760620117188 -99.33310699462891 -849.9232177734375 -99.34414672851562 -850.0631103515625 -99.31861877441406 C -850.5901489257812 -99.22198486328125 -850.876708984375 -98.6053466796875 -850.5276489257812 -98.22587585449219 C -850.3518676757812 -98.0347900390625 -850.0081787109375 -97.90901947021484 -849.7389526367188 -97.90658569335938 C -848.3136596679688 -97.89372253417969 -846.888671875 -97.89084625244141 -845.4633178710938 -97.89084625244141 M -845.4633178710938 -96.39084625244141 C -846.6455688476562 -96.39084625244141 -848.2014770507812 -96.39264678955078 -849.7525024414062 -96.40664672851562 C -850.30810546875 -96.41166687011719 -851.0935668945312 -96.62543487548828 -851.631591796875 -97.21036529541016 C -852.15283203125 -97.77701568603516 -852.3165283203125 -98.55620574951172 -852.0693969726562 -99.29470825195312 C -851.8097534179688 -100.0708236694336 -851.1445922851562 -100.6453399658203 -850.3336181640625 -100.7940292358398 C -850.1299438476562 -100.8312072753906 -849.9506225585938 -100.8354873657227 -849.8334350585938 -100.8354873657227 C -849.766357421875 -100.8354873657227 -849.6990356445312 -100.8331146240234 -849.6323852539062 -100.8331146240234 C -846.2953491210938 -100.8334579467773 -842.957275390625 -100.8335800170898 -839.6200561523438 -100.8335800170898 L -834.4249267578125 -100.83349609375 L -834.370849609375 -100.8338470458984 C -834.34375 -100.8340835571289 -834.3165893554688 -100.8343200683594 -834.2894897460938 -100.8343200683594 C -834.2232055664062 -100.8343200683594 -834.1663208007812 -100.8330154418945 -834.1104736328125 -100.8302383422852 C -832.8348388671875 -100.7656173706055 -831.8823852539062 -99.8033447265625 -831.893798828125 -98.59185791015625 C -831.9058227539062 -97.34693908691406 -832.891845703125 -96.40294647216797 -834.1873779296875 -96.39569854736328 C -834.7274169921875 -96.39267730712891 -835.3174438476562 -96.39126586914062 -836.0440673828125 -96.39126586914062 C -836.8033447265625 -96.39126586914062 -837.562255859375 -96.39271545410156 -838.321533203125 -96.39271545410156 L -839.5528564453125 -96.39266967773438 L -842.0154418945312 -96.39271545410156 C -843.16455078125 -96.39271545410156 -844.314208984375 -96.39084625244141 -845.4633178710938 -96.39084625244141 Z" stroke="none" fill="#fff"/>
            </g>
            <g id="Path_6057" data-name="Path 6057" transform="translate(-32.944 -116.342)" fill="#5fbabf">
                <path d="M -836.3541259765625 -69.95463562011719 C -836.7408447265625 -69.95463562011719 -837.1275634765625 -69.95485687255859 -837.5142211914062 -69.955078125 C -837.900634765625 -69.95529937744141 -838.2869873046875 -69.95551300048828 -838.6734008789062 -69.95551300048828 L -838.8898315429688 -69.95549774169922 L -839.7198486328125 -69.9554443359375 L -841.7235107421875 -69.95562744140625 L -843.3117065429688 -69.95545959472656 L -844.9000854492188 -69.95529937744141 C -846.2175903320312 -69.95529937744141 -847.7777709960938 -69.95574951171875 -849.3607788085938 -69.95909881591797 L -849.3681030273438 -69.9591064453125 C -849.3883056640625 -69.9591064453125 -849.4091186523438 -69.95892333984375 -849.4302978515625 -69.95874786376953 C -849.45654296875 -69.95852661132812 -849.4832153320312 -69.95830535888672 -849.5101318359375 -69.95830535888672 C -849.7092895507812 -69.95830535888672 -850.1235961914062 -69.95830535888672 -850.4456787109375 -70.23548889160156 C -850.5623168945312 -70.33570861816406 -851.143310546875 -70.871826171875 -851.0667724609375 -71.53879547119141 C -851.0090942382812 -72.04458618164062 -850.6165771484375 -72.43788909912109 -850.2974853515625 -72.67865753173828 C -850.034912109375 -72.87679290771484 -849.73486328125 -72.89971923828125 -849.5320434570312 -72.89971923828125 C -849.4817504882812 -72.89971923828125 -849.4306640625 -72.89815521240234 -849.3804321289062 -72.89649963378906 C -849.3484497070312 -72.89542388916016 -849.3169555664062 -72.89423370361328 -849.2869873046875 -72.89423370361328 C -845.8936767578125 -72.89604949951172 -842.5001220703125 -72.89640808105469 -839.107421875 -72.89640808105469 L -835.7259521484375 -72.89632415771484 L -834.1583862304688 -72.89627838134766 C -834.13623046875 -72.89627838134766 -834.1140747070312 -72.89650726318359 -834.0918579101562 -72.896728515625 C -834.064697265625 -72.89700317382812 -834.0374755859375 -72.89725494384766 -834.0103149414062 -72.89725494384766 C -833.9634399414062 -72.89725494384766 -833.8922729492188 -72.8966064453125 -833.815185546875 -72.89090728759766 C -832.94140625 -72.82630920410156 -832.318603515625 -72.19622802734375 -832.3341064453125 -71.39271545410156 C -832.3499145507812 -70.56710815429688 -833.0049438476562 -69.96439361572266 -833.8916625976562 -69.95974731445312 C -834.7960815429688 -69.95521545410156 -835.6826782226562 -69.95463562011719 -836.3541259765625 -69.95463562011719 Z" stroke="none"/>
                <path d="M -836.3541259765625 -70.70463562011719 C -835.5346069335938 -70.70463562011719 -834.7150268554688 -70.70562744140625 -833.8955688476562 -70.70973968505859 C -833.4052124023438 -70.71230316162109 -833.091796875 -70.99937438964844 -833.083984375 -71.40721893310547 C -833.076171875 -71.81107330322266 -833.391357421875 -72.10752868652344 -833.8704223632812 -72.1429443359375 C -833.9661254882812 -72.15000915527344 -834.0624389648438 -72.14628601074219 -834.1583862304688 -72.14627838134766 C -839.2009887695312 -72.14642333984375 -844.243408203125 -72.14693450927734 -849.285888671875 -72.14423370361328 C -849.2862548828125 -72.14423370361328 -849.28662109375 -72.14423370361328 -849.2869873046875 -72.14423370361328 C -849.4771728515625 -72.14423370361328 -849.7164916992188 -72.17751312255859 -849.8457641601562 -72.07993316650391 C -850.053466796875 -71.92323303222656 -850.2955932617188 -71.68197631835938 -850.3216552734375 -71.45329284667969 C -850.3452758789062 -71.24744415283203 -850.1401977539062 -70.96178436279297 -849.9564208984375 -70.80393981933594 C -849.8276977539062 -70.69313812255859 -849.5703125 -70.7091064453125 -849.3681640625 -70.7091064453125 C -849.3651733398438 -70.7091064453125 -849.3621826171875 -70.7091064453125 -849.3591918945312 -70.70909881591797 C -846.8139038085938 -70.70371246337891 -844.2686767578125 -70.70563507080078 -841.723388671875 -70.70562744140625 C -840.7789306640625 -70.70549774169922 -839.8343505859375 -70.70536041259766 -838.8900146484375 -70.70549774169922 C -838.0442504882812 -70.70566558837891 -837.1993408203125 -70.70462799072266 -836.3541259765625 -70.70463562011719 M -836.3541259765625 -69.20463562011719 C -837.1272583007812 -69.20463562011719 -837.9002685546875 -69.20551300048828 -838.6734008789062 -69.20551300048828 L -839.7198486328125 -69.2054443359375 L -841.7232666015625 -69.20562744140625 L -844.9000854492188 -69.20529937744141 C -846.2191772460938 -69.20529937744141 -847.7808837890625 -69.20574951171875 -849.3623657226562 -69.20909881591797 L -849.3681030273438 -69.2091064453125 L -849.4239501953125 -69.20876312255859 C -849.4522705078125 -69.20853424072266 -849.4810791015625 -69.20830535888672 -849.5101318359375 -69.20830535888672 C -849.7540283203125 -69.20830535888672 -850.4019775390625 -69.20830535888672 -850.9349365234375 -69.66705322265625 C -851.1693115234375 -69.86834716796875 -851.9285888671875 -70.60734558105469 -851.8118896484375 -71.62428283691406 C -851.7241821289062 -72.39389801025391 -851.185546875 -72.94814300537109 -850.7491455078125 -73.27737426757812 C -850.2557983398438 -73.64971923828125 -849.7110595703125 -73.64971923828125 -849.5320434570312 -73.64971923828125 C -849.4735107421875 -73.64971923828125 -849.4140014648438 -73.64801788330078 -849.3555297851562 -73.64607238769531 C -849.3320922851562 -73.64529418945312 -849.3089599609375 -73.64423370361328 -849.2869873046875 -73.64423370361328 C -845.8939208984375 -73.64604949951172 -842.500244140625 -73.64640808105469 -839.107421875 -73.64640808105469 L -834.1583251953125 -73.64627838134766 C -834.1093139648438 -73.64627838134766 -834.0595703125 -73.64725494384766 -834.0103149414062 -73.64725494384766 C -833.9515991210938 -73.64725494384766 -833.86181640625 -73.64638519287109 -833.760009765625 -73.63887786865234 C -832.4757080078125 -73.54392242431641 -831.560791015625 -72.59318542480469 -831.5842895507812 -71.37821960449219 C -831.6077880859375 -70.14887237548828 -832.5980834960938 -69.21651458740234 -833.8876953125 -69.20975494384766 C -834.7926025390625 -69.20521545410156 -835.68115234375 -69.20463562011719 -836.3541259765625 -69.20463562011719 Z" stroke="none" fill="#fff"/>
            </g>
            <g id="Path_6058" data-name="Path 6058" transform="translate(-66.772 -140.205)" fill="#5fbabf">
                <path d="M -809.8861694335938 -42.58073425292969 C -810.1712646484375 -42.58073425292969 -810.4058837890625 -42.58185577392578 -810.6245727539062 -42.58425521850586 C -811.5821533203125 -42.59483337402344 -812.2568359375 -43.1966552734375 -812.2651977539062 -44.04776382446289 C -812.2692260742188 -44.4354133605957 -812.128173828125 -44.7940559387207 -811.8681030273438 -45.05731582641602 C -811.6593017578125 -45.26865386962891 -811.274658203125 -45.52084350585938 -810.6281127929688 -45.52203369140625 C -809.8914794921875 -45.52338409423828 -809.1547241210938 -45.5238037109375 -808.4180908203125 -45.5238037109375 C -807.8311767578125 -45.5238037109375 -807.2443237304688 -45.52354431152344 -806.6574096679688 -45.52327346801758 L -805.3922729492188 -45.52280426025391 L -805.1559448242188 -45.52277374267578 C -804.7208251953125 -45.52277374267578 -804.28564453125 -45.52302551269531 -803.8505249023438 -45.52326583862305 C -803.4151000976562 -45.52350616455078 -802.9796142578125 -45.52374267578125 -802.544189453125 -45.52374267578125 C -801.54541015625 -45.52374267578125 -800.7789916992188 -45.52242279052734 -800.0590209960938 -45.51945495605469 C -799.1777954101562 -45.51593399047852 -798.5098266601562 -44.89121627807617 -798.5054931640625 -44.06631469726562 C -798.5013427734375 -43.25956344604492 -799.1333618164062 -42.63715362548828 -800.0082397460938 -42.58624267578125 C -800.07080078125 -42.58259582519531 -800.1366577148438 -42.58089447021484 -800.2154541015625 -42.58089447021484 C -800.2550048828125 -42.58089447021484 -800.2945556640625 -42.58131408691406 -800.3341064453125 -42.58176422119141 C -800.3680419921875 -42.58213424682617 -800.4019775390625 -42.58253479003906 -800.4358520507812 -42.58253479003906 L -808.7914428710938 -42.58253479003906 C -808.9732666015625 -42.58253479003906 -809.1551513671875 -42.58208465576172 -809.3369750976562 -42.58163452148438 C -809.52001953125 -42.58118438720703 -809.703125 -42.58073425292969 -809.8861694335938 -42.58073425292969 Z" stroke="none"/>
                <path d="M -808.4180908203125 -44.7738037109375 C -809.154296875 -44.7738037109375 -809.8905639648438 -44.77338790893555 -810.626708984375 -44.77203369140625 C -811.1848754882812 -44.77100372314453 -811.519775390625 -44.49419403076172 -811.5152587890625 -44.05517578125 C -811.5109252929688 -43.61704635620117 -811.1734619140625 -43.34036636352539 -810.6163330078125 -43.33420562744141 C -810.0079956054688 -43.32752990722656 -809.3997802734375 -43.33253479003906 -808.7914428710938 -43.33253479003906 C -806.0062866210938 -43.33253479003906 -803.2210693359375 -43.33253479003906 -800.4358520507812 -43.33253479003906 C -800.3079833984375 -43.33253479003906 -800.1795043945312 -43.32752990722656 -800.0518188476562 -43.33497619628906 C -799.5732421875 -43.36282348632812 -799.25341796875 -43.6572151184082 -799.2554931640625 -44.06235504150391 C -799.2576293945312 -44.46609497070312 -799.5816040039062 -44.76754379272461 -800.0621337890625 -44.76946640014648 C -801.7601928710938 -44.77645874023438 -803.4580078125 -44.77277755737305 -805.1559448242188 -44.77277755737305 C -806.2434692382812 -44.77275466918945 -807.330810546875 -44.7738037109375 -808.4180908203125 -44.7738037109375 M -808.4180908203125 -46.2738037109375 C -807.830810546875 -46.2738037109375 -807.2435913085938 -46.27354431152344 -806.6563110351562 -46.27327346801758 L -805.1559448242188 -46.27277374267578 C -804.2853393554688 -46.27277374267578 -803.414794921875 -46.27374267578125 -802.544189453125 -46.27374267578125 C -801.5437622070312 -46.27374267578125 -800.7763671875 -46.27242279052734 -800.0559692382812 -46.26945495605469 C -799.45947265625 -46.26706314086914 -798.9000244140625 -46.05984497070312 -798.4808959960938 -45.68595504760742 C -798.023193359375 -45.27763366699219 -797.7587890625 -44.68874359130859 -797.7554931640625 -44.07026290893555 C -797.7493286132812 -42.87094497680664 -798.6990966796875 -41.91115570068359 -799.9646606445312 -41.83750534057617 C -800.0421142578125 -41.8329963684082 -800.121826171875 -41.83089447021484 -800.2154541015625 -41.83089447021484 C -800.2890014648438 -41.83089447021484 -800.362548828125 -41.83253479003906 -800.4358520507812 -41.83253479003906 L -808.7914428710938 -41.83253479003906 C -809.15625 -41.83253479003906 -809.521240234375 -41.83073425292969 -809.8861694335938 -41.83073425292969 C -810.174072265625 -41.83073425292969 -810.4113159179688 -41.83186340332031 -810.6328125 -41.83429336547852 C -812.0007934570312 -41.84942626953125 -813.002685546875 -42.77720642089844 -813.0151977539062 -44.04035568237305 C -813.021240234375 -44.62921524047852 -812.8033447265625 -45.17779541015625 -812.401611328125 -45.58441543579102 C -811.96484375 -46.02652359008789 -811.3355102539062 -46.27072525024414 -810.6294555664062 -46.27203369140625 C -809.8923950195312 -46.27338409423828 -809.1552124023438 -46.2738037109375 -808.4180908203125 -46.2738037109375 Z" stroke="none" fill="#fff"/>
            </g>
            <g id="Path_6059" data-name="Path 6059" transform="translate(-57.583 -219.921)" fill="#5fbabf">
                <path d="M -819.2630004882812 49.93145370483398 L -819.2876586914062 49.93141174316406 L -819.29248046875 49.93139266967773 L -819.2973022460938 49.93131256103516 C -820.304931640625 49.91519165039062 -821.4235229492188 49.38538360595703 -822.2894897460938 48.51407241821289 C -822.5999145507812 48.20180130004883 -822.7776489257812 47.83927154541016 -822.8035278320312 47.46571350097656 C -822.831787109375 47.05827331542969 -822.6769409179688 46.66460037231445 -822.3674926757812 46.35720062255859 C -822.0851440429688 46.07666015625 -821.7386474609375 45.92835235595703 -821.3654174804688 45.92835235595703 C -820.9871826171875 45.92835235595703 -820.611083984375 46.08468246459961 -820.2776489257812 46.38044357299805 C -819.8076171875 46.79726028442383 -819.3447265625 47.00863265991211 -818.90185546875 47.00863265991211 C -818.4635009765625 47.00863265991211 -818.0072021484375 46.80105209350586 -817.5457763671875 46.39166259765625 C -817.204345703125 46.08877182006836 -816.8219604492188 45.92868041992188 -816.4398193359375 45.92868041992188 C -816.0493774414062 45.92868041992188 -815.6790161132812 46.09815216064453 -815.39697265625 46.40589141845703 C -814.846435546875 47.00687026977539 -814.885498046875 47.84596252441406 -815.4940185546875 48.49401092529297 C -816.376953125 49.43438339233398 -817.6802368164062 49.93145370483398 -819.2630004882812 49.93145370483398 Z" stroke="none"/>
                <path d="M -819.2630004882812 49.18144607543945 C -817.8170166015625 49.18144607543945 -816.747314453125 48.73313522338867 -816.040771484375 47.98062133789062 C -815.6986694335938 47.61628341674805 -815.665283203125 47.22333145141602 -815.9498901367188 46.91264343261719 C -816.2481079101562 46.58726501464844 -816.6527099609375 46.60187911987305 -817.0480346679688 46.95268249511719 C -818.2635498046875 48.03109359741211 -819.5511474609375 48.02716064453125 -820.7753295898438 46.94151306152344 C -821.1491088867188 46.60995101928711 -821.5383911132812 46.59073257446289 -821.8389282226562 46.8892822265625 C -822.152587890625 47.20087051391602 -822.1295166015625 47.61115264892578 -821.757568359375 47.9853630065918 C -820.9776000976562 48.77011108398438 -820.0308837890625 49.16948318481445 -819.2852783203125 49.18141174316406 C -819.27783203125 49.18143463134766 -819.2704467773438 49.18144607543945 -819.2630004882812 49.18144607543945 M -819.2630004882812 50.68145370483398 L -819.3092651367188 50.68122100830078 C -820.5078735351562 50.66204071044922 -821.82080078125 50.04954147338867 -822.8214721679688 49.04278182983398 C -823.2606811523438 48.60089111328125 -823.5132446289062 48.07348251342773 -823.5517578125 47.51758193969727 C -823.5952758789062 46.88947296142578 -823.3624267578125 46.28841018676758 -822.8960571289062 45.82511138916016 C -822.4763793945312 45.4080924987793 -821.9327392578125 45.17835235595703 -821.3654174804688 45.17835235595703 C -820.8009643554688 45.17835235595703 -820.252685546875 45.4000129699707 -819.7799072265625 45.81937026977539 C -819.5540161132812 46.01971054077148 -819.21826171875 46.25863265991211 -818.90185546875 46.25863265991211 C -818.5911254882812 46.25863265991211 -818.2636108398438 46.02588272094727 -818.0435180664062 45.83063125610352 C -817.4361572265625 45.29179382324219 -816.836181640625 45.17868041992188 -816.4398193359375 45.17868041992188 C -815.8365478515625 45.17868041992188 -815.2698364257812 45.43455123901367 -814.8440551757812 45.89916229248047 C -814.025390625 46.79288101196289 -814.0679321289062 48.0709228515625 -814.947265625 49.00740051269531 C -815.664306640625 49.77108383178711 -816.9951171875 50.68145370483398 -819.2630004882812 50.68145370483398 Z" stroke="none" fill="#fff"/>
            </g>
            <g id="Path_6060" data-name="Path 6060" transform="translate(-171.256 -212.622)" fill="#5fbabf">
                <path d="M -686.0289306640625 41.56290054321289 C -686.2997436523438 41.56290817260742 -686.7162475585938 41.47805023193359 -687.1624755859375 41.07378768920898 C -687.5935668945312 40.68325805664062 -688.0429077148438 40.48523712158203 -688.4979858398438 40.48523712158203 C -688.9476928710938 40.48523712158203 -689.390625 40.6790771484375 -689.8143920898438 41.06136703491211 C -690.1826171875 41.39360046386719 -690.5707397460938 41.56208038330078 -690.9678955078125 41.56208038330078 C -691.3585205078125 41.56208038330078 -691.7158813476562 41.39818954467773 -692.0014038085938 41.08811950683594 C -692.451904296875 40.59897994995117 -692.6721801757812 39.73418045043945 -691.810546875 38.90680694580078 C -690.8818359375 38.01532745361328 -689.7560424804688 37.56053924560547 -688.4644165039062 37.55500793457031 L -688.4572143554688 37.55497741699219 L -688.4500122070312 37.55508041381836 C -687.1712646484375 37.57410049438477 -686.061279296875 38.03799057006836 -685.1508178710938 38.93387985229492 C -684.6929931640625 39.38443756103516 -684.5953369140625 39.82556915283203 -684.593994140625 40.11631011962891 C -684.59228515625 40.4922981262207 -684.7429809570312 40.843017578125 -685.0298461914062 41.13055801391602 C -685.311767578125 41.41334915161133 -685.6573486328125 41.56290054321289 -686.0289306640625 41.56290054321289 Z" stroke="none"/>
                <path d="M -688.461181640625 38.30500030517578 C -689.5702514648438 38.30974960327148 -690.5068359375 38.69499969482422 -691.2910766601562 39.44779968261719 C -691.708740234375 39.84882736206055 -691.758056640625 40.24524688720703 -691.44970703125 40.58007049560547 C -691.1425170898438 40.91358947753906 -690.7404174804688 40.88677597045898 -690.3167724609375 40.50447845458984 C -689.1744995117188 39.47407531738281 -687.8056030273438 39.47912979125977 -686.658935546875 40.51795959472656 C -686.2589111328125 40.88031768798828 -685.8687744140625 40.90978622436523 -685.560791015625 40.60086059570312 C -685.2381591796875 40.27745819091797 -685.2745971679688 39.86435699462891 -685.6768798828125 39.46846008300781 C -686.453369140625 38.70436859130859 -687.3905029296875 38.32091903686523 -688.461181640625 38.30500030517578 M -688.4532470703125 36.80494689941406 L -688.4389038085938 36.80516815185547 C -686.9814453125 36.82683944702148 -685.66259765625 37.37807846069336 -684.6248168945312 38.39929962158203 C -683.9830322265625 39.03084945678711 -683.8460083007812 39.67972946166992 -683.843994140625 40.11285781860352 C -683.8413696289062 40.68478012084961 -684.073974609375 41.23431777954102 -684.4988403320312 41.66025924682617 C -684.9183959960938 42.08102035522461 -685.4619140625 42.31290054321289 -686.0289306640625 42.31290054321289 C -686.4317016601562 42.31290054321289 -687.0426635742188 42.19435882568359 -687.666015625 41.62961959838867 C -687.8646240234375 41.44969940185547 -688.170166015625 41.23523712158203 -688.4979858398438 41.23523712158203 C -688.7564086914062 41.23523712158203 -689.0302734375 41.36410903930664 -689.31201171875 41.61825942993164 C -689.9475708007812 42.19168853759766 -690.5632934570312 42.31208038330078 -690.9678955078125 42.31208038330078 C -691.5650634765625 42.31208038330078 -692.1280517578125 42.05782699584961 -692.5531616210938 41.59614944458008 C -693.4210205078125 40.65373992919922 -693.3292846679688 39.32534790039062 -692.3299560546875 38.36581802368164 C -691.2576293945312 37.33647918701172 -689.9581909179688 36.81139755249023 -688.4675903320312 36.80500793457031 L -688.4532470703125 36.80494689941406 Z" stroke="none" fill="#fff"/>
            </g>
            <g id="Path_6061" data-name="Path 6061" transform="translate(-32.734 -140.171)" fill="#5fbabf">
                <path d="M -849.6397705078125 -42.61817932128906 C -849.7743530273438 -42.61817932128906 -849.8882446289062 -42.62432098388672 -849.9982299804688 -42.63750076293945 C -850.7997436523438 -42.73368072509766 -851.3522338867188 -43.37746810913086 -851.31201171875 -44.16830825805664 C -851.2725830078125 -44.94107055664062 -850.6611328125 -45.52243804931641 -849.8580322265625 -45.55080032348633 C -849.6234741210938 -45.55913925170898 -849.3827514648438 -45.56337738037109 -849.142578125 -45.56337738037109 C -848.9053344726562 -45.56337738037109 -848.6621704101562 -45.55923843383789 -848.4198608398438 -45.55109786987305 C -847.6397705078125 -45.52508926391602 -847.0859985351562 -45.00441741943359 -847.0092163085938 -44.2246208190918 C -846.9302368164062 -43.42171859741211 -847.4803466796875 -42.74074935913086 -848.2887573242188 -42.64056015014648 C -848.4109497070312 -42.62545013427734 -848.537841796875 -42.61843109130859 -848.6882934570312 -42.61843109130859 C -848.7835693359375 -42.61843109130859 -848.875 -42.62121963500977 -848.96337890625 -42.62392044067383 C -849.0060424804688 -42.62521743774414 -849.0474243164062 -42.62648391723633 -849.087646484375 -42.62738418579102 L -849.1927490234375 -42.62717056274414 C -849.2557983398438 -42.62717056274414 -849.3228149414062 -42.62514877319336 -849.3937377929688 -42.62302017211914 C -849.4725952148438 -42.62063980102539 -849.5541381835938 -42.61817932128906 -849.6397705078125 -42.61817932128906 Z" stroke="none"/>
                <path d="M -849.6397705078125 -43.36817932128906 C -849.4911499023438 -43.36817932128906 -849.3414306640625 -43.37717056274414 -849.1927490234375 -43.37717056274414 L -849.1927490234375 -43.37870788574219 C -848.9219360351562 -43.37870788574219 -848.647705078125 -43.35190200805664 -848.3809814453125 -43.38486862182617 C -847.9730224609375 -43.43542861938477 -847.71728515625 -43.76139831542969 -847.755615234375 -44.15113830566406 C -847.7958984375 -44.56039047241211 -848.037109375 -44.78791809082031 -848.445068359375 -44.80151748657227 C -848.9068603515625 -44.81704711914062 -849.369873046875 -44.81768798828125 -849.83154296875 -44.80126953125 C -850.253173828125 -44.78638076782227 -850.5439453125 -44.50366973876953 -850.56298828125 -44.13021850585938 C -850.58251953125 -43.74612045288086 -850.3228759765625 -43.43183898925781 -849.908935546875 -43.38216781616211 C -849.8199462890625 -43.37149810791016 -849.7300415039062 -43.36817932128906 -849.6397705078125 -43.36817932128906 M -849.6397705078125 -41.86817932128906 C -849.8026123046875 -41.86817932128906 -849.9490966796875 -41.87623977661133 -850.0874633789062 -41.89282989501953 C -851.2725219726562 -42.03503036499023 -852.1209106445312 -43.02962875366211 -852.06103515625 -44.20639038085938 C -852.0022583007812 -45.35849761962891 -851.0665893554688 -46.25859069824219 -849.8844604492188 -46.30033874511719 C -849.4013061523438 -46.31752014160156 -848.899658203125 -46.31764602661133 -848.3946533203125 -46.3006706237793 C -847.2338256835938 -46.26197052001953 -846.376953125 -45.45719909667969 -846.2628173828125 -44.29809951782227 C -846.1622924804688 -43.27573776245117 -846.7662963867188 -42.35747528076172 -847.6927490234375 -42.01769256591797 L -847.6927490234375 -41.87870788574219 L -848.3887939453125 -41.87799453735352 C -848.4833984375 -41.87158203125 -848.5825805664062 -41.86843109130859 -848.6882934570312 -41.86843109130859 C -848.7950439453125 -41.8684196472168 -848.896728515625 -41.87152862548828 -848.9863891601562 -41.874267578125 C -849.022705078125 -41.8753776550293 -849.05810546875 -41.87645721435547 -849.091796875 -41.87727355957031 L -849.1927490234375 -41.87717056274414 C -849.2445068359375 -41.87717056274414 -849.3060302734375 -41.87532043457031 -849.37109375 -41.87334823608398 C -849.4515991210938 -41.87092971801758 -849.5428466796875 -41.86817932128906 -849.6397705078125 -41.86817932128906 Z" stroke="none" fill="#fff"/>
            </g>
            <g id="Path_6062" data-name="Path 6062" transform="translate(-88.717 -195.048)" fill="#5fbabf">
                <path d="M -785.4760131835938 20.33345794677734 L -785.47705078125 20.33345794677734 L -785.48193359375 20.33344841003418 C -786.1128540039062 20.33167839050293 -786.4888305664062 20.08161735534668 -786.6931762695312 19.87215805053711 C -786.9608764648438 19.59769821166992 -787.0975341796875 19.23444747924805 -787.0884399414062 18.8216667175293 C -787.0695190429688 17.95381736755371 -786.4327392578125 17.39291763305664 -785.4661865234375 17.39291763305664 L -785.4339599609375 17.39310836791992 C -784.5189819335938 17.40389823913574 -783.8515625 18.01559829711914 -783.84716796875 18.84760665893555 C -783.8451538085938 19.23834800720215 -783.9906616210938 19.6009578704834 -784.2570190429688 19.86868667602539 C -784.55517578125 20.16839790344238 -784.9880981445312 20.33345794677734 -785.4760131835938 20.33345794677734 Z" stroke="none"/>
                <path d="M -785.4760131835938 19.58345222473145 C -784.9437255859375 19.58345222473145 -784.5948486328125 19.29311752319336 -784.59716796875 18.85157775878906 C -784.5994262695312 18.42692756652832 -784.9312133789062 18.14908790588379 -785.44287109375 18.14305686950684 C -785.45068359375 18.14296531677246 -785.4584350585938 18.14291763305664 -785.4661865234375 18.14291763305664 C -786.024169921875 18.14291763305664 -786.3287353515625 18.38533592224121 -786.338623046875 18.83822822570801 C -786.348876953125 19.30240821838379 -786.0269165039062 19.58191680908203 -785.4799194335938 19.58344841003418 C -785.4786376953125 19.58345031738281 -785.4773559570312 19.58345222473145 -785.4760131835938 19.58345222473145 M -785.4760131835938 21.08345794677734 L -785.4837646484375 21.08343696594238 C -785.9759521484375 21.08206748962402 -786.6781616210938 20.9616584777832 -787.2300415039062 20.39584732055664 C -787.6357421875 19.97994804382324 -787.8517456054688 19.41501808166504 -787.8382568359375 18.80511665344238 C -787.8104858398438 17.53221702575684 -786.8350830078125 16.64291763305664 -785.4661865234375 16.64291763305664 L -785.4256591796875 16.64315795898438 C -784.823974609375 16.65024757385254 -784.2847290039062 16.83949661254883 -783.8657836914062 17.19046783447266 C -783.3735961914062 17.60273742675781 -783.1006469726562 18.18984794616699 -783.09716796875 18.8436279296875 C -783.0941162109375 19.43549728393555 -783.317138671875 19.98735809326172 -783.7252807617188 20.39763832092285 C -784.165283203125 20.83989715576172 -784.7869873046875 21.08345794677734 -785.4760131835938 21.08345794677734 Z" stroke="none" fill="#fff"/>
            </g>
            <g id="Path_6063" data-name="Path 6063" transform="translate(-171.109 -195.048)" fill="#5fbabf">
                <path d="M -690.9358520507812 20.33453750610352 C -691.8757934570312 20.33453750610352 -692.5462646484375 19.74042892456055 -692.5664672851562 18.88977813720703 C -692.57568359375 18.49861717224121 -692.4360961914062 18.1348876953125 -692.1734008789062 17.86556816101074 C -691.8773803710938 17.56205749511719 -691.4406127929688 17.39457893371582 -690.943603515625 17.39398765563965 C -690.2997436523438 17.39398765563965 -689.9228515625 17.63941764831543 -689.719482421875 17.84530830383301 C -689.45556640625 18.11244773864746 -689.3187255859375 18.4691276550293 -689.3236694335938 18.87678718566895 C -689.3338623046875 19.7220573425293 -689.9837036132812 20.32145881652832 -690.904052734375 20.33431816101074 L -690.9358520507812 20.33453750610352 Z" stroke="none"/>
                <path d="M -690.9402465820312 18.14398574829102 C -690.9410400390625 18.14398574829102 -690.94189453125 18.14398765563965 -690.9426879882812 18.14398765563965 C -691.4833374023438 18.14462852478027 -691.8270874023438 18.43106842041016 -691.816650390625 18.87201881408691 C -691.80615234375 19.31282615661621 -691.4518432617188 19.59187889099121 -690.91455078125 19.58438873291016 C -690.3999633789062 19.57719802856445 -690.078857421875 19.30359840393066 -690.0736083984375 18.86764717102051 C -690.0679931640625 18.40694618225098 -690.3829345703125 18.14398574829102 -690.9402465820312 18.14398574829102 M -690.9444580078125 16.64398765563965 L -690.9402465820312 16.64398765563965 C -690.040771484375 16.64398765563965 -689.4898071289062 17.0106372833252 -689.1859130859375 17.31821823120117 C -688.7838134765625 17.72527885437012 -688.5663452148438 18.28203773498535 -688.57373046875 18.88590812683105 C -688.5888671875 20.14105796813965 -689.564453125 21.0656681060791 -690.8936157226562 21.08423805236816 C -690.9075927734375 21.08443832397461 -690.9218139648438 21.08453750610352 -690.9358520507812 21.08453750610352 C -692.2852783203125 21.08453750610352 -693.286376953125 20.16896820068359 -693.3162231445312 18.90752792358398 C -693.330322265625 18.31289863586426 -693.1151123046875 17.75687789916992 -692.7103271484375 17.34186744689941 C -692.2720947265625 16.89266777038574 -691.64501953125 16.64481735229492 -690.9444580078125 16.64398765563965 Z" stroke="none" fill="#fff"/>
            </g>
            <g id="Path_6064" data-name="Path 6064" transform="translate(-57.489 -195.047)" fill="#5fbabf">
                <path d="M -821.2945556640625 20.33249282836914 C -822.2373657226562 20.33249282836914 -822.903564453125 19.73309326171875 -822.91455078125 18.87487411499023 C -822.9254760742188 18.01718330383301 -822.2833251953125 17.40757369995117 -821.3529663085938 17.392333984375 C -821.3384399414062 17.39209365844727 -821.3238525390625 17.3919734954834 -821.3094482421875 17.3919734954834 C -820.1471557617188 17.3919734954834 -819.7037963867188 18.14666366577148 -819.6773071289062 18.79294395446777 C -819.6607666015625 19.19622230529785 -819.7968139648438 19.57145309448242 -820.0604858398438 19.84946250915527 C -820.3502197265625 20.15498352050781 -820.7784423828125 20.32646369934082 -821.2662963867188 20.33232307434082 L -821.2945556640625 20.33249282836914 Z" stroke="none"/>
                <path d="M -821.2945556640625 19.58248901367188 C -821.2881469726562 19.58248901367188 -821.28173828125 19.58245086669922 -821.2752685546875 19.58237266540527 C -820.7408447265625 19.57596397399902 -820.4080200195312 19.27835273742676 -820.4266967773438 18.82367324829102 C -820.4446411132812 18.38546943664551 -820.7609252929688 18.1419734954834 -821.3094482421875 18.1419734954834 C -821.3197631835938 18.1419734954834 -821.3302001953125 18.14205932617188 -821.3406982421875 18.14223289489746 C -821.8578491210938 18.15070343017578 -822.1702270507812 18.42495346069336 -822.1646118164062 18.86525344848633 C -822.1588745117188 19.31204795837402 -821.8299560546875 19.58248901367188 -821.2945556640625 19.58248901367188 M -821.2945556640625 21.08249282836914 C -822.6514282226562 21.08249282836914 -823.6481323242188 20.15810394287109 -823.6644897460938 18.88449287414551 C -823.6807861328125 17.60738372802734 -822.7138061523438 16.66452407836914 -821.365234375 16.64243316650391 C -821.3463134765625 16.64212417602539 -821.3277587890625 16.6419734954834 -821.3094482421875 16.6419734954834 C -819.9584350585938 16.6419734954834 -818.9791259765625 17.51384353637695 -818.927978515625 18.7622127532959 C -818.9030151367188 19.36974334716797 -819.1119384765625 19.93918418884277 -819.5162963867188 20.36555290222168 C -819.9467163085938 20.81942367553711 -820.5650024414062 21.0739631652832 -821.2572631835938 21.0822639465332 L -821.2945556640625 21.08249282836914 Z" stroke="none" fill="#fff"/>
            </g>
            <g id="Path_6065" data-name="Path 6065" transform="translate(-202.362 -195.047)" fill="#5fbabf">
                <path d="M -655.0931396484375 20.33308982849121 C -655.5888061523438 20.33308982849121 -656.0078125 20.17558097839355 -656.3047485351562 19.87760162353516 C -656.5693969726562 19.61207008361816 -656.7144165039062 19.24720001220703 -656.7130737304688 18.85020065307617 C -656.7106323242188 18.12477111816406 -656.20703125 17.39277076721191 -655.0875244140625 17.39277076721191 L -655.072998046875 17.3928108215332 C -654.1373901367188 17.39848136901855 -653.4955444335938 17.97197151184082 -653.4756469726562 18.81988143920898 C -653.46630859375 19.22191047668457 -653.6068115234375 19.59305000305176 -653.8713989257812 19.86505126953125 C -654.1669921875 20.16898155212402 -654.5858154296875 20.33082008361816 -655.0826416015625 20.33306121826172 L -655.0931396484375 20.33308982849121 Z" stroke="none"/>
                <path d="M -655.0875244140625 18.14277076721191 C -655.6400146484375 18.14277076721191 -655.9615478515625 18.40312194824219 -655.9630737304688 18.85272979736328 C -655.964599609375 19.30441474914551 -655.6323852539062 19.58308601379395 -655.0931396484375 19.58308601379395 C -655.0907592773438 19.58308601379395 -655.0884399414062 19.58308219909668 -655.0860595703125 19.58307075500488 C -654.5465087890625 19.58063125610352 -654.21484375 19.29330062866211 -654.2254638671875 18.83746147155762 C -654.2357177734375 18.39985084533691 -654.547119140625 18.14601135253906 -655.0773315429688 18.14280128479004 C -655.0807495117188 18.14278030395508 -655.0841064453125 18.14277076721191 -655.0875244140625 18.14277076721191 M -655.0875244140625 16.64277076721191 L -655.0685424804688 16.64282989501953 C -653.7186889648438 16.6510009765625 -652.7554931640625 17.53901100158691 -652.7258911132812 18.80230140686035 C -652.7117919921875 19.40738105773926 -652.9276733398438 19.97043037414551 -653.333740234375 20.3879508972168 C -653.7666015625 20.83306121826172 -654.3865356445312 21.07991981506348 -655.0792846679688 21.08305168151855 L -655.0931396484375 21.08308982849121 C -655.7825317382812 21.08308982849121 -656.4014892578125 20.8430004119873 -656.8359985351562 20.40704154968262 C -657.2423706054688 19.99928092956543 -657.465087890625 19.44548988342285 -657.4630737304688 18.84768104553223 C -657.4588012695312 17.57007026672363 -656.459716796875 16.64277076721191 -655.0875244140625 16.64277076721191 Z" stroke="none" fill="#fff"/>
            </g>
        </g>
    </g>
</svg>
