<svg xmlns="http://www.w3.org/2000/svg" width="31.239" height="31.19" viewBox="0 0 31.239 31.19">
  <g id="Group_6045" data-name="Group 6045" transform="translate(0 0)">
    <path id="Path_7094" data-name="Path 7094" d="M-336.808,2326.478h-23.179v-16.922h23.179Zm-22.142-.947h21.1V2310.5h-21.1Z" transform="translate(359.987 -2309.556)" fill="#0070b9"/>
    <path id="Path_7095" data-name="Path 7095" d="M-335.988,2374.738h-16.454l-1.153-14.564h18.761Zm-15.49-.946h14.525l1-12.671h-16.532Z" transform="translate(355.805 -2346.432)" fill="#0070b9"/>
    <path id="Path_7096" data-name="Path 7096" d="M-336.1,2325.911h-10.734a2.462,2.462,0,0,1-2.563-2.34v-5.65h15.86v5.65A2.462,2.462,0,0,1-336.1,2325.911Zm-12.26-7.043v4.7a1.466,1.466,0,0,0,1.526,1.394H-336.1a1.466,1.466,0,0,0,1.526-1.394v-4.7Z" transform="translate(353.061 -2315.281)" fill="#5fbabf"/>
    <path id="Path_7097" data-name="Path 7097" d="M-336.527,2407.153h-23.031v-3.831h23.031Zm-21.994-.947h20.957v-1.937h-20.957Z" transform="translate(359.707 -2375.963)" fill="#5fbabf"/>
    <path id="Path_7098" data-name="Path 7098" d="M-292.388,2350.348h-3.545v-5.915h3.545Zm-2.508-.947h1.471v-4.021H-294.9Z" transform="translate(318.075 -2334.32)" fill="#0070b9"/>
    <path id="Path_7099" data-name="Path 7099" d="M-291.385,2371.619a4.369,4.369,0,0,1-4.548-4.154v-7.289h3.545v7.417a.964.964,0,0,0,1,.917.965.965,0,0,0,1-.917v-7.417h3.545v7.289A4.37,4.37,0,0,1-291.385,2371.619Zm-3.511-10.5v6.342a3.374,3.374,0,0,0,3.511,3.208,3.375,3.375,0,0,0,3.513-3.208v-6.342h-1.471v6.471a1.961,1.961,0,0,1-2.042,1.863,1.959,1.959,0,0,1-2.04-1.863v-6.471Z" transform="translate(318.075 -2345.823)" fill="#5fbabf"/>
    <path id="Path_7100" data-name="Path 7100" d="M-286.835,2332.441h-3.545v-5.693a2.549,2.549,0,0,1-2.416-2.436,2.276,2.276,0,0,1,.31-1.144l-3.446-1.463v-3.436l9.1,3.862Zm-2.508-.947h1.471v-8.76l-7.024-2.981v1.348l4.05,1.72-.481.476a1.425,1.425,0,0,0-.433,1.015,1.579,1.579,0,0,0,1.644,1.5,1.624,1.624,0,0,0,.186-.01l.586-.07Z" transform="translate(318.075 -2315.519)" fill="#0070b9"/>
  </g>
</svg>
