<svg xmlns="http://www.w3.org/2000/svg" width="51.995" height="24.8" viewBox="0 0 51.995 24.8">
  <g id="Group_6047" data-name="Group 6047" transform="translate(0)">
    <path id="Path_7107" data-name="Path 7107" d="M68.73,2385.465h-52v-6.375H38.323l.174.354a4.716,4.716,0,0,0,8.469,0l.174-.355H68.73ZM18,2384.2H67.463v-3.84H47.915a5.982,5.982,0,0,1-10.366,0H18Z" transform="translate(-16.735 -2360.665)" fill="#0070b9"/>
    <path id="Path_7108" data-name="Path 7108" d="M70.324,2383.352A5.953,5.953,0,0,1,64.949,2380l-.449-.913H76.14l-.447.912A5.941,5.941,0,0,1,70.324,2383.352Zm-3.652-3a4.72,4.72,0,0,0,7.3,0Z" transform="translate(-44.324 -2360.665)" fill="#0070b9"/>
    <path id="Path_7109" data-name="Path 7109" d="M47.882,2352.769a6.077,6.077,0,0,1-5.186-2.722H25.648l.031-.6c.561-10.858,10.378-19.363,22.35-19.363s21.789,8.5,22.35,19.363l.031.6H53.063A6.066,6.066,0,0,1,47.882,2352.769Zm-20.9-3.874H43.471l.174.322a4.935,4.935,0,0,0,8.469,0l.174-.322H69.072c-.854-9.952-9.972-17.662-21.043-17.662S27.84,2338.943,26.986,2348.9Z" transform="translate(-21.883 -2330.082)" fill="#0070b9"/>
    <path id="Path_7110" data-name="Path 7110" d="M77.372,2343.841H72.4v-6.987h4.967Zm-3.7-1.267H76.1v-4.452H73.672Z" transform="translate(-48.889 -2333.994)" fill="#5fbabf"/>
    <path id="Path_7111" data-name="Path 7111" d="M40.165,2375.3H33.178v-4.967h6.987Zm-5.72-1.268H38.9V2371.6H34.445Z" transform="translate(-26.232 -2355.081)" fill="#5fbabf"/>
    <path id="Path_7112" data-name="Path 7112" d="M83.97,2344.506c-.368.317-12.161,7.611-12.161,7.611a5.419,5.419,0,0,0-.835-.064,5.345,5.345,0,1,0,5.345,5.345,5.408,5.408,0,0,0-.053-.755Zm-13,11.235a1.656,1.656,0,1,1-1.659,1.656A1.657,1.657,0,0,1,70.975,2355.741Z" transform="translate(-44.975 -2340.689)" fill="#5fbabf"/>
    <path id="Path_7113" data-name="Path 7113" d="M110.214,2363.447h-6.544l-.041-.59a13.307,13.307,0,0,0-2.556-6.966l-.257-.349.232-.366c1.369-2.158,2.433-3.819,2.994-4.677l.449-.686.55.608a19.967,19.967,0,0,1,5.138,12.359Zm-5.374-1.267h4.028a18.708,18.708,0,0,0-4.222-10.281c-.556.861-1.346,2.1-2.3,3.6A14.56,14.56,0,0,1,104.841,2362.18Z" transform="translate(-65.301 -2342.891)" fill="#0070b9"/>
    <path id="Path_7114" data-name="Path 7114" d="M102.437,2356.794l-1.07-.679c1.37-2.16,2.433-3.821,2.994-4.677l1.06.694C104.864,2352.984,103.8,2354.64,102.437,2356.794Z" transform="translate(-65.619 -2343.363)" fill="#0070b9"/>
  </g>
</svg>
