<svg id="Group_5979" data-name="Group 5979" xmlns="http://www.w3.org/2000/svg" width="52.907" height="49.35" viewBox="0 0 52.907 49.35">
    <defs>
        <clipPath id="clip-path">
            <rect id="Rectangle_3654" data-name="Rectangle 3654" width="52.907" height="49.35" fill="none"/>
        </clipPath>
    </defs>
    <g id="Group_5977" data-name="Group 5977" clip-path="url(#clip-path)">
        <path id="Path_9598" data-name="Path 9598" d="M40.6,35.9c-.258-1.639-.494-3.139-.771-4.9.911,1.664,1.748,3.113,2.5,4.6a1.276,1.276,0,0,0,1.4.822c1.424-.081,2.858-.009,4.276-.133.387-.033.81-.48,1.077-.84a6.213,6.213,0,0,0,.4-1.158,2.932,2.932,0,0,1,.5-.608c.219.2.555.368.632.615a6.82,6.82,0,0,1,.156,1.377c1.954.184,1.975.185,1.8,2.238-.2,2.321.247,2.408-2.359,2.327-2.971-.093-5.889.467-8.962.39l-.369-2.36" transform="translate(-21.907 -17.051)" fill="#32c2bf"/>
        <path id="Path_9599" data-name="Path 9599" d="M27.8,70.888c-.1-.36-.693-.706-1.12-.814-.765-.189-.967-.522-.927-1.314.391-8.04.738-16.089,1.1-24.134a2.255,2.255,0,0,1,.162-.4l-.27-2.38c-2.11,0-3.946.067-5.773-.027-.963-.049-1.242.31-1.372,1.179-.292,1.971-.328,1.993-2.2,2.232-.634.081-.9.337-.9.954,0,1.426-.009,2.853,0,4.279a2.321,2.321,0,0,0,.675,2.092c.877.769,1.156,1.012,2.182.495,1-.5,1.773-.279,2.529.81H20.336c-.04.5-.076.931-.117,1.39l1.593.292c-1.161.972-1.786.936-2.848.283a2.441,2.441,0,0,0-1.723-.274,8.054,8.054,0,0,0-1.908,1.233c-.22,4.72-.45,9.723-.693,14.726-.031.612.189.855.814.841,1.237-.032,2.475.022,3.712-.027.378-.018,1.071-.256,1.071-.387a6.266,6.266,0,0,0-.36-1.669c-.09-.315-.382-.625-.346-.913.427-3.685.9-7.361,1.368-11.041a3.07,3.07,0,0,1,.292-.639c0,1.678.013,3.123,0,4.567q-.054,4.569-.13,9.129c-.009.729.274,1.008,1.021.981,1.584-.049,3.172-.076,4.756-.013,1.12.04,1.278-.391.963-1.444M21.42,43.757c-.234.014-.481-.265-.724-.418.153-.22.3-.445.589-.868.382.387.585.585.783.783-.216.18-.423.495-.648.5m3.186-.423c.157-.225.315-.445.607-.859.382.378.585.58.787.778-.22.18-.432.495-.657.5s-.49-.27-.738-.423" transform="translate(-8.051 -22.998)" fill="#0070b9"/>
        <path id="Path_9600" data-name="Path 9600" d="M12.693,31.956c-1.7.277-1.7.277-2.037,2.036-.283,1.488-.283,1.488-1.867,1.414.132-.716.289-1.415.375-2.122.027-.22-.139-.464-.216-.7-.162.183-.416.341-.471.552a34.757,34.757,0,0,0-.764,10.008,1.082,1.082,0,0,0,.19.6c.2.254.655.44.672.678A6.441,6.441,0,0,1,8.4,46.4c-.051.2-.562.455-.819.414-1-.16-1.983-.481-2.988-.636a3.976,3.976,0,0,0-1.917.041A1.958,1.958,0,0,1,0,45.59c.306-.021.528-.042.75-.049.244-.008.488,0,.807,0l.109-1.451L.245,43.83a1.666,1.666,0,0,1,2.446-.383,12.089,12.089,0,0,0,1.691.762c0-1,.049-1.754-.009-2.5a45.692,45.692,0,0,1,.5-11.178,6.154,6.154,0,0,1,2.588-4.471,1.248,1.248,0,0,1,1.56,0,8.01,8.01,0,0,1,3.668,5.9" transform="translate(0 -14.185)" fill="#32c2bf"/>
        <path id="Path_9601" data-name="Path 9601" d="M18.81,5.624C18.035,2.933,19.183.817,21.752.21A9.522,9.522,0,0,1,24.48.023,2.481,2.481,0,0,1,26.927,1.8,1.679,1.679,0,0,0,29.02,3.183a11.463,11.463,0,0,1,1.514-.011c.165.814-.127,1.2-.823,1.276-3.619.4-7.239.782-10.9,1.177" transform="translate(-10.216 0)" fill="#0070b9"/>
        <path id="Path_9602" data-name="Path 9602" d="M19.707,13.066,27.66,12.2a4.094,4.094,0,0,1-3.3,5.051c-2.168.313-4.32-1.562-4.65-4.183" transform="translate(-10.84 -6.71)" fill="#e4f4fb"/>
        <path id="Path_9603" data-name="Path 9603" d="M28.719,26.767a9.251,9.251,0,0,1,1.761,5.272c-1,0-1.967.022-2.931-.021-.166-.007-.409-.265-.466-.453-1.022-3.36-1.017-3.361-3.1-5.832,1.613.453,2.944,1.783,4.733,1.034" transform="translate(-13.194 -14.155)" fill="#32c2bf"/>
        <path id="Path_9604" data-name="Path 9604" d="M73.187,95.012H48.214v0H44.221V96.1H77.232V95.012Z" transform="translate(-24.325 -52.263)" fill="#32c2bf"/>
        <path id="Path_9605" data-name="Path 9605" d="M53.1,90.7c0,.418,0,.838,0,1.263a.678.678,0,0,0,.676.678H57.6a.676.676,0,0,0,.677-.676V90.825H72.9v1.137a.676.676,0,0,0,.676.676h3.812a.678.678,0,0,0,.677-.678c0-.424,0-.845,0-1.263Z" transform="translate(-29.207 -49.89)" fill="#e4f4fb"/>
        <path id="Path_9606" data-name="Path 9606" d="M77.612,68.413c.014-1.278.081-2.56-1.156-3.554a6.748,6.748,0,0,0,.693-.364c.351-.261,1.075-.13.882-.963a1.072,1.072,0,0,0-1.363-.958,3.068,3.068,0,0,1-3.46-1.647c-.108-.189-.3-.328-.418-.513a2.36,2.36,0,0,0-2.182-1.084q-5.413.034-10.83-.009a2.567,2.567,0,0,0-2.407,1.21c-.936,1.48-2.124,2.479-4.036,2.038a.669.669,0,0,0-.189,0,.894.894,0,0,0-.886,1.021c0,.261.324.558.562.765a5.669,5.669,0,0,0,1.017.522c-1.417,1.03-1.2,2.439-1.2,3.793,0,1.465,0,2.934,0,4.448H77.6c0-1.6-.006-3.154.007-4.709M58.881,60.692c.171-.189.594-.207.9-.211,3.577-.009,7.158-.022,10.735.027a2.013,2.013,0,0,1,1.282.625c.891.963,1.687,2.011,2.587,3.109H55.844c1.048-1.237,2.016-2.421,3.037-3.55m-.049,7.716c-1.314,0-2.542.045-3.766-.018a1.19,1.19,0,0,1-.981-1.683.692.692,0,0,1,.558-.337c1.165.108,2.331.211,3.478.432.855.166.873.855.711,1.606M75.3,68.377a17.066,17.066,0,0,1-1.8.09v.027a8.6,8.6,0,0,1-1.228-.013,4.536,4.536,0,0,1-.918-.364c.189-.418.315-1.147.589-1.21a26.611,26.611,0,0,1,3.833-.513c.121-.013.387.481.418.76a1.006,1.006,0,0,1-.9,1.224" transform="translate(-28.746 -32.63)" fill="#0070b9"/>
    </g>
</svg>
