<svg id="Group_5667" data-name="Group 5667" xmlns="http://www.w3.org/2000/svg" width="39.178" height="48.975" viewBox="0 0 39.178 48.975">
  <defs>
    <clipPath id="clip-path">
      <rect id="Rectangle_3388" data-name="Rectangle 3388" width="39.178" height="48.975" fill="none"/>
    </clipPath>
  </defs>
  <g id="Group_5666" data-name="Group 5666" clip-path="url(#clip-path)">
    <path id="Path_8817" data-name="Path 8817" d="M32.6,13.1v9.472c0,.349-.037.508.481.415A2.3,2.3,0,0,1,35.87,25.1c.043.345.045.434.456.353A2.316,2.316,0,0,1,39.1,27.2a2.383,2.383,0,0,1,.053.377c.043.447,0,8.924.029,9.5a5.649,5.649,0,0,1-.428,2.287c-.4,1.04-.771,2.09-1.175,3.128a1.288,1.288,0,0,0-.051.5c-.005,1.707,0,3.413,0,5.122a.757.757,0,0,1-.864.848c-3.946,0-8.923-.02-12.865.016-.489.04-.049-5.447.007-6.347.015-.243-.133-.233-.292-.222-.786.054-10.411.01-10.988.007a4.616,4.616,0,0,1-2.233-.593,3.975,3.975,0,0,1-2.01-2.7,1.732,1.732,0,0,1-.045-.451c0-3.96-.05-7.92.027-11.877.024-1.218-.132-2.431-.027-3.645.024-.28-.016-.407-.366-.42A7.868,7.868,0,0,1,1.531,19.3a8.043,8.043,0,0,1-1.475-5.67,8.979,8.979,0,0,1,.8-2.582A8.246,8.246,0,0,1,3.14,8.29,7.147,7.147,0,0,1,7.891,6.468c.276-.016.237-.168.237-.336,0-.6.006-1.195,0-1.792A4.409,4.409,0,0,1,11.459.03a2.019,2.019,0,0,1,.508-.024C17.531.007,23.1.014,28.66,0a4.114,4.114,0,0,1,3.746,2.718,3.719,3.719,0,0,1,.206,1.271C32.6,7.024,32.6,10.062,32.6,13.1M26.137,25.651v6.855a.871.871,0,0,1-.768.964l-.064.005a.879.879,0,0,1-.784-.965v0c-.009-.683,0-1.365-.008-2.047,0-.154.112-.376-.089-.451-.16-.06-.322.092-.448.2a2.8,2.8,0,0,0-.5.51,3.6,3.6,0,0,0-.615,2.119c-.009,1.569,0,3.139-.007,4.709a1.176,1.176,0,0,0,.186.62c.672,1.162,1.327,2.334,2,3.494a2.008,2.008,0,0,1,.28,1.065c-.013,1.433,0,2.866-.011,4.3,0,.29.039.414.38.412q4.965-.021,9.93,0c.286,0,.377-.076.372-.368-.018-.972.034-1.947-.018-2.917a7.186,7.186,0,0,1,.6-3.324c.359-.823.627-1.685.929-2.532a1.729,1.729,0,0,0,.128-.588c-.007-3.293,0-6.586-.007-9.878a.793.793,0,0,0-.686-.888.777.777,0,0,0-.133-.006.79.79,0,0,0-.837.741.764.764,0,0,0,0,.139c-.008.734,0,1.467,0,2.2,0,.819.005,1.638,0,2.457-.005.594-.331,1-.794,1.008-.48.012-.814-.406-.825-1.029V25.388a.8.8,0,0,0-.805-.909c-.53-.011-.846.323-.849.917,0,1.314,0,2.627,0,3.941,0,.563.018,1.127-.009,1.688a.841.841,0,0,1-.823.818.87.87,0,0,1-.783-.811,3.693,3.693,0,0,1-.005-.409V24.686c0-.7-.28-1.034-.84-1.026-.539.008-.813.343-.814,1.008v4.913c0,.718-.306,1.147-.812,1.146s-.807-.428-.809-1.149v-10.6a1.244,1.244,0,0,0-.051-.555.8.8,0,0,0-.964-.484.779.779,0,0,0-.641.857q-.005,3.417-.011,6.845Zm-18-17.566a6.519,6.519,0,0,0-6.579,6.457V14.6A6.522,6.522,0,0,0,7.98,21.216h.156a6.521,6.521,0,0,0,6.549-6.492v-.049A6.515,6.515,0,0,0,8.249,8.082H8.138Zm7.491,3.275c.141.464.287.881.39,1.307.069.287.207.371.5.362.682-.023,1.365-.013,2.048-.005s1.012.318,1.018,1q.014,1.433,0,2.866c-.005.711-.322,1.02-1.044,1.025-.853.006-1.707.012-2.56-.005a.509.509,0,0,0-.544.336,7.8,7.8,0,0,1-2.183,2.733.54.54,0,0,0-.224.475q.008,4.608,0,9.215c0,.285.076.384.372.38,1.126-.015,2.253-.02,3.379,0,.348.007.381-.144.379-.426q-.016-1.741,0-3.481c0-.691.318-1.008,1-1.014q2.253-.011,4.505,0a.888.888,0,0,1,1.018.739.856.856,0,0,1,0,.258c.008.359,0,.717,0,1.075,0,.1-.053.248.131.28a.646.646,0,0,0,.706-.579v0c0-1.008-.014-2.015.008-3.023.008-.353-.121-.428-.441-.42-.614.021-1.228.013-1.847,0a.877.877,0,0,1-1-.966q-.018-1.484,0-2.969a.869.869,0,0,1,.775-.954.834.834,0,0,1,.183,0c.512-.012,1.024,0,1.536,0,.756,0,.75,0,.783-.728a2.649,2.649,0,0,1,.079-.556c.084-.3-.023-.39-.321-.382-.683.015-1.365.013-2.048,0a.878.878,0,0,1-.987-.976q-.016-1.458,0-2.918c.007-.676.332-.989,1.023-.994q1.433-.01,2.867,0c.682.007.992.325,1,1.017s.013,1.366,0,2.048c-.008.291.1.363.36.292a1.593,1.593,0,0,1,.908-.008c.317.1.409-.016.4-.342-.016-1.382-.024-2.765,0-4.146.008-.427-.109-.536-.535-.534-3.72.018-7.442.01-11.161.01Zm13.784,10.79c.408,0,.772-.189,1.144-.062.411.14.534.034.533-.426q-.025-8.19,0-16.381c0-.357-.049-.489-.458-.488q-10.187.024-20.376,0c-.374,0-.567.055-.51.485a3.471,3.471,0,0,1,0,.924c-.052.376.122.489.448.572A7.839,7.839,0,0,1,14.345,9.4a.886.886,0,0,0,.771.355q6.549-.014,13.106-.005c.933,0,1.191.252,1.191,1.181V21.577Zm-18,0c-.478.146-.893.3-1.319.4-.292.068-.353.21-.353.494q.014,7.087,0,14.175c0,.312.074.4.393.4q5.349-.018,10.7,0c.329,0,.43-.079.425-.42-.019-1.364-.024-2.73,0-4.094.008-.364-.084-.449-.438-.448-2.7.015-5.39.008-8.086.008-1.107,0-1.321-.212-1.321-1.308ZM20.379,3.18h9.977c.157,0,.38.1.461-.084.071-.158-.088-.317-.182-.453a2.345,2.345,0,0,0-1.981-1.092q-8.238-.019-16.476,0a2.336,2.336,0,0,0-2.015,1.124c-.089.134-.261.3-.144.448.062.084.282.054.431.054h9.934Zm2.34,37.685c-.276-.485-.521-.872-.72-1.28a.6.6,0,0,0-.641-.364c-1.6.016-3.206.008-4.809.008-2.064,0-4.128.008-6.191-.006-.389,0-.458.1-.252.42a2.455,2.455,0,0,0,2.17,1.218c1.245.012,2.49,0,3.735,0ZM18.763,29.353c0,.46.013.924-.005,1.38-.009.247.074.321.317.316.732-.014,1.465,0,2.2-.006.117,0,.275.033.314-.1.12-.42.472-.756.47-1.219,0-.545-.015-1.091.006-1.636.011-.274-.084-.345-.346-.341-.851.016-1.7.026-2.556,0-.362-.013-.42.128-.406.437.029.385.011.778.011,1.17Zm-.8-13.84c0-.872,0-.872-.823-.872s-.833,0-.833.81c0,.845,0,.845.849.845.812,0,.812,0,.812-.788Zm5.77-.872c-.872,0-.872,0-.872.823s0,.833.81.833c.845,0,.845,0,.845-.849.005-.809.005-.809-.78-.809Zm.784,7.389c0-.834,0-.834-.809-.834h-.051c-.8,0-.8,0-.8.8,0,.86,0,.86.835.859s.825,0,.825-.826Z" transform="translate(0 0)"/>
    <path id="Path_8818" data-name="Path 8818" d="M30.505,29.067V22.208a.779.779,0,0,1,.641-.857.8.8,0,0,1,.964.484,1.256,1.256,0,0,1,.052.555v10.6c0,.72.3,1.148.809,1.149s.811-.427.812-1.146V28.074c0-.662.275-1,.814-1.008.562-.008.84.331.84,1.026v5.937a3.691,3.691,0,0,0,.005.409.87.87,0,0,0,.783.811.841.841,0,0,0,.823-.818c.029-.562.009-1.126.009-1.688V28.8c0-.594.318-.924.848-.917a.8.8,0,0,1,.813.782.807.807,0,0,1-.008.128q.005,3.378,0,6.756v.307c.01.623.345,1.041.825,1.03.463-.011.789-.414.794-1.008.007-.819,0-1.638,0-2.457,0-.734-.005-1.467,0-2.2a.792.792,0,0,1,.7-.877.828.828,0,0,1,.137,0,.793.793,0,0,1,.825.759.806.806,0,0,1-.006.135q0,4.939.006,9.878a1.72,1.72,0,0,1-.128.588c-.3.847-.57,1.709-.929,2.532a7.187,7.187,0,0,0-.6,3.324c.052.97,0,1.945.018,2.917.005.292-.084.369-.371.368q-4.966-.014-9.93,0c-.341,0-.382-.123-.38-.412.013-1.433,0-2.866.011-4.3a2.01,2.01,0,0,0-.28-1.065c-.672-1.16-1.329-2.332-2-3.494a1.174,1.174,0,0,1-.186-.62c.008-1.569,0-3.139.007-4.709a3.6,3.6,0,0,1,.615-2.119,2.8,2.8,0,0,1,.5-.51c.126-.1.288-.257.448-.2.2.075.084.3.089.451.013.683,0,1.365.008,2.047a.88.88,0,0,0,.783.966h0a.872.872,0,0,0,.837-.9c0-.022,0-.043-.005-.065.017-2.275.013-4.562.013-6.846" transform="translate(-4.365 -3.42)" fill="#f6cba8"/>
    <path id="Path_8819" data-name="Path 8819" d="M8.436,9.625A6.515,6.515,0,0,1,14.989,16.1q0,.057,0,.113a6.521,6.521,0,0,1-6.5,6.541H8.44a6.522,6.522,0,0,1-6.581-6.463q0-.078,0-.156A6.518,6.518,0,0,1,8.382,9.625h.054M6.784,19.448a1.087,1.087,0,0,0,.663-.353Q8.527,18,9.614,16.926c.855-.855,1.715-1.705,2.563-2.568a.756.756,0,0,0,.185-1.053.827.827,0,0,0-1.29-.059l-.015.02C9.973,14.351,8.894,15.44,7.8,16.515c-.336.33-.619.908-1.036.9-.325-.007-.639-.548-.958-.852l-.036-.036c-.42-.388-.819-.412-1.168-.072a.749.749,0,0,0,.048,1.165c.5.516,1.008,1.013,1.511,1.52a1.01,1.01,0,0,0,.621.311Z" transform="translate(-0.298 -1.544)" fill="#e6ebef"/>
    <path id="Path_8820" data-name="Path 8820" d="M18.118,13.527H18.6c3.72,0,7.441.008,11.161-.01.426,0,.544.107.535.534-.029,1.382-.019,2.764,0,4.147,0,.326-.084.441-.4.342a1.579,1.579,0,0,0-.908.008c-.258.071-.367,0-.359-.292.017-.682.012-1.365,0-2.048s-.317-1.008-1-1.017q-1.433-.014-2.867,0c-.691.005-1.016.318-1.023.994q-.014,1.46,0,2.918a.878.878,0,0,0,.987.976c.683.01,1.365.013,2.048,0,.3-.007.4.084.321.382a2.594,2.594,0,0,0-.079.556c-.033.728-.029.728-.783.728-.512,0-1.024-.009-1.536,0a.869.869,0,0,0-.958.77.841.841,0,0,0,0,.184q-.019,1.485,0,2.969c.008.644.336.956,1,.966.615.008,1.229.017,1.847,0,.319-.011.448.065.441.42-.024,1.008-.006,2.015-.009,3.023a.645.645,0,0,1-.7.583h0c-.185-.032-.129-.175-.131-.28-.008-.359,0-.717,0-1.075a.889.889,0,0,0-.764-1,.878.878,0,0,0-.257,0q-2.253-.01-4.505,0c-.684,0-1,.323-1,1.014q-.011,1.741,0,3.481c0,.282-.031.432-.379.426-1.126-.022-2.253-.018-3.379,0-.3,0-.372-.095-.371-.38q.013-4.608,0-9.215a.54.54,0,0,1,.224-.475,7.813,7.813,0,0,0,2.183-2.733.509.509,0,0,1,.544-.336c.853.017,1.706.011,2.56.005.721-.005,1.039-.314,1.044-1.025q.01-1.433,0-2.867c-.007-.679-.327-.99-1.018-1s-1.366-.017-2.048.005c-.29.009-.427-.075-.5-.362-.1-.437-.253-.852-.39-1.317m-.939,10.617c0,.511-.01,1.023,0,1.533a.869.869,0,0,0,.774.955.926.926,0,0,0,.181,0q1.482.019,2.965,0a.865.865,0,0,0,.965-.751.9.9,0,0,0,0-.191q.02-1.511,0-3.016a.854.854,0,0,0-.773-.928.792.792,0,0,0-.154,0q-1.511-.021-3.016,0a.867.867,0,0,0-.945.782.85.85,0,0,0,0,.185c-.009.476,0,.954,0,1.431Z" transform="translate(-2.488 -2.168)" fill="#0070b9"/>
    <path id="Path_8821" data-name="Path 8821" d="M31.272,23.064V11.843c0-.924-.259-1.181-1.191-1.181q-6.553,0-13.106.005a.886.886,0,0,1-.771-.355,7.835,7.835,0,0,0-4.155-2.625c-.327-.084-.5-.2-.448-.572a3.511,3.511,0,0,0,0-.919c-.056-.431.138-.486.51-.485q10.187.015,20.376,0c.409,0,.458.131.458.488q-.016,8.19,0,16.381c0,.46-.122.566-.532.426-.369-.129-.733.059-1.141.059M25.554,9h4.2c.238,0,.479.015.715-.008a.853.853,0,0,0,.8-.788.862.862,0,0,0-.781-.809,2.827,2.827,0,0,0-.358-.008H20.971a1.946,1.946,0,0,0-.458.029.776.776,0,0,0-.664.792.767.767,0,0,0,.646.756,2.2,2.2,0,0,0,.5.034Q23.277,9,25.554,9Zm-8.2-.007a.871.871,0,0,0,.8-.782.8.8,0,1,0-1.6-.01.868.868,0,0,0,.8.79Z" transform="translate(-1.859 -0.916)" fill="#e8edf0"/>
    <path id="Path_8822" data-name="Path 8822" d="M13.277,26.377v9.2c0,1.1.214,1.309,1.321,1.309,2.7,0,5.391.007,8.086-.008.359,0,.446.084.438.448-.028,1.364-.024,2.73,0,4.094.005.336-.1.42-.425.42q-5.349-.018-10.7,0c-.319,0-.394-.084-.393-.4q.015-7.087,0-14.175c0-.283.061-.426.353-.494.427-.1.837-.252,1.315-.4M15.67,40.166h.767c.252,0,.511.007.767,0a.88.88,0,0,0,.955-.793.863.863,0,0,0-.905-.818l-.024,0q-1.511-.018-3.015,0a.867.867,0,0,0-.929.8v.018a.877.877,0,0,0,.955.791c.477.009.955,0,1.432,0Z" transform="translate(-1.862 -4.23)" fill="#e8edf1"/>
    <path id="Path_8823" data-name="Path 8823" d="M22.291,3.471H12.364c-.149,0-.369.027-.431-.054-.118-.153.055-.314.144-.448a2.335,2.335,0,0,1,2.015-1.124q8.238-.019,16.476,0A2.345,2.345,0,0,1,32.55,2.936c.094.135.252.295.182.453-.084.18-.3.084-.461.084q-4.222.009-8.442,0Z" transform="translate(-1.908 -0.294)" fill="#5fbabf"/>
    <path id="Path_8824" data-name="Path 8824" d="M24.633,48.354h-6.71c-1.245,0-2.49.008-3.735,0a2.456,2.456,0,0,1-2.17-1.218c-.206-.326-.135-.42.252-.42,2.064.013,4.128.007,6.191.007,1.6,0,3.206.008,4.809-.008a.6.6,0,0,1,.641.364c.2.4.446.789.722,1.275" transform="translate(-1.909 -7.491)" fill="#5fbabf"/>
    <path id="Path_8825" data-name="Path 8825" d="M22.35,34.649c0-.392.017-.785-.006-1.175-.018-.311.044-.45.406-.438.851.029,1.7.019,2.556,0,.265-.005.356.066.346.341-.021.545-.008,1.092-.006,1.636,0,.467-.35.8-.47,1.219-.039.137-.2.1-.314.1-.733,0-1.466-.008-2.2.006-.244,0-.327-.069-.317-.316.017-.457,0-.917,0-1.377" transform="translate(-3.583 -5.298)" fill="#5fbabf"/>
    <path id="Path_8826" data-name="Path 8826" d="M21.082,18.307c0,.785,0,.785-.808.785-.849,0-.849,0-.849-.845,0-.81,0-.81.833-.81s.823,0,.824.871" transform="translate(-3.115 -2.796)" fill="#5fbabf"/>
    <path id="Path_8827" data-name="Path 8827" d="M28.1,17.435c.785,0,.785,0,.785.808,0,.849,0,.849-.846.849-.81,0-.81,0-.81-.833s0-.824.872-.824" transform="translate(-4.367 -2.796)" fill="#5fbabf"/>
    <path id="Path_8828" data-name="Path 8828" d="M28.887,26.075c0,.822,0,.822-.821.822s-.835,0-.835-.859c0-.8,0-.8.8-.8h.051c.81,0,.81,0,.81.834" transform="translate(-4.367 -4.048)" fill="#5fbabf"/>
    <path id="Path_8829" data-name="Path 8829" d="M7.262,20.085a1,1,0,0,1-.62-.311c-.5-.5-1.018-1.008-1.511-1.521a.749.749,0,0,1-.048-1.165c.349-.341.747-.316,1.168.072l.036.036c.319.3.633.845.958.852.42.008.7-.57,1.036-.9,1.092-1.075,2.171-2.164,3.255-3.248a.763.763,0,0,1,1.065-.184l.022.016a.755.755,0,0,1,.24,1.041.764.764,0,0,1-.207.218c-.847.863-1.708,1.713-2.563,2.568L7.927,19.729a1.088,1.088,0,0,1-.665.356" transform="translate(-0.774 -2.178)"/>
    <path id="Path_8830" data-name="Path 8830" d="M17.5,25.71c0-.477-.008-.955,0-1.427a.868.868,0,0,1,.76-.964.834.834,0,0,1,.183,0q1.511-.02,3.016,0a.854.854,0,0,1,.924.777.817.817,0,0,1,0,.15q.023,1.511,0,3.016a.865.865,0,0,1-.777.945.9.9,0,0,1-.191,0q-1.482.016-2.965,0a.87.87,0,0,1-.955-.774.926.926,0,0,1,0-.181c-.006-.511,0-1.023,0-1.537m2.469-.783c-.851,0-.851,0-.851.844v.051c0,.761,0,.761.78.761.876,0,.876,0,.876-.87,0-.783,0-.783-.806-.783Z" transform="translate(-2.805 -3.738)"/>
    <path id="Path_8831" data-name="Path 8831" d="M27.131,9.315H22.578a2.2,2.2,0,0,1-.5-.034.769.769,0,0,1-.647-.756.777.777,0,0,1,.665-.792A1.936,1.936,0,0,1,22.55,7.7h9.158a2.827,2.827,0,0,1,.358.008.863.863,0,0,1,.78.809.853.853,0,0,1-.8.788c-.237.023-.477.008-.715.008Z" transform="translate(-3.437 -1.235)"/>
    <path id="Path_8832" data-name="Path 8832" d="M18.3,9.31a.869.869,0,0,1-.8-.791.8.8,0,1,1,1.6.009.871.871,0,0,1-.8.782" transform="translate(-2.808 -1.237)"/>
    <path id="Path_8833" data-name="Path 8833" d="M15.992,42.49c-.477,0-.954.008-1.427,0a.877.877,0,0,1-.955-.791.865.865,0,0,1,.912-.817h.018q1.511-.018,3.016,0a.862.862,0,0,1,.927.791c0,.008,0,.017,0,.025a.881.881,0,0,1-.955.793c-.252.008-.511,0-.767,0Z" transform="translate(-2.183 -6.556)"/>
    <path id="Path_8834" data-name="Path 8834" d="M20.276,25.241c.806,0,.806,0,.806.787,0,.87,0,.87-.876.87-.78,0-.78,0-.78-.761v-.051c0-.845,0-.845.85-.845" transform="translate(-3.116 -4.048)" fill="#5fbabf"/>
  </g>
</svg>
