<svg id="Component_33_1" data-name="Component 33 – 1" xmlns="http://www.w3.org/2000/svg" width="128.517" height="128.517" viewBox="0 0 128.517 128.517">
    <path id="Path_9660" data-name="Path 9660" d="M65.258,129.517a64.258,64.258,0,1,1,64.258-64.258,64.258,64.258,0,0,1-64.258,64.258Zm0-119.949a55.691,55.691,0,1,0,55.691,55.691A55.691,55.691,0,0,0,65.258,9.568Z" transform="translate(-1 -1)" fill="#32c2bf"/>
    <path id="Path_9661" data-name="Path 9661" d="M32.136,61.571A4.284,4.284,0,0,1,29.009,60.2L9,38.781a4.284,4.284,0,0,1,6.254-5.826L32.136,50.99,68.978,11.536a4.284,4.284,0,1,1,6.254,5.826L35.263,60.2A4.284,4.284,0,0,1,32.136,61.571Z" transform="translate(22.141 28.39)" fill="#32c2bf"/>
</svg>
