<svg xmlns="http://www.w3.org/2000/svg" width="91.9" height="114.875" viewBox="0 0 91.9 114.875">
  <g id="Group_6136" data-name="Group 6136" transform="translate(-4 -1)">
    <g id="Group_6132" data-name="Group 6132" transform="translate(4 1)">
      <path id="Path_9669" data-name="Path 9669" d="M92.071,8.658H7.829A3.829,3.829,0,1,1,7.829,1H92.071a3.829,3.829,0,0,1,0,7.658Z" transform="translate(-4 -1)" fill="#fbcb49"/>
    </g>
    <g id="Group_6133" data-name="Group 6133" transform="translate(4 108.217)">
      <path id="Path_9670" data-name="Path 9670" d="M92.071,36.658H7.829a3.829,3.829,0,1,1,0-7.658H92.071a3.829,3.829,0,1,1,0,7.658Z" transform="translate(-4 -29)" fill="#fbcb49"/>
    </g>
    <g id="Group_6134" data-name="Group 6134" transform="translate(13.956 1)">
      <path id="Path_9671" data-name="Path 9671" d="M74.758,115.875H10.429A3.829,3.829,0,0,1,6.6,112.057c0-.729.019-18.1,6.826-32.937A95.507,95.507,0,0,1,26.217,58.437,95.5,95.5,0,0,1,13.426,37.755C6.619,22.92,6.6,5.547,6.6,4.818A3.829,3.829,0,0,1,10.429,1H74.758a3.829,3.829,0,0,1,3.829,3.818c0,.729-.019,18.1-6.826,32.937A95.5,95.5,0,0,1,58.971,58.437,95.5,95.5,0,0,1,71.761,79.12c6.808,14.834,6.828,32.208,6.826,32.937A3.83,3.83,0,0,1,74.758,115.875Zm-60.339-7.658H70.768c-.381-5.635-1.664-16.524-5.966-25.9a82.559,82.559,0,0,0-13.668-21.2,3.836,3.836,0,0,1,0-5.347A82.561,82.561,0,0,0,64.8,34.561c4.3-9.378,5.585-20.268,5.966-25.9H14.419c.381,5.635,1.664,16.524,5.966,25.9a82.559,82.559,0,0,0,13.668,21.2,3.836,3.836,0,0,1,0,5.347,82.561,82.561,0,0,0-13.668,21.2C16.083,91.692,14.8,102.581,14.419,108.217Z" transform="translate(-6.6 -1)" fill="#fbcb49"/>
    </g>
    <g id="Group_6135" data-name="Group 6135" transform="translate(31.662 70.002)">
      <path id="Path_9672" data-name="Path 9672" d="M11.224,49.5s-.032-9.716,3.683-17.812S24.679,19.02,29.512,19.02,40.4,23.592,44.117,31.688,47.8,49.5,47.8,49.5H11.224Z" transform="translate(-11.224 -19.02)" fill="#fbcb49"/>
    </g>
  </g>
</svg>
