<svg xmlns="http://www.w3.org/2000/svg" width="34.636" height="41.046" viewBox="0 0 34.636 41.046">
  <g id="Group_6049" data-name="Group 6049" transform="translate(-67.03 -705.105)">
    <path id="Path_7150" data-name="Path 7150" d="M24.776,40.546c-.447,0-.891,0-1.329-.007q-.8-.006-1.6-.007-1.988,0-3.975,0c-3.373.006-6.86.012-10.289-.022A7.2,7.2,0,0,1,.336,35.159a6.48,6.48,0,0,1-.144-3.543A4.285,4.285,0,0,1,2.758,28.8c.187-.08.256-.153.294-.313a41.328,41.328,0,0,0,1.3-11.557c-.005-.114-.012-.229-.018-.344a8.293,8.293,0,0,1,.077-2.213C4.906,12.129,6.686,10.7,9.3,10.453c.812-.077,1.639-.084,2.439-.09.347,0,.706-.006,1.058-.014.155,0,.313,0,.479,0h.007V9.511h-.108c-.231,0-.459,0-.687,0A2.852,2.852,0,0,1,10.4,8.733,2.4,2.4,0,0,1,9.821,6.7c.19-1.5.346-3.029.5-4.508l0-.015A2.4,2.4,0,0,1,12.9,0c2.778,0,5.6,0,8.374,0a2.429,2.429,0,0,1,2.575,2.175c.153,1.482.327,3.046.515,4.648a2.309,2.309,0,0,1-.618,1.939,2.743,2.743,0,0,1-1.983.747h-.029c-.236,0-.472,0-.713,0h-.131v.834c.1,0,.2,0,.3,0,.4.012.81.012,1.207.012a18.8,18.8,0,0,1,2.749.137c3.263.485,5.05,2.656,4.779,5.806a32.035,32.035,0,0,0-.055,4.351,42.5,42.5,0,0,0,1.216,7.733.569.569,0,0,0,.377.452,4.24,4.24,0,0,1,2.681,3.869h0a7.629,7.629,0,0,1-1.149,4.409,7.2,7.2,0,0,1-6.248,3.394c-.653.027-1.312.035-1.966.035m-2.928-.457q.8,0,1.6.007c1.074.009,2.184.018,3.27-.027A6.738,6.738,0,0,0,32.57,36.9a7.221,7.221,0,0,0,1.087-4.174,3.775,3.775,0,0,0-2.41-3.489,1.02,1.02,0,0,1-.637-.755,42.89,42.89,0,0,1-1.227-7.807,32.476,32.476,0,0,1,.056-4.407c.249-2.9-1.387-4.89-4.375-5.335a18.414,18.414,0,0,0-2.672-.131c-.4,0-.816,0-1.223-.012-.117,0-.233,0-.352,0H20.4V9.069h.613c.242,0,.48,0,.718,0h.025a2.247,2.247,0,0,0,1.625-.6,1.9,1.9,0,0,0,.5-1.595c-.189-1.6-.362-3.17-.516-4.654A1.956,1.956,0,0,0,21.27.445c-2.779,0-5.6,0-8.373,0a1.956,1.956,0,0,0-2.1,1.771V2.23c-.152,1.481-.308,3.013-.5,4.517a2,2,0,0,0,.464,1.693,2.368,2.368,0,0,0,1.727.627c.225,0,.45,0,.679,0h.593v1.721H13.27c-.164,0-.314,0-.463,0-.356.009-.717.012-1.066.015-.789.006-1.6.013-2.394.088-2.422.229-4.005,1.5-4.46,3.57a7.994,7.994,0,0,0-.068,2.1c.006.116.013.232.018.347a41.715,41.715,0,0,1-1.314,11.67.846.846,0,0,1-.563.621,3.85,3.85,0,0,0-2.3,2.527,6.022,6.022,0,0,0,.148,3.322,6.662,6.662,0,0,0,6.783,5.018c3.427.035,6.912.028,10.283.022q1.988,0,3.976,0" transform="translate(67.268 705.354)" fill="#0070b9" stroke="#0070b9" stroke-width="0.5"/>
    <path id="Path_7151" data-name="Path 7151" d="M100.6,17.967H96.724q-1.619,0-3.239,0a1.588,1.588,0,0,1-1.17-.36,1.262,1.262,0,0,1-.271-1.078c.161-1.5.335-3.048.517-4.607a1.124,1.124,0,0,1,1.277-1.065c2.528-.006,5.251-.006,8.325,0a1.125,1.125,0,0,1,1.283,1.06c.148,1.278.342,2.961.52,4.649a1.222,1.222,0,0,1-.275,1.043,1.512,1.512,0,0,1-1.117.356c-.655,0-1.317,0-1.974,0m-2.594-.333h1.3c1.071,0,2.178,0,3.266,0a1.171,1.171,0,0,0,.85-.247.936.936,0,0,0,.183-.789c-.179-1.687-.372-3.369-.52-4.646-.061-.534-.337-.762-.924-.763-3.073-.006-5.8-.006-8.323,0-.581,0-.856.231-.918.768-.181,1.559-.355,3.108-.516,4.6a.98.98,0,0,0,.179.823,1.254,1.254,0,0,0,.9.251q1.618,0,3.237,0Z" transform="translate(-13.654 695.706)" fill="#5fbabf" stroke="#5fbabf" stroke-width="0.5"/>
    <path id="Path_7152" data-name="Path 7152" d="M126.147,84.563h-4.883V83.041h4.883Zm-4.521-.332h4.158v-.858h-4.158Z" transform="translate(-39.359 631.499)" fill="#5fbabf" stroke="#0070b9" stroke-width="0.5"/>
    <path id="Path_7153" data-name="Path 7153" d="M104.848,112.42H93.163V104.8h11.685Zm-11.323-.332h10.96v-6.955H93.525Z" transform="translate(-14.65 612.146)" fill="#5fbabf" stroke="#5fbabf" stroke-width="0.5"/>
    <path id="Path_7154" data-name="Path 7154" d="M104.792,192.06H93.1V181.521h11.689Zm-11.327-.332H104.43v-9.875H93.465Z" transform="translate(-14.598 543.912)" fill="#5fbabf" stroke="#0070b9" stroke-width="0.5"/>
    <path id="Path_7155" data-name="Path 7155" d="M17.306,277.785a5.833,5.833,0,0,1-5.931-4.41,6.132,6.132,0,0,1-.2-2.682,3.154,3.154,0,0,1,2.634-2.518,3.6,3.6,0,0,1,1.27.087,6.2,6.2,0,0,1,2.44,1.282.671.671,0,0,1,.239.477c.006,2.253,0,4.542,0,6.756v.73a.288.288,0,0,1-.031.119c-.005.012-.011.026-.018.043l-.041.108-.124,0c-.078,0-.156,0-.233,0m-3.135-9.3a2.3,2.3,0,0,0-.312.02,2.8,2.8,0,0,0-2.332,2.25,5.877,5.877,0,0,0,.2,2.552,5.487,5.487,0,0,0,5.579,4.148h.083v-.676c0-2.214.007-4.5,0-6.754a.352.352,0,0,0-.114-.228,5.853,5.853,0,0,0-2.29-1.211,3.739,3.739,0,0,0-.817-.1" transform="translate(57.513 466.864)" fill="#5fbabf" stroke="#0070b9" stroke-width="0.5"/>
    <path id="Path_7156" data-name="Path 7156" d="M41.276,123.694a2.211,2.211,0,0,1-1.505-.481,6.373,6.373,0,0,0-3.463-1.411l-.175-.034.035-.161q.165-.756.328-1.517a39.259,39.259,0,0,0,.946-10.072c-.008-.185-.023-.374-.037-.558a6.509,6.509,0,0,1,0-1.492,3.85,3.85,0,0,1,3.772-3.289c.147-.016.3-.031.464-.047l.426-.042v19.07l-.246.013c-.183.01-.364.02-.542.02m-4.719-2.182a6.523,6.523,0,0,1,3.454,1.453,2.195,2.195,0,0,0,1.69.383V104.96l-.027,0c-.167.016-.313.03-.458.046-1.993.22-3.188,1.26-3.457,3.005a6.287,6.287,0,0,0,0,1.422c.014.186.03.378.038.567a39.571,39.571,0,0,1-.952,10.15q-.146.68-.293,1.358" transform="translate(35.498 612.333)" fill="#5fbabf" stroke="#0070b9" stroke-width="0.5"/>
    <path id="Path_7157" data-name="Path 7157" d="M90.313,292.7H73.993v-7.783h16.32Zm-15.958-.332h15.6v-7.119h-15.6Z" transform="translate(2.206 451.949)" fill="#0061a0" stroke="#5fbabf" stroke-width="0.5"/>
    <path id="Path_7158" data-name="Path 7158" d="M198.57,123.531c-.176,0-.354-.009-.534-.017l-.222-.01V104.4l.208.029.36.048c.236.031.458.06.68.1a3.744,3.744,0,0,1,3.466,3.983c0,.544-.028,1.095-.055,1.628-.028.551-.058,1.121-.055,1.679a41.7,41.7,0,0,0,1.219,9.188c.019.085.036.17.056.27l.062.306-.183.027-.225.032c-.167.023-.326.045-.479.076a5.9,5.9,0,0,0-2.711,1.251,2.269,2.269,0,0,1-1.586.511m-.395-.343a2.236,2.236,0,0,0,1.735-.412,6.264,6.264,0,0,1,2.879-1.331c.165-.034.329-.056.5-.08l.038-.005c-.017-.086-.032-.16-.049-.234a41.989,41.989,0,0,1-1.226-9.254c0-.567.026-1.141.055-1.7.027-.529.055-1.076.055-1.612a3.432,3.432,0,0,0-3.171-3.658c-.214-.037-.432-.066-.664-.1l-.155-.02Z" transform="translate(-106.668 612.499)" fill="#5fbabf" stroke="#0070b9" stroke-width="0.5"/>
    <path id="Path_7159" data-name="Path 7159" d="M217.134,277.936c-.061,0-.121-.006-.188-.012l-.122-.011-.166-.013v-2.237c0-1.741,0-3.541-.008-5.311a.853.853,0,0,1,.459-.834c.181-.1.364-.211.54-.318a8.086,8.086,0,0,1,1.176-.626,3.448,3.448,0,0,1,2.722-.005,2.85,2.85,0,0,1,1.588,1.9,5.911,5.911,0,0,1-1.224,5.3,6,6,0,0,1-4.744,2.162h-.035m-.113-.339a.988.988,0,0,0,.131.007,5.646,5.646,0,0,0,4.467-2.024,5.54,5.54,0,0,0,1.166-5.03,2.518,2.518,0,0,0-1.4-1.685,3.065,3.065,0,0,0-2.417.012,7.7,7.7,0,0,0-1.122.6c-.179.108-.364.221-.552.325a.528.528,0,0,0-.284.548c.01,1.771.009,3.572.008,5.314Z" transform="translate(-123.233 466.739)" fill="#5fbabf" stroke="#0070b9" stroke-width="0.5"/>
  </g>
</svg>
